<svg xmlns="http://www.w3.org/2000/svg" xmlns:xlink="http://www.w3.org/1999/xlink" version="1.1">

<defs>
<font id="BasisGrotesquePro-BoldItalic" horiz-adv-x="594" >
  <font-face 
    font-family="BasisGrotesquePro-BoldItalic"
    font-weight="700"
    font-style="italic"
    font-stretch="normal"
    units-per-em="1000"
    panose-1="2 0 8 3 3 0 0 9 0 4"
    ascent="800"
    descent="-200"
    x-height="496"
    cap-height="700"
    bbox="-140 -317 1189 934"
    underline-thickness="50"
    underline-position="-150"
    slope="-11"
    unicode-range="U+000D-FB04"
  />
<missing-glyph horiz-adv-x="500" 
 />
    <glyph glyph-name="ff" unicode="ff" horiz-adv-x="624" 
d="M236 394l-76 -394h-128l76 394h-71l20 102h71l16 78q36 176 202 176q36 0 66 -9l-25 -116q-25 9 -42 9q-61 0 -74 -63l-15 -75h154l16 78q36 176 202 176q36 0 66 -9l-25 -116q-25 9 -42 9q-61 0 -74 -63l-15 -75h107l-20 -102h-107l-76 -394h-128l76 394h-154z" />
    <glyph glyph-name="fi" unicode="fi" horiz-adv-x="590" 
d="M343 0l76 394h-183l-76 -394h-128l76 394h-71l20 102h71l16 78q36 176 202 176q36 0 66 -9l-25 -114q-25 9 -42 9q-61 0 -74 -65l-15 -75h311l-97 -496h-127zM447 568l26 132h140l-26 -132h-140z" />
    <glyph glyph-name="fl" unicode="fl" horiz-adv-x="591" 
d="M37 394l20 102h71l16 78q36 176 202 176q36 0 66 -9l-25 -116q-25 9 -42 9q-61 0 -74 -63l-15 -75h107l-20 -102h-107l-76 -394h-128l76 394h-71zM343 0l136 700h128l-137 -700h-127z" />
    <glyph glyph-name="f_f_i" unicode="ffi" horiz-adv-x="874" 
d="M627 0l76 394h-185l-76 -394h-128l76 394h-154l-76 -394h-128l76 394h-71l20 102h71l16 78q36 176 202 176q36 0 66 -9l-25 -116q-25 9 -42 9q-61 0 -74 -63l-15 -75h154l16 78q36 176 202 176q36 0 66 -9l-25 -116q-25 9 -42 9q-61 0 -74 -63l-15 -75h313l-97 -496h-127
zM731 568l26 132h140l-26 -132h-140z" />
    <glyph glyph-name="f_f_l" unicode="ffl" horiz-adv-x="876" 
d="M37 394l20 102h71l16 78q36 176 202 176q36 0 66 -9l-25 -116q-25 9 -42 9q-61 0 -74 -63l-15 -75h156l16 78q36 176 202 176q36 0 66 -9l-25 -116q-25 9 -42 9q-61 0 -74 -63l-15 -75h107l-20 -102h-107l-76 -394h-128l76 394h-156l-76 -394h-128l76 394h-71zM628 0
l136 700h128l-137 -700h-127z" />
    <glyph glyph-name="f_j" unicode="fj" horiz-adv-x="590" 
d="M200 -201l33 114q18 -8 37 -8q30 0 45.5 17t22.5 54l81 418h-183l-76 -394h-128l76 394h-71l20 102h71l16 78q36 176 202 176q36 0 66 -9l-25 -116q-25 9 -42 9q-61 0 -74 -63l-15 -75h311l-104 -540q-32 -167 -190 -167q-43 0 -73 10zM447 568l26 132h140l-26 -132h-140
z" />
    <glyph glyph-name="f_f_j" unicode="ffj" horiz-adv-x="874" 
d="M484 -201l33 114q18 -8 37 -8q30 0 45.5 17t22.5 54l81 418h-185l-76 -394h-128l76 394h-154l-76 -394h-128l76 394h-71l20 102h71l16 78q36 176 202 176q36 0 66 -9l-25 -116q-25 9 -42 9q-61 0 -74 -63l-15 -75h154l16 78q36 176 202 176q36 0 66 -9l-25 -116
q-25 9 -42 9q-61 0 -74 -63l-15 -75h313l-104 -540q-32 -167 -190 -167q-43 0 -73 10zM731 568l26 132h140l-26 -132h-140z" />
    <glyph glyph-name=".notdef" horiz-adv-x="500" 
 />
    <glyph glyph-name=".null" horiz-adv-x="0" 
 />
    <glyph glyph-name="nonmarkingreturn" horiz-adv-x="333" 
 />
    <glyph glyph-name="NULL" horiz-adv-x="0" 
 />
    <glyph glyph-name="NULL" horiz-adv-x="0" 
 />
    <glyph glyph-name="CR" unicode="&#xd;" horiz-adv-x="289" 
 />
    <glyph glyph-name="space" unicode=" " horiz-adv-x="276" 
 />
    <glyph glyph-name="exclam" unicode="!" horiz-adv-x="281" 
d="M106 457l48 243h132l-48 -243l-64 -249h-100zM17 0l27 138h132l-27 -138h-132z" />
    <glyph glyph-name="quotedbl" unicode="&#x22;" horiz-adv-x="394" 
d="M115 621l15 79h120l-15 -79l-45 -167h-94zM287 621l15 79h120l-15 -79l-45 -167h-94z" />
    <glyph glyph-name="numbersign" unicode="#" horiz-adv-x="666" 
d="M574 700l-38 -204h89v-94h-106l-19 -104h105v-94h-122l-37 -204h-110l37 204h-129l-38 -204h-110l38 204h-89v94h106l19 104h-105v94h122l37 204h110l-37 -204h129l38 204h110zM280 402l-19 -104h129l19 104h-129z" />
    <glyph glyph-name="dollar" unicode="$" horiz-adv-x="652" 
d="M206 -100l18 94q-81 19 -131 78.5t-61 135.5l121 61q13 -125 94 -157l40 205q-72 21 -120 69t-48 120q0 87 65.5 143.5t179.5 63.5l17 87h104l-19 -96q63 -17 104.5 -61.5t57.5 -105.5l-110 -59q-21 75 -75 106l-34 -173q171 -50 171 -183q0 -103 -68.5 -167.5
t-184.5 -73.5l-17 -87h-104zM446 209q0 49 -61 77l-35 -179q42 9 69 36t27 66zM246 517q0 -49 65 -76l31 159q-96 -13 -96 -83z" />
    <glyph glyph-name="percent" unicode="%" horiz-adv-x="875" 
d="M88 520q0 80 55 137t141 57q74 0 117 -41.5t43 -111.5q0 -82 -56 -139.5t-142 -57.5q-67 0 -112.5 44t-45.5 112zM279 628q-42 0 -69.5 -29.5t-27.5 -74.5q0 -33 20.5 -53.5t53.5 -20.5q40 0 67 29t27 74q0 32 -19.5 53.5t-51.5 21.5zM459 142q0 80 55 137t141 57
q74 0 117 -41.5t43 -111.5q0 -82 -56 -139.5t-142 -57.5q-67 0 -112.5 44t-45.5 112zM650 250q-42 0 -69.5 -29.5t-27.5 -74.5q0 -33 20.5 -53.5t53.5 -20.5q40 0 67 29t27 74q0 32 -19.5 53.5t-51.5 21.5zM201 -7l-63 56l565 658l63 -56z" />
    <glyph glyph-name="ampersand" unicode="&#x26;" horiz-adv-x="663" 
d="M593 0h-145l-20 33q-74 -47 -172 -47q-99 0 -159.5 57.5t-60.5 144.5q0 141 168 225q-21 50 -21 105q0 82 50 139t142 57q76 0 121.5 -37.5t45.5 -102.5q0 -122 -176 -201l90 -147q35 58 61 133l96 -58q-44 -117 -92 -183zM276 96q48 0 94 33l-118 195q-86 -48 -86 -121
q0 -51 31 -79t79 -28zM296 531q0 -36 19 -74q60 23 88.5 47.5t28.5 58.5q0 25 -17.5 40t-41.5 15q-34 0 -55.5 -26t-21.5 -61z" />
    <glyph glyph-name="quotesingle" unicode="'" horiz-adv-x="222" 
d="M113 621l15 79h120l-15 -79l-45 -167h-94z" />
    <glyph glyph-name="parenleft" unicode="(" horiz-adv-x="360" 
d="M202 -148h-112q-44 123 -44 280q0 150 56 304t152 264h113q-90 -124 -144 -273.5t-54 -300.5q0 -163 33 -274z" />
    <glyph glyph-name="parenright" unicode=")" horiz-adv-x="360" 
d="M149 700h112q44 -123 44 -280q0 -150 -56 -304t-152 -264h-113q90 124 144 273.5t54 300.5q0 163 -33 274z" />
    <glyph glyph-name="asterisk" unicode="*" horiz-adv-x="438" 
d="M350 700l-41 -110l101 67l35 -89l-108 -36l86 -35l-56 -94l-80 71l-5 -110h-103l39 110l-88 -63l-47 83l105 38l-86 36l56 94l83 -72l4 110h105z" />
    <glyph glyph-name="plus" unicode="+" horiz-adv-x="564" 
d="M43 314l19 102h190l38 191h104l-38 -191h190l-19 -102h-190l-38 -191h-104l38 191h-190z" />
    <glyph glyph-name="comma" unicode="," horiz-adv-x="214" 
d="M-18 0l26 134h134l-26 -134l-127 -151l-24 17l63 134h-46z" />
    <glyph glyph-name="hyphen" unicode="-" horiz-adv-x="468" 
d="M33 260l19 102h388l-19 -102h-388z" />
    <glyph glyph-name="period" unicode="." horiz-adv-x="214" 
d="M-18 0l27 134h134l-27 -134h-134z" />
    <glyph glyph-name="slash" unicode="/" horiz-adv-x="538" 
d="M-61 -30l546 760h135l-547 -760h-134z" />
    <glyph glyph-name="zero" unicode="0" horiz-adv-x="722" 
d="M693 415q0 -84 -25 -160.5t-71.5 -137t-119 -96t-161.5 -35.5q-121 0 -197.5 82.5t-76.5 222.5q0 76 24.5 150t69.5 135.5t118 99.5t161 38q126 0 202 -79t76 -220zM336 108q99 0 161 84.5t62 208.5q0 91 -41 141t-112 50q-70 0 -124 -47t-80 -113.5t-26 -134.5
q0 -90 43 -139.5t117 -49.5z" />
    <glyph glyph-name="one" unicode="1" horiz-adv-x="394" 
d="M83 490l23 122q117 0 173 88h124l-137 -700h-132l105 538q-30 -27 -65.5 -37.5t-90.5 -10.5z" />
    <glyph glyph-name="two" unicode="2" horiz-adv-x="586" 
d="M14 94l316 257q48 40 70 75.5t22 78.5q0 44 -27 68.5t-75 24.5q-47 0 -79.5 -31t-32.5 -73q0 -22 6 -38l-131 -24q-9 23 -9 50q0 100 68 166t182 66q105 0 168.5 -52.5t63.5 -144.5q0 -126 -141 -242l-187 -153h264l-24 -122h-472z" />
    <glyph glyph-name="three" unicode="3" horiz-adv-x="602" 
d="M68 262l118 -30q-12 -18 -12 -47q0 -39 31 -63t83 -24q55 0 92.5 35t37.5 88q0 104 -158 104l19 98q74 1 120 26.5t46 76.5q0 38 -27.5 59t-69.5 21q-45 0 -74 -25t-29 -74q0 -7 1 -13l-125 -21q-3 15 -3 29q0 92 65.5 152t178.5 60q101 0 157 -48t56 -122
q0 -56 -32.5 -100t-87.5 -62q44 -23 70.5 -62.5t26.5 -92.5q0 -105 -73 -173t-201 -68q-107 0 -169.5 55.5t-62.5 134.5q0 51 22 86z" />
    <glyph glyph-name="four" unicode="4" horiz-adv-x="614" 
d="M11 116l23 122l418 462h140l-90 -462h71l-24 -122h-71l-23 -116h-132l23 116h-335zM423 514l-244 -276h191z" />
    <glyph glyph-name="five" unicode="5" horiz-adv-x="609" 
d="M60 318l107 382h431l-24 -122h-336l-47 -159q62 59 156 59q100 0 156 -55t56 -156q0 -124 -81 -202.5t-213 -78.5q-103 0 -167.5 53.5t-64.5 130.5q0 42 17 78l118 -30q-8 -16 -8 -41q0 -32 32.5 -55.5t80.5 -23.5q70 0 112 43t42 115q0 59 -32.5 89.5t-85.5 30.5
q-45 0 -85.5 -23.5t-64.5 -61.5z" />
    <glyph glyph-name="six" unicode="6" horiz-adv-x="619" 
d="M579 484l-112 26q8 19 8 41q0 27 -25.5 44t-67.5 17q-69 0 -121.5 -61t-73.5 -161q62 68 162 68q96 0 159.5 -55t63.5 -148q0 -119 -79 -194t-203 -75q-112 0 -179.5 76.5t-67.5 205.5q0 59 13 119.5t41.5 119.5t68.5 105t99.5 74t128.5 28q89 0 146 -43.5t57 -108.5
q0 -40 -18 -78zM318 350q-62 0 -101.5 -40t-39.5 -101q0 -51 34.5 -83t88.5 -32q61 0 101.5 39.5t40.5 101.5q0 56 -34 85.5t-90 29.5z" />
    <glyph glyph-name="seven" unicode="7" horiz-adv-x="545" 
d="M566 584l-376 -584h-141l373 578h-329l24 122h472z" />
    <glyph glyph-name="eight" unicode="8" 
d="M270 -14q-105 0 -170.5 55t-65.5 138q0 69 41 122.5t109 81.5q-29 19 -49.5 54.5t-20.5 77.5q0 85 68 142t177 57q99 0 157 -47t58 -118q0 -63 -34 -109.5t-91 -70.5q39 -22 65.5 -62t26.5 -86q0 -109 -76.5 -172t-194.5 -63zM280 94q56 0 95 33.5t39 89.5q0 46 -32 72.5
t-80 26.5q-61 0 -97.5 -33.5t-36.5 -88.5q0 -46 32.5 -73t79.5 -27zM352 616q-50 0 -83 -30t-33 -76q0 -41 27 -63.5t65 -22.5q51 0 85 28.5t34 78.5q0 40 -25.5 62.5t-69.5 22.5z" />
    <glyph glyph-name="nine" unicode="9" horiz-adv-x="629" 
d="M62 217l119 -28q-8 -19 -8 -36q0 -28 22 -46.5t63 -18.5q74 0 124.5 58.5t67.5 164.5q-56 -69 -155 -69q-100 0 -163 61.5t-63 151.5q0 117 77.5 188t202.5 71q120 0 184 -69.5t64 -191.5q0 -61 -11 -123t-37.5 -124.5t-64.5 -111t-97.5 -78.5t-131.5 -30
q-94 0 -151.5 43t-57.5 112q0 41 16 76zM319 350q64 0 106 38.5t42 100.5q0 51 -33.5 84t-88.5 33q-64 0 -105 -39.5t-41 -104.5q0 -51 33.5 -81.5t86.5 -30.5z" />
    <glyph glyph-name="colon" unicode=":" horiz-adv-x="214" 
d="M50 350l27 134h134l-27 -134h-134zM-17 0l26 134h134l-27 -134h-133z" />
    <glyph glyph-name="semicolon" unicode=";" horiz-adv-x="214" 
d="M51 350l26 134h134l-26 -134h-134zM-17 0l26 134h134l-26 -134l-127 -151l-24 17l63 134h-46z" />
    <glyph glyph-name="less" unicode="&#x3c;" horiz-adv-x="526" 
d="M32 258l20 104l480 217l-28 -139l-315 -135l263 -134l-26 -128z" />
    <glyph glyph-name="equal" unicode="=" horiz-adv-x="564" 
d="M17 194l20 102h484l-20 -102h-484zM56 394l20 102h484l-20 -102h-484z" />
    <glyph glyph-name="greater" unicode="&#x3e;" horiz-adv-x="526" 
d="M498 364l-20 -104l-480 -217l28 139l315 135l-263 134l26 128z" />
    <glyph glyph-name="question" unicode="?" horiz-adv-x="549" 
d="M311 208h-127l3 16q9 48 35.5 82t86.5 75q58 40 84 69t26 71q0 33 -26.5 56t-70.5 23q-50 0 -82.5 -31t-32.5 -79q0 -12 3 -24l-125 -26q-5 22 -5 43q0 99 68 165t184 66q99 0 158 -47t59 -125q0 -119 -149 -218q-46 -31 -64.5 -55.5t-24.5 -60.5zM140 0l27 138h132
l-27 -138h-132z" />
    <glyph glyph-name="at" unicode="@" horiz-adv-x="958" 
d="M628 -5l41 -83q-110 -64 -260 -64q-73 0 -137.5 23.5t-116.5 69t-82.5 120t-30.5 168.5q0 129 59 239t172 178t256 68q174 0 277 -91.5t103 -250.5q0 -145 -74 -245t-192 -100q-42 0 -66.5 23.5t-24.5 64.5q-23 -37 -66 -62.5t-93 -25.5q-80 0 -126 55.5t-46 152.5
q0 73 30 141.5t93.5 116t146.5 47.5q82 0 114 -61l9 45h101l-75 -360q-2 -10 -2 -20q0 -32 32 -32q59 0 95.5 73t36.5 181q0 122 -70 189t-212 67q-161 0 -266 -114t-105 -274q0 -140 76 -217t200 -77q104 0 203 55zM415 112q70 0 116 69.5t46 154.5q0 117 -92 117
q-70 0 -113.5 -67t-43.5 -151q0 -59 23.5 -91t63.5 -32z" />
    <glyph glyph-name="A" unicode="A" horiz-adv-x="704" 
d="M-54 0l416 700h132l146 -700h-139l-35 183h-265l-105 -183h-150zM364 469l-97 -168h178l-29 168q-7 34 -12 76z" />
    <glyph glyph-name="B" unicode="B" horiz-adv-x="660" 
d="M14 0l137 700h275q94 0 150.5 -43.5t56.5 -112.5q0 -61 -33.5 -103.5t-92.5 -63.5q93 -49 93 -146q0 -102 -84.5 -166.5t-207.5 -64.5h-294zM207 312l-38 -194h153q67 0 105.5 28t38.5 82q0 84 -109 84h-150zM260 584l-30 -156h146q54 0 88.5 24t34.5 68q0 64 -93 64
h-146z" />
    <glyph glyph-name="C" unicode="C" horiz-adv-x="768" 
d="M584 249l109 -76q-66 -97 -146.5 -142t-189.5 -45q-135 0 -221.5 86t-86.5 228q0 170 114 292t299 122q210 0 286 -185l-116 -72q-26 66 -75 100.5t-114 34.5q-112 0 -185 -85t-73 -196q0 -90 51.5 -146.5t134.5 -56.5q67 0 122 39t91 102z" />
    <glyph glyph-name="D" unicode="D" horiz-adv-x="721" 
d="M14 0l137 700h211q150 0 235.5 -75.5t85.5 -218.5q0 -180 -117.5 -293t-329.5 -113h-222zM170 122h91q132 0 209 76t77 195q0 91 -53 138t-147 47h-88z" />
    <glyph glyph-name="E" unicode="E" horiz-adv-x="615" 
d="M14 0l137 700h479l-23 -118h-347l-32 -161h319l-23 -118h-319l-36 -185h350l-23 -118h-482z" />
    <glyph glyph-name="F" unicode="F" horiz-adv-x="618" 
d="M14 0l137 700h492l-23 -118h-360l-36 -181h330l-23 -118h-330l-55 -283h-132z" />
    <glyph glyph-name="G" unicode="G" horiz-adv-x="780" 
d="M573 0l-11 91q-86 -105 -226 -105q-123 0 -205 84.5t-82 220.5q0 115 49 210t146 154t224 59q106 0 178 -47.5t103 -126.5l-111 -71q-21 60 -68.5 94.5t-117.5 34.5q-114 0 -190.5 -84t-76.5 -211q0 -87 50 -141t128 -54q82 0 139 45.5t82 112.5h-227l21 108h356
l-73 -374h-88z" />
    <glyph glyph-name="H" unicode="H" horiz-adv-x="716" 
d="M16 0l137 700h132l-55 -282h302l55 282h132l-137 -700h-132l58 296h-302l-58 -296h-132z" />
    <glyph glyph-name="I" unicode="I" horiz-adv-x="278" 
d="M14 0l137 700h132l-137 -700h-132z" />
    <glyph glyph-name="J" unicode="J" horiz-adv-x="555" 
d="M578 700l-95 -486q-23 -118 -86 -173t-183 -55q-83 0 -138.5 49t-55.5 131q0 31 7 59l130 -15q-3 -18 -3 -32q0 -28 23 -49t61 -21q94 0 114 108l94 484h132z" />
    <glyph glyph-name="K" unicode="K" horiz-adv-x="658" 
d="M701 700l-297 -260l176 -440h-148l-136 349l-98 -86l-52 -263h-132l137 700h132l-50 -260l66 60l228 200h174z" />
    <glyph glyph-name="L" unicode="L" horiz-adv-x="597" 
d="M14 0l137 700h132l-113 -578h348l-24 -122h-480z" />
    <glyph glyph-name="M" unicode="M" horiz-adv-x="870" 
d="M14 0l137 700h136l116 -550l327 550h145l-137 -700h-128l84 428l-60 -107l-192 -321h-127l-72 312q-15 98 -17 116l-84 -428h-128z" />
    <glyph glyph-name="N" unicode="N" horiz-adv-x="728" 
d="M16 0l137 700h136l197 -453q12 -29 19 -55l100 508h128l-137 -700h-137l-196 454q-14 34 -20 55l-99 -509h-128z" />
    <glyph glyph-name="O" unicode="O" horiz-adv-x="812" 
d="M774 399q0 -173 -112.5 -293t-294.5 -120q-139 0 -229 90t-90 229q0 106 46 198t140 151.5t217 59.5q150 0 236.5 -86.5t86.5 -228.5zM384 108q111 0 182.5 82t71.5 200q0 95 -55.5 148.5t-146.5 53.5q-109 0 -180.5 -84t-71.5 -199q0 -94 57 -147.5t143 -53.5z" />
    <glyph glyph-name="P" unicode="P" horiz-adv-x="698" 
d="M14 0l137 700h298q112 0 176 -53t64 -153q0 -117 -87 -183.5t-224 -66.5h-184l-48 -244h-132zM260 582l-43 -220h178q72 0 115 32.5t43 90.5q0 97 -120 97h-173z" />
    <glyph glyph-name="Q" unicode="Q" horiz-adv-x="812" 
d="M774 399q0 -136 -72.5 -243.5t-196.5 -148.5q16 -38 65 -89l-111 -85q-62 70 -88 153h-4q-139 0 -229 90t-90 229q0 106 46 198t140 151.5t217 59.5q150 0 236.5 -86.5t86.5 -228.5zM384 108q111 0 182.5 82t71.5 200q0 95 -55.5 148.5t-146.5 53.5q-109 0 -180.5 -84
t-71.5 -199q0 -94 57 -147.5t143 -53.5z" />
    <glyph glyph-name="R" unicode="R" horiz-adv-x="667" 
d="M430 0l-105 284h-123l-56 -284h-132l137 700h287q105 0 164.5 -47t59.5 -131q0 -88 -55.5 -147t-146.5 -79l111 -296h-141zM260 584l-36 -184h167q60 0 97.5 26.5t37.5 76.5q0 81 -99 81h-167z" />
    <glyph glyph-name="S" unicode="S" horiz-adv-x="652" 
d="M368 598q-53 0 -88.5 -20.5t-35.5 -58.5q0 -37 34 -59.5t110 -42.5q94 -24 144 -69t50 -120q0 -110 -78 -176t-208 -66q-112 0 -182 63.5t-84 158.5l121 61q9 -76 48 -121.5t109 -45.5q58 0 99 29t41 78q0 40 -33.5 62t-110.5 42q-78 20 -132.5 69t-54.5 124
q0 92 71.5 150t189.5 58q193 0 243 -172l-101 -64q-35 120 -152 120z" />
    <glyph glyph-name="T" unicode="T" horiz-adv-x="592" 
d="M72 578l24 122h556l-24 -122h-212l-113 -578h-132l113 578h-212z" />
    <glyph glyph-name="U" unicode="U" horiz-adv-x="700" 
d="M712 700l-85 -435q-28 -145 -109 -212t-225 -67q-100 0 -168.5 60.5t-68.5 165.5q0 37 7 75l81 413h132l-81 -417q-5 -29 -5 -51q0 -59 34 -91.5t92 -32.5q150 0 184 176l80 416h132z" />
    <glyph glyph-name="V" unicode="V" horiz-adv-x="658" 
d="M202 0l-122 700h140l70 -448q5 -41 9 -78l38 78l246 448h151l-396 -700h-136z" />
    <glyph glyph-name="W" unicode="W" horiz-adv-x="942" 
d="M139 0l-56 700h136l24 -442q2 -51 2 -76l32 77l199 441h141l26 -441q2 -52 2 -77l32 76l195 442h141l-328 -700h-142l-34 508l-229 -508h-141z" />
    <glyph glyph-name="X" unicode="X" horiz-adv-x="621" 
d="M259 700l92 -218l169 218h151l-271 -330l158 -370h-145l-104 262l-205 -262h-155l308 383l-142 317h144z" />
    <glyph glyph-name="Y" unicode="Y" horiz-adv-x="602" 
d="M362 274l-54 -274h-132l54 274l-148 426h147l76 -251q8 -27 12 -51l32 51l177 251h151z" />
    <glyph glyph-name="Z" unicode="Z" horiz-adv-x="614" 
d="M105 578l24 122h512l-24 -122l-443 -456h371l-24 -122h-541l24 120l445 458h-344z" />
    <glyph glyph-name="bracketleft" unicode="[" horiz-adv-x="347" 
d="M-14 -150l164 850h229l-23 -118h-103l-119 -614h103l-23 -118h-228z" />
    <glyph glyph-name="backslash" unicode="\" horiz-adv-x="538" 
d="M213 730l253 -760h-124l-253 760h124z" />
    <glyph glyph-name="bracketright" unicode="]" horiz-adv-x="347" 
d="M352 700l-165 -850h-228l23 118h102l119 614h-103l23 118h229z" />
    <glyph glyph-name="asciicircum" unicode="^" horiz-adv-x="498" 
d="M266 700h113l124 -270h-122l-74 168l-140 -168h-128z" />
    <glyph glyph-name="underscore" unicode="_" horiz-adv-x="512" 
d="M-71 -109l18 102h498l-19 -102h-497z" />
    <glyph glyph-name="grave" unicode="`" horiz-adv-x="325" 
d="M273 708l37 -158h-97l-92 158h152z" />
    <glyph glyph-name="a" unicode="a" horiz-adv-x="624" 
d="M599 496l-97 -496h-128l12 61q-55 -75 -152 -75q-93 0 -151 64.5t-58 163.5q0 123 75.5 209.5t203.5 86.5q108 0 154 -75l13 61h128zM282 104q64 0 109 47t45 120q0 57 -34 89t-89 32q-69 0 -113.5 -47.5t-44.5 -117.5q0 -57 36 -90t91 -33z" />
    <glyph glyph-name="b" unicode="b" horiz-adv-x="624" 
d="M5 0l135 700h128l-52 -265q60 75 162 75q87 0 147 -61.5t60 -160.5q0 -131 -80.5 -216.5t-207.5 -85.5q-104 0 -153 75l-12 -61h-127zM294 104q69 0 114 47.5t45 118.5q0 57 -34 89.5t-91 32.5q-71 0 -115.5 -50.5t-44.5 -116.5q0 -58 34.5 -89.5t91.5 -31.5z" />
    <glyph glyph-name="c" unicode="c" horiz-adv-x="560" 
d="M418 193l97 -67q-46 -75 -106 -107.5t-143 -32.5q-101 0 -169 64.5t-68 170.5q0 76 32 140t102.5 106.5t167.5 42.5q76 0 129 -36t79 -99l-109 -64q-32 81 -118 81q-66 0 -109.5 -49t-43.5 -113q0 -59 33 -92.5t86 -33.5q85 0 140 89z" />
    <glyph glyph-name="d" unicode="d" horiz-adv-x="630" 
d="M645 700l-136 -700h-128l10 58q-53 -72 -147 -72q-95 0 -157 65t-62 165q0 122 77.5 208t205.5 86q54 0 95.5 -21t61.5 -54l52 265h128zM284 104q65 0 111.5 47.5t46.5 119.5q0 57 -35 89t-93 32q-70 0 -114.5 -47t-44.5 -114q0 -60 36.5 -93.5t92.5 -33.5z" />
    <glyph glyph-name="e" unicode="e" horiz-adv-x="575" 
d="M528 218h-385q0 -58 32.5 -91t85.5 -33q98 0 148 89l91 -58q-43 -71 -101.5 -105t-144.5 -34q-102 0 -165.5 64t-63.5 172q0 119 82.5 203.5t208.5 84.5q105 0 164 -54.5t59 -141.5q0 -36 -6 -68zM311 414q-49 0 -89 -29t-57 -75h262q0 48 -31.5 76t-84.5 28z" />
    <glyph glyph-name="f" unicode="f" horiz-adv-x="342" 
d="M37 394l20 102h71l16 78q36 176 202 176q36 0 66 -9l-25 -116q-25 9 -42 9q-61 0 -74 -63l-15 -75h107l-20 -102h-107l-76 -394h-128l76 394h-71z" />
    <glyph glyph-name="g" unicode="g" horiz-adv-x="597" 
d="M16 5l115 -37q-9 -18 -9 -35q0 -22 25 -36.5t69 -14.5q119 0 145 136l11 59q-48 -69 -140 -69q-86 0 -147.5 58t-61.5 160q0 118 74.5 201t200.5 83q50 0 88.5 -19t56.5 -49l11 54h128l-92 -473q-24 -126 -94 -183.5t-190 -57.5q-99 0 -156.5 42.5t-57.5 103.5
q0 43 24 77zM300 400q-64 0 -105.5 -49.5t-41.5 -113.5q0 -57 32 -88t81 -31q65 0 106.5 51t41.5 120q0 49 -32.5 80t-81.5 31z" />
    <glyph glyph-name="h" unicode="h" horiz-adv-x="600" 
d="M544 328l-65 -328h-128l56 283q2 12 2 24q0 39 -21 62t-61 23q-55 0 -94.5 -37t-53.5 -108l-48 -247h-127l136 700h128l-53 -275q26 38 72.5 61.5t99.5 23.5q74 0 117.5 -38t43.5 -103q0 -18 -4 -41z" />
    <glyph glyph-name="i" unicode="i" horiz-adv-x="250" 
d="M3 0l96 496h128l-97 -496h-127zM107 568l26 132h140l-26 -132h-140z" />
    <glyph glyph-name="j" unicode="j" horiz-adv-x="250" 
d="M-140 -201l33 114q18 -8 37 -8q30 0 45.5 17t22.5 54l101 520h128l-104 -540q-32 -167 -190 -167q-43 0 -73 10zM107 568l26 132h140l-26 -132h-140z" />
    <glyph glyph-name="k" unicode="k" horiz-adv-x="541" 
d="M269 700l-67 -344l163 140h167l-209 -174l138 -322h-134l-106 239l-51 -44l-38 -195h-127l136 700h128z" />
    <glyph glyph-name="l" unicode="l" horiz-adv-x="252" 
d="M4 0l136 700h128l-137 -700h-127z" />
    <glyph glyph-name="m" unicode="m" horiz-adv-x="852" 
d="M796 330l-64 -330h-128l60 307q3 15 3 27q0 30 -18 48t-51 18q-42 0 -71 -32t-41 -92l-54 -276h-128l60 310q3 18 3 29q0 28 -16.5 44.5t-47.5 16.5q-40 0 -73 -31.5t-44 -90.5l-54 -278h-128l96 496h128l-11 -61q56 75 154 75q94 0 126 -78q61 78 161 78
q64 0 103.5 -36.5t39.5 -95.5q0 -20 -5 -48z" />
    <glyph glyph-name="n" unicode="n" 
d="M537 325l-63 -325h-128l56 288q5 25 5 37q0 30 -22.5 48.5t-61.5 18.5q-51 0 -90.5 -39t-51.5 -101l-49 -252h-128l96 496h128l-12 -67q62 81 165 81q77 0 118.5 -39t41.5 -101q0 -15 -4 -45z" />
    <glyph glyph-name="o" unicode="o" horiz-adv-x="612" 
d="M574 280q0 -128 -85.5 -211t-219.5 -83q-100 0 -171 63t-71 162q0 128 84 213.5t219 85.5q106 0 175 -60.5t69 -169.5zM285 104q66 0 111.5 47t45.5 118q0 57 -35 90t-93 33q-68 0 -112.5 -49.5t-44.5 -114.5q0 -59 36.5 -91.5t91.5 -32.5z" />
    <glyph glyph-name="p" unicode="p" horiz-adv-x="624" 
d="M-33 -204l135 700h128l-12 -61q24 32 66.5 53.5t94.5 21.5q90 0 148 -58.5t58 -164.5q0 -125 -79.5 -213t-201.5 -88q-52 0 -95 21.5t-63 53.5l-52 -265h-127zM329 392q-68 0 -112.5 -48.5t-44.5 -118.5q0 -54 35 -87.5t88 -33.5q65 0 111.5 47.5t46.5 118.5
q0 56 -34.5 89t-89.5 33z" />
    <glyph glyph-name="q" unicode="q" horiz-adv-x="624" 
d="M599 496l-136 -700h-128l52 265q-54 -75 -153 -75q-91 0 -152.5 62t-61.5 165q0 120 77 208.5t205 88.5q57 0 97.5 -22t58.5 -58l13 66h128zM311 392q-69 0 -115 -48t-46 -118q0 -57 35 -89.5t90 -32.5q68 0 114 48t46 119q0 57 -35 89t-89 32z" />
    <glyph glyph-name="r" unicode="r" horiz-adv-x="384" 
d="M406 504l-43 -119q-17 7 -40 7q-56 0 -92.5 -40t-50.5 -114l-47 -238h-128l96 496h128l-13 -68q46 82 148 82q21 0 42 -6z" />
    <glyph glyph-name="s" unicode="s" horiz-adv-x="500" 
d="M264 418q-31 0 -52.5 -12.5t-21.5 -36.5q0 -43 97 -65q76 -18 112.5 -52t36.5 -92q0 -78 -58.5 -126t-159.5 -48q-78 0 -134 43.5t-72 107.5l100 58q22 -103 121 -103q36 0 60 15t24 42q0 25 -23.5 38.5t-76.5 27.5q-141 37 -141 147q0 64 53 106t142 42q149 0 191 -123
l-91 -49q-33 80 -107 80z" />
    <glyph glyph-name="t" unicode="t" horiz-adv-x="374" 
d="M42 394l20 102h77l26 134h128l-26 -134h106l-20 -102h-106l-44 -226q-3 -16 -3 -28q0 -20 14 -31t37 -11q21 0 43 6l-8 -104q-47 -14 -90 -14q-55 0 -91.5 32.5t-36.5 85.5q0 25 6 58l45 232h-77z" />
    <glyph glyph-name="u" unicode="u" 
d="M40 188l60 308h128l-55 -282q-5 -25 -5 -42q0 -34 24 -51t64 -17q49 0 87 39t51 106l48 247h128l-96 -496h-128l12 67q-24 -37 -65.5 -59t-90.5 -22q-79 0 -123.5 43.5t-44.5 106.5q0 17 6 52z" />
    <glyph glyph-name="v" unicode="v" horiz-adv-x="534" 
d="M568 496l-298 -496h-124l-102 496h132l60 -336l190 336h142z" />
    <glyph glyph-name="w" unicode="w" horiz-adv-x="714" 
d="M454 496l23 -322l141 322h128l-229 -496h-127l-27 337l-157 -337h-122l-42 496h121l16 -323l147 323h128z" />
    <glyph glyph-name="x" unicode="x" horiz-adv-x="490" 
d="M196 496l53 -130l102 130h149l-197 -229l116 -267h-136l-67 167l-126 -167h-151l225 274l-102 222h134z" />
    <glyph glyph-name="y" unicode="y" horiz-adv-x="546" 
d="M-26 -200l42 117q21 -12 43 -12q42 0 67 47l25 48l-107 496h136l67 -328l188 328h142l-352 -588q-41 -68 -80 -93.5t-102 -25.5q-42 0 -69 11z" />
    <glyph glyph-name="z" unicode="z" horiz-adv-x="496" 
d="M149 102h273l-20 -102h-423l19 102l316 292h-248l20 102h396l-20 -102z" />
    <glyph glyph-name="braceleft" unicode="{" horiz-adv-x="395" 
d="M34 224l19 102q39 0 60.5 17t30.5 62l23 120q18 95 66 135t137 40h58l-23 -118h-25q-76 0 -93 -87l-22 -112q-9 -47 -29 -70.5t-57 -37.5q47 -20 47 -72q0 -22 -4 -43l-20 -105q-4 -22 -4 -33q0 -54 63 -54h25l-23 -118h-56q-60 0 -100.5 33t-40.5 96q0 23 5 53l22 113
q3 16 3 29q0 50 -62 50z" />
    <glyph glyph-name="bar" unicode="|" horiz-adv-x="268" 
d="M-6 -110l164 850h122l-165 -850h-121z" />
    <glyph glyph-name="braceright" unicode="}" horiz-adv-x="395" 
d="M352 326l-19 -102q-39 0 -60.5 -17t-30.5 -62l-23 -120q-18 -95 -66 -135t-137 -40h-58l23 118h25q76 0 93 87l22 112q9 47 29 70.5t57 37.5q-47 20 -47 72q0 22 4 43l20 105q4 22 4 33q0 54 -63 54h-25l23 118h56q60 0 100.5 -33t40.5 -96q0 -23 -5 -53l-22 -113
q-3 -17 -3 -29q0 -50 62 -50z" />
    <glyph glyph-name="asciitilde" unicode="~" horiz-adv-x="461" 
d="M160 317q-14 0 -22.5 -9t-8.5 -24q0 -5 2 -15l-91 -16q-7 19 -7 41q0 50 32 83t92 33q38 0 65.5 -16t45.5 -31.5t33 -15.5t24 8.5t9 23.5q0 1 -3 16l91 16q7 -14 7 -40q0 -58 -32.5 -87.5t-91.5 -29.5q-39 0 -66.5 16t-45 31.5t-33.5 15.5z" />
    <glyph glyph-name="exclamdown" unicode="&#xa1;" horiz-adv-x="278" 
d="M153 39l-48 -243h-132l48 243l64 249h100zM242 496l-27 -138h-132l27 138h132z" />
    <glyph glyph-name="cent" unicode="&#xa2;" horiz-adv-x="569" 
d="M422 193l97 -67q-43 -71 -98.5 -103.5t-130.5 -35.5l-18 -97h-100l20 107q-74 23 -116.5 84.5t-42.5 139.5q0 108 67.5 190t190.5 96l22 113h100l-23 -116q113 -23 153 -129l-109 -64q-18 51 -67 71l-53 -275q62 12 108 86zM163 230q0 -77 53 -109l51 263
q-47 -16 -75.5 -58.5t-28.5 -95.5z" />
    <glyph glyph-name="sterling" unicode="&#xa3;" horiz-adv-x="575" 
d="M43 397h65q-2 36 -2 60q0 110 67 183.5t195 73.5q98 0 157 -46t59 -121q0 -44 -23 -92l-118 25q11 24 11 48q0 37 -26 58.5t-70 21.5q-59 0 -92 -46t-33 -115q0 -9 1 -24t1 -26h189l-19 -98h-165q-6 -110 -73 -189h327l-21 -110h-469l17 94q46 47 68.5 93t23.5 112h-89z
" />
    <glyph glyph-name="currency" unicode="&#xa4;" horiz-adv-x="652" 
d="M548 350q0 -66 -32 -119l78 -77l-72 -72l-78 78q-54 -33 -118 -33t-118 33l-78 -78l-72 72l78 77q-32 53 -32 119t32 119l-78 77l72 72l78 -78q54 33 118 33t118 -33l78 78l72 -72l-78 -77q32 -53 32 -119zM326 224q53 0 86.5 35t33.5 91t-33.5 91t-86.5 35t-86.5 -35
t-33.5 -91t33.5 -91t86.5 -35z" />
    <glyph glyph-name="yen" unicode="&#xa5;" horiz-adv-x="606" 
d="M54 112l20 102h146l12 60h-146l20 102h90l-107 324h144l69 -245q9 -30 14 -54l34 53l171 246h153l-234 -324h90l-20 -102h-146l-12 -60h146l-20 -102h-146l-22 -112h-132l22 112h-146z" />
    <glyph glyph-name="brokenbar" unicode="&#xa6;" horiz-adv-x="268" 
d="M211 386h-122l69 354h122zM62 244h122l-69 -354h-121z" />
    <glyph glyph-name="section" unicode="&#xa7;" horiz-adv-x="525" 
d="M56 318q0 79 68 127q-23 35 -23 83q0 80 58.5 133t160.5 53q78 0 133 -38.5t75 -100.5l-94 -61q-12 51 -45 77.5t-79 26.5q-41 0 -69 -21t-28 -57q0 -32 26 -54t89 -37q141 -33 141 -142q0 -83 -71 -131q23 -38 23 -81q0 -81 -58.5 -134.5t-161.5 -53.5q-81 0 -134 38.5
t-71 100.5l92 61q24 -104 123 -104q41 0 71 21.5t30 56.5q0 32 -27 53t-89 37q-64 16 -102 54.5t-38 92.5zM269 258q39 -12 61 -24q32 23 32 54q0 25 -23 41.5t-86 33.5q-30 8 -62 23q-29 -20 -29 -50q0 -28 22 -44t85 -34z" />
    <glyph glyph-name="dieresis" unicode="&#xa8;" horiz-adv-x="414" 
d="M287 576l25 124h118l-25 -124h-118zM107 576l25 124h118l-25 -124h-118z" />
    <glyph glyph-name="copyright" unicode="&#xa9;" horiz-adv-x="828" 
d="M50 350q0 151 107 257.5t257 106.5t257 -106.5t107 -257.5t-107 -257.5t-257 -106.5t-257 106.5t-107 257.5zM138 350q0 -116 80.5 -197t195.5 -81t195.5 81t80.5 197t-80.5 197t-195.5 81t-195.5 -81t-80.5 -197zM517 309l79 -52q-55 -111 -180 -111q-88 0 -146 56.5
t-58 147.5q0 90 59.5 147t144.5 57q64 0 110 -27.5t66 -77.5l-80 -53q-30 66 -97 66q-44 0 -73.5 -30.5t-29.5 -81.5t29 -81.5t74 -30.5q67 0 102 71z" />
    <glyph glyph-name="ordfeminine" unicode="&#xaa;" horiz-adv-x="396" 
d="M363 300h-89q-7 10 -7 29q0 13 2 21q-34 -57 -109 -57q-48 0 -79 29t-31 76q0 48 35 79t103 40l112 15l2 10q1 6 1 11q0 41 -60 41q-66 0 -66 -38q0 -3 1 -7l-88 -29q-3 10 -3 22q0 53 45 84t113 31q66 0 104.5 -27.5t38.5 -77.5q0 -14 -4 -36l-25 -128q-5 -27 -5 -43
q0 -25 9 -45zM184 365q80 0 102 96l2 9l-93 -12q-25 -3 -41 -17t-16 -36q0 -40 46 -40z" />
    <glyph glyph-name="guillemotleft" unicode="&#xab;" horiz-adv-x="590" 
d="M251 488h148l-213 -218l121 -208h-139l-126 212zM463 488h148l-213 -218l121 -208h-139l-126 212z" />
    <glyph glyph-name="logicalnot" unicode="&#xac;" horiz-adv-x="549" 
d="M463 174h-120l27 140h-327l20 102h447z" />
    <glyph glyph-name="registered" unicode="&#xae;" horiz-adv-x="828" 
d="M473 151l-91 153h-27v-153h-88v398h163q71 0 107.5 -33.5t36.5 -89.5q0 -44 -27 -76t-72 -43l95 -156h-97zM355 475v-99h72q62 0 62 50q0 49 -62 49h-72zM50 350q0 151 107 257.5t257 106.5t257 -106.5t107 -257.5t-107 -257.5t-257 -106.5t-257 106.5t-107 257.5z
M138 350q0 -116 80.5 -197t195.5 -81t195.5 81t80.5 197t-80.5 197t-195.5 81t-195.5 -81t-80.5 -197z" />
    <glyph glyph-name="macron" unicode="&#xaf;" horiz-adv-x="328" 
d="M97 588l19 94h248l-19 -94h-248z" />
    <glyph glyph-name="degree" unicode="&#xb0;" horiz-adv-x="354" 
d="M91 575q0 58 40 98.5t100 40.5t100 -40.5t40 -98.5t-40 -98.5t-100 -40.5t-100 40.5t-40 98.5zM171 575q0 -27 16.5 -44t43.5 -17t43.5 17t16.5 44t-16.5 44t-43.5 17t-43.5 -17t-16.5 -44z" />
    <glyph glyph-name="plusminus" unicode="&#xb1;" horiz-adv-x="575" 
d="M58 374l19 102h190l38 191h104l-38 -191h190l-19 -102h-190l-38 -191h-104l38 191h-190zM-14 0l19 102h484l-19 -102h-484z" />
    <glyph glyph-name="twosuperior" unicode="&#xb2;" horiz-adv-x="339" 
d="M62 399l157 129q43 35 43 70q0 38 -43 38q-22 0 -35 -15t-13 -35q0 -7 1 -12l-82 -11q-2 10 -2 24q0 49 35.5 84.5t101.5 35.5q54 0 89 -26.5t35 -71.5q0 -35 -17.5 -64t-56.5 -61l-79 -65h122l-13 -69h-252z" />
    <glyph glyph-name="threesuperior" unicode="&#xb3;" horiz-adv-x="347" 
d="M89 486l79 -18q-5 -12 -5 -21q0 -15 12.5 -25t32.5 -10q24 0 39 14.5t15 37.5q0 41 -73 41l11 60q76 0 76 45q0 31 -40 31q-18 0 -30.5 -11t-12.5 -28q0 -6 1 -11l-79 -10q-2 9 -2 19q0 49 37 78t94 29q52 0 84 -23t32 -56q0 -59 -55 -85q44 -22 44 -74q0 -57 -40 -91.5
t-107 -34.5q-54 0 -89.5 28.5t-35.5 68.5q0 25 12 46z" />
    <glyph glyph-name="acute" unicode="&#xb4;" horiz-adv-x="325" 
d="M110 550l95 158h155l-149 -158h-101z" />
    <glyph glyph-name="mu" unicode="&#xb5;" 
d="M-36 -204l136 700h128l-55 -282q-5 -25 -5 -42q0 -34 24 -51t64 -17q49 0 87 39t51 106l48 247h128l-96 -496h-128l12 67q-51 -81 -155 -81q-40 0 -76 13q-1 -5 -4 -31t-6 -41l-26 -131h-127z" />
    <glyph glyph-name="paragraph" unicode="&#xb6;" horiz-adv-x="655" 
d="M433 598l-139 -718h-112l82 424h-17q-81 0 -134 47.5t-53 126.5q0 98 70.5 160t193.5 62h378l-20 -102h-65l-139 -718h-112l139 718h-72z" />
    <glyph glyph-name="periodcentered" unicode="&#xb7;" horiz-adv-x="214" 
d="M40 290l27 134h134l-27 -134h-134z" />
    <glyph glyph-name="cedilla" unicode="&#xb8;" horiz-adv-x="295" 
d="M46 -112l-34 33l51 95h72l-53 -68q16 8 38 8q30 0 48.5 -18t18.5 -48q0 -44 -29 -69t-76 -25q-75 0 -90 61l70 17q3 -22 25 -22q12 0 20 8t8 22q0 24 -26 24q-22 0 -43 -18z" />
    <glyph glyph-name="onesuperior" unicode="&#xb9;" horiz-adv-x="254" 
d="M86 580l15 77q57 0 87 43h82l-69 -350h-86l49 251q-28 -21 -78 -21z" />
    <glyph glyph-name="ordmasculine" unicode="&#xba;" horiz-adv-x="458" 
d="M440 501q0 -87 -60 -147.5t-156 -60.5q-69 0 -118 42t-49 117q0 83 58 144t158 61q69 0 118 -40t49 -116zM236 380q46 0 78 32.5t32 79.5q0 38 -24.5 58t-61.5 20q-47 0 -78 -32.5t-31 -76.5q0 -39 24.5 -60t60.5 -21z" />
    <glyph glyph-name="guillemotright" unicode="&#xbb;" horiz-adv-x="590" 
d="M345 62h-148l213 218l-121 208h139l126 -212zM133 62h-148l213 218l-121 208h139l126 -212z" />
    <glyph glyph-name="onequarter" unicode="&#xbc;" horiz-adv-x="726" 
d="M80 580l15 77q57 0 87 43h82l-69 -350h-86l49 251q-28 -21 -78 -21zM115 -7l-63 56l565 658l63 -56zM360 58l13 66l206 226h84l-44 -226h36l-13 -66h-36l-12 -58h-84l12 58h-162zM556 231l-98 -107h77z" />
    <glyph glyph-name="onehalf" unicode="&#xbd;" horiz-adv-x="753" 
d="M82 580l15 77q57 0 87 43h82l-69 -350h-86l49 251q-28 -21 -78 -21zM118 -7l-63 56l565 658l63 -56zM425 49l157 129q43 35 43 70q0 38 -43 38q-22 0 -35 -15t-13 -35q0 -7 1 -12l-82 -11q-2 10 -2 24q0 49 35.5 84.5t101.5 35.5q54 0 89 -26.5t35 -71.5q0 -35 -17.5 -64
t-56.5 -61l-79 -65h122l-13 -69h-252z" />
    <glyph glyph-name="threequarters" unicode="&#xbe;" horiz-adv-x="795" 
d="M172 -7l-63 56l565 658l63 -56zM430 58l13 66l206 226h84l-44 -226h36l-13 -66h-36l-12 -58h-84l12 58h-162zM626 231l-98 -107h77zM77 486l79 -18q-5 -12 -5 -21q0 -15 12.5 -25t32.5 -10q24 0 39 14.5t15 37.5q0 41 -73 41l11 60q76 0 76 45q0 31 -40 31
q-18 0 -30.5 -11t-12.5 -28q0 -6 1 -11l-79 -10q-2 9 -2 19q0 49 37 78t94 29q52 0 84 -23t32 -56q0 -59 -55 -85q44 -22 44 -74q0 -57 -40 -91.5t-107 -34.5q-54 0 -89.5 28.5t-35.5 68.5q0 25 12 46z" />
    <glyph glyph-name="questiondown" unicode="&#xbf;" horiz-adv-x="549" 
d="M217 288h127l-3 -16q-9 -48 -35.5 -82t-86.5 -75q-58 -40 -84 -69t-26 -71q0 -33 26.5 -56t70.5 -23q50 0 82.5 31t32.5 79q0 12 -3 24l125 26q5 -22 5 -43q0 -99 -68 -165t-184 -66q-99 0 -158 47t-59 125q0 119 149 218q46 31 64.5 55.5t24.5 60.5zM388 496l-27 -138
h-132l27 138h132z" />
    <glyph glyph-name="Agrave" unicode="&#xc0;" horiz-adv-x="704" 
d="M-54 0l416 700h132l146 -700h-139l-35 183h-265l-105 -183h-150zM364 469l-97 -168h178l-29 168q-7 34 -12 76zM447 912l37 -158h-97l-92 158h152z" />
    <glyph glyph-name="Aacute" unicode="&#xc1;" horiz-adv-x="704" 
d="M-54 0l416 700h132l146 -700h-139l-35 183h-265l-105 -183h-150zM364 469l-97 -168h178l-29 168q-7 34 -12 76zM381 754l95 158h155l-149 -158h-101z" />
    <glyph glyph-name="Acircumflex" unicode="&#xc2;" horiz-adv-x="704" 
d="M-54 0l416 700h132l146 -700h-139l-35 183h-265l-105 -183h-150zM364 469l-97 -168h178l-29 168q-7 34 -12 76zM268 754l143 157h92l82 -157h-93l-52 60l-73 -60h-99z" />
    <glyph glyph-name="Atilde" unicode="&#xc3;" horiz-adv-x="704" 
d="M-54 0l416 700h132l146 -700h-139l-35 183h-265l-105 -183h-150zM364 469l-97 -168h178l-29 168q-7 34 -12 76zM366 820q-13 0 -20.5 -9t-7.5 -21q0 -6 4 -16l-85 -16q-6 12 -6 34q0 47 30 78t85 31q37 0 63 -16.5t43.5 -33t33.5 -16.5q26 0 26 29q0 8 -3 17l83 17
q6 -17 6 -42q0 -44 -30.5 -73t-82.5 -29q-38 0 -63.5 16.5t-42 33t-33.5 16.5z" />
    <glyph glyph-name="Adieresis" unicode="&#xc4;" horiz-adv-x="704" 
d="M-54 0l416 700h132l146 -700h-139l-35 183h-265l-105 -183h-150zM364 469l-97 -168h178l-29 168q-7 34 -12 76zM474 780l25 124h118l-25 -124h-118zM294 780l25 124h118l-25 -124h-118z" />
    <glyph glyph-name="Aring" unicode="&#xc5;" horiz-adv-x="704" 
d="M-54 0l416 700h132l146 -700h-139l-35 183h-265l-105 -183h-150zM364 469l-97 -168h178l-29 168q-7 34 -12 76zM345 839q0 40 28 67.5t68 27.5t68 -27.5t28 -67.5t-28 -67.5t-68 -27.5t-68 27.5t-28 67.5zM408 839q0 -16 9 -25t24 -9t24 9t9 25t-9 25t-24 9t-24 -9
t-9 -25z" />
    <glyph glyph-name="AE" unicode="&#xc6;" horiz-adv-x="990" 
d="M385 0l36 183h-210l-117 -183h-148l454 700h605l-23 -118h-351l-32 -161h323l-23 -118h-323l-36 -185h354l-23 -118h-486zM466 582l-180 -281h158l55 281h-33z" />
    <glyph glyph-name="Ccedilla" unicode="&#xc7;" horiz-adv-x="768" 
d="M301 -112l-34 33l37 69q-115 16 -185 99t-70 211q0 170 114 292t299 122q210 0 286 -185l-116 -72q-26 66 -75 100.5t-114 34.5q-112 0 -185 -85t-73 -196q0 -90 51.5 -146.5t134.5 -56.5q67 0 122 39t91 102l109 -76q-64 -94 -142.5 -139.5t-184.5 -47.5l-29 -38
q16 8 38 8q30 0 48.5 -18t18.5 -48q0 -44 -29 -69t-76 -25q-75 0 -90 61l70 17q3 -22 25 -22q12 0 20 8t8 22q0 24 -26 24q-22 0 -43 -18z" />
    <glyph glyph-name="Egrave" unicode="&#xc8;" horiz-adv-x="615" 
d="M14 0l137 700h479l-23 -118h-347l-32 -161h319l-23 -118h-319l-36 -185h350l-23 -118h-482zM418 912l37 -158h-97l-92 158h152z" />
    <glyph glyph-name="Eacute" unicode="&#xc9;" horiz-adv-x="615" 
d="M14 0l137 700h479l-23 -118h-347l-32 -161h319l-23 -118h-319l-36 -185h350l-23 -118h-482zM311 754l95 158h155l-149 -158h-101z" />
    <glyph glyph-name="Ecircumflex" unicode="&#xca;" horiz-adv-x="615" 
d="M14 0l137 700h479l-23 -118h-347l-32 -161h319l-23 -118h-319l-36 -185h350l-23 -118h-482zM239 754l143 157h92l82 -157h-93l-52 60l-73 -60h-99z" />
    <glyph glyph-name="Edieresis" unicode="&#xcb;" horiz-adv-x="615" 
d="M14 0l137 700h479l-23 -118h-347l-32 -161h319l-23 -118h-319l-36 -185h350l-23 -118h-482zM435 780l25 124h118l-25 -124h-118zM255 780l25 124h118l-25 -124h-118z" />
    <glyph glyph-name="Igrave" unicode="&#xcc;" horiz-adv-x="278" 
d="M14 0l137 700h132l-137 -700h-132zM246 912l37 -158h-97l-92 158h152z" />
    <glyph glyph-name="Iacute" unicode="&#xcd;" horiz-adv-x="278" 
d="M14 0l137 700h132l-137 -700h-132zM163 754l95 158h155l-149 -158h-101z" />
    <glyph glyph-name="Icircumflex" unicode="&#xce;" horiz-adv-x="278" 
d="M14 0l137 700h132l-137 -700h-132zM66 754l143 157h92l82 -157h-93l-52 60l-73 -60h-99z" />
    <glyph glyph-name="Idieresis" unicode="&#xcf;" horiz-adv-x="278" 
d="M14 0l137 700h132l-137 -700h-132zM261 780l25 124h118l-25 -124h-118zM81 780l25 124h118l-25 -124h-118z" />
    <glyph glyph-name="Eth" unicode="&#xd0;" horiz-adv-x="759" 
d="M52 0l57 295h-77l21 110h78l58 295h211q150 0 235.5 -75.5t85.5 -218.5q0 -180 -117.5 -293t-329.5 -113h-222zM208 122h91q132 0 209 76t77 195q0 91 -53 138t-147 47h-88l-34 -173h155l-21 -110h-155z" />
    <glyph glyph-name="Ntilde" unicode="&#xd1;" horiz-adv-x="728" 
d="M16 0l137 700h136l197 -453q12 -29 19 -55l100 508h128l-137 -700h-137l-196 454q-14 34 -20 55l-99 -509h-128zM396 820q-13 0 -20.5 -9t-7.5 -21q0 -6 4 -16l-85 -16q-6 12 -6 34q0 47 30 78t85 31q37 0 63 -16.5t43.5 -33t33.5 -16.5q26 0 26 29q0 8 -3 17l83 17
q6 -17 6 -42q0 -44 -30.5 -73t-82.5 -29q-38 0 -63.5 16.5t-42 33t-33.5 16.5z" />
    <glyph glyph-name="Ograve" unicode="&#xd2;" horiz-adv-x="812" 
d="M774 399q0 -173 -112.5 -293t-294.5 -120q-139 0 -229 90t-90 229q0 106 46 198t140 151.5t217 59.5q150 0 236.5 -86.5t86.5 -228.5zM384 108q111 0 182.5 82t71.5 200q0 95 -55.5 148.5t-146.5 53.5q-109 0 -180.5 -84t-71.5 -199q0 -94 57 -147.5t143 -53.5zM486 912
l37 -158h-97l-92 158h152z" />
    <glyph glyph-name="Oacute" unicode="&#xd3;" horiz-adv-x="812" 
d="M774 399q0 -173 -112.5 -293t-294.5 -120q-139 0 -229 90t-90 229q0 106 46 198t140 151.5t217 59.5q150 0 236.5 -86.5t86.5 -228.5zM384 108q111 0 182.5 82t71.5 200q0 95 -55.5 148.5t-146.5 53.5q-109 0 -180.5 -84t-71.5 -199q0 -94 57 -147.5t143 -53.5zM404 754
l95 158h155l-149 -158h-101z" />
    <glyph glyph-name="Ocircumflex" unicode="&#xd4;" horiz-adv-x="812" 
d="M774 399q0 -173 -112.5 -293t-294.5 -120q-139 0 -229 90t-90 229q0 106 46 198t140 151.5t217 59.5q150 0 236.5 -86.5t86.5 -228.5zM384 108q111 0 182.5 82t71.5 200q0 95 -55.5 148.5t-146.5 53.5q-109 0 -180.5 -84t-71.5 -199q0 -94 57 -147.5t143 -53.5zM302 754
l143 157h92l82 -157h-93l-52 60l-73 -60h-99z" />
    <glyph glyph-name="Otilde" unicode="&#xd5;" horiz-adv-x="812" 
d="M774 399q0 -173 -112.5 -293t-294.5 -120q-139 0 -229 90t-90 229q0 106 46 198t140 151.5t217 59.5q150 0 236.5 -86.5t86.5 -228.5zM384 108q111 0 182.5 82t71.5 200q0 95 -55.5 148.5t-146.5 53.5q-109 0 -180.5 -84t-71.5 -199q0 -94 57 -147.5t143 -53.5zM409 820
q-13 0 -20.5 -9t-7.5 -21q0 -6 4 -16l-85 -16q-6 12 -6 34q0 47 30 78t85 31q37 0 63 -16.5t43.5 -33t33.5 -16.5q26 0 26 29q0 8 -3 17l83 17q6 -17 6 -42q0 -44 -30.5 -73t-82.5 -29q-38 0 -63.5 16.5t-42 33t-33.5 16.5z" />
    <glyph glyph-name="Odieresis" unicode="&#xd6;" horiz-adv-x="812" 
d="M774 399q0 -173 -112.5 -293t-294.5 -120q-139 0 -229 90t-90 229q0 106 46 198t140 151.5t217 59.5q150 0 236.5 -86.5t86.5 -228.5zM384 108q111 0 182.5 82t71.5 200q0 95 -55.5 148.5t-146.5 53.5q-109 0 -180.5 -84t-71.5 -199q0 -94 57 -147.5t143 -53.5zM498 780
l25 124h118l-25 -124h-118zM318 780l25 124h118l-25 -124h-118z" />
    <glyph glyph-name="multiply" unicode="&#xd7;" horiz-adv-x="556" 
d="M122 157l-62 77l162 135l-106 131l83 70l105 -131l165 137l62 -77l-164 -137l107 -134l-83 -70l-107 134z" />
    <glyph glyph-name="Oslash" unicode="&#xd8;" horiz-adv-x="812" 
d="M774 399q0 -173 -112.5 -293t-294.5 -120q-74 0 -135 26l-54 -76l-85 60l52 73q-97 91 -97 236q0 106 46 198t140 151.5t217 59.5q75 0 139 -25l55 77l85 -62l-50 -70q94 -86 94 -235zM384 108q111 0 182.5 82t71.5 200q0 77 -40 130l-288 -400q35 -12 74 -12zM184 309
q0 -77 40 -130l288 401q-34 12 -76 12q-109 0 -180.5 -84t-71.5 -199z" />
    <glyph glyph-name="Ugrave" unicode="&#xd9;" horiz-adv-x="700" 
d="M712 700l-85 -435q-28 -145 -109 -212t-225 -67q-100 0 -168.5 60.5t-68.5 165.5q0 37 7 75l81 413h132l-81 -417q-5 -29 -5 -51q0 -59 34 -91.5t92 -32.5q150 0 184 176l80 416h132zM465 912l37 -158h-97l-92 158h152z" />
    <glyph glyph-name="Uacute" unicode="&#xda;" horiz-adv-x="700" 
d="M712 700l-85 -435q-28 -145 -109 -212t-225 -67q-100 0 -168.5 60.5t-68.5 165.5q0 37 7 75l81 413h132l-81 -417q-5 -29 -5 -51q0 -59 34 -91.5t92 -32.5q150 0 184 176l80 416h132zM363 754l95 158h155l-149 -158h-101z" />
    <glyph glyph-name="Ucircumflex" unicode="&#xdb;" horiz-adv-x="700" 
d="M712 700l-85 -435q-28 -145 -109 -212t-225 -67q-100 0 -168.5 60.5t-68.5 165.5q0 37 7 75l81 413h132l-81 -417q-5 -29 -5 -51q0 -59 34 -91.5t92 -32.5q150 0 184 176l80 416h132zM280 754l143 157h92l82 -157h-93l-52 60l-73 -60h-99z" />
    <glyph glyph-name="Udieresis" unicode="&#xdc;" horiz-adv-x="700" 
d="M712 700l-85 -435q-28 -145 -109 -212t-225 -67q-100 0 -168.5 60.5t-68.5 165.5q0 37 7 75l81 413h132l-81 -417q-5 -29 -5 -51q0 -59 34 -91.5t92 -32.5q150 0 184 176l80 416h132zM473 780l25 124h118l-25 -124h-118zM293 780l25 124h118l-25 -124h-118z" />
    <glyph glyph-name="Yacute" unicode="&#xdd;" horiz-adv-x="602" 
d="M362 274l-54 -274h-132l54 274l-148 426h147l76 -251q8 -27 12 -51l32 51l177 251h151zM320 754l95 158h155l-149 -158h-101z" />
    <glyph glyph-name="Thorn" unicode="&#xde;" horiz-adv-x="698" 
d="M259 578h166q112 0 176 -53t64 -153q0 -117 -87 -183.5t-224 -66.5h-184l-24 -122h-132l137 700h132zM236 460l-43 -220h178q72 0 115 32.5t43 90.5q0 97 -120 97h-173z" />
    <glyph glyph-name="germandbls" unicode="&#xdf;" horiz-adv-x="602" 
d="M252 326l21 110h34q53 0 90.5 26.5t37.5 71.5q0 34 -21 52t-59 18q-92 0 -113 -107l-97 -497h-127l77 394h-56l20 102h56q19 106 87 162t170 56q89 0 141 -44.5t52 -113.5q0 -58 -34 -102.5t-89 -64.5q107 -55 107 -175q0 -97 -66 -162.5t-174 -65.5q-84 0 -137 44l68 99
q31 -33 77 -33q45 0 74.5 31.5t29.5 84.5q0 51 -40.5 82.5t-98.5 31.5h-30z" />
    <glyph glyph-name="agrave" unicode="&#xe0;" horiz-adv-x="624" 
d="M599 496l-97 -496h-128l12 61q-55 -75 -152 -75q-93 0 -151 64.5t-58 163.5q0 123 75.5 209.5t203.5 86.5q108 0 154 -75l13 61h128zM282 104q64 0 109 47t45 120q0 57 -34 89t-89 32q-69 0 -113.5 -47.5t-44.5 -117.5q0 -57 36 -90t91 -33zM373 710l37 -158h-97l-92 158
h152z" />
    <glyph glyph-name="aacute" unicode="&#xe1;" horiz-adv-x="624" 
d="M599 496l-97 -496h-128l12 61q-55 -75 -152 -75q-93 0 -151 64.5t-58 163.5q0 123 75.5 209.5t203.5 86.5q108 0 154 -75l13 61h128zM282 104q64 0 109 47t45 120q0 57 -34 89t-89 32q-69 0 -113.5 -47.5t-44.5 -117.5q0 -57 36 -90t91 -33zM284 552l95 158h155
l-149 -158h-101z" />
    <glyph glyph-name="acircumflex" unicode="&#xe2;" horiz-adv-x="624" 
d="M599 496l-97 -496h-128l12 61q-55 -75 -152 -75q-93 0 -151 64.5t-58 163.5q0 123 75.5 209.5t203.5 86.5q108 0 154 -75l13 61h128zM282 104q64 0 109 47t45 120q0 57 -34 89t-89 32q-69 0 -113.5 -47.5t-44.5 -117.5q0 -57 36 -90t91 -33zM185 553l143 157h92l82 -157
h-93l-52 60l-73 -60h-99z" />
    <glyph glyph-name="atilde" unicode="&#xe3;" horiz-adv-x="624" 
d="M599 496l-97 -496h-128l12 61q-55 -75 -152 -75q-93 0 -151 64.5t-58 163.5q0 123 75.5 209.5t203.5 86.5q108 0 154 -75l13 61h128zM282 104q64 0 109 47t45 120q0 57 -34 89t-89 32q-69 0 -113.5 -47.5t-44.5 -117.5q0 -57 36 -90t91 -33zM296 619q-13 0 -20.5 -9
t-7.5 -21q0 -6 4 -16l-85 -16q-6 12 -6 34q0 47 30 78t85 31q37 0 63 -16.5t43.5 -33t33.5 -16.5q26 0 26 29q0 8 -3 17l83 17q6 -16 6 -42q0 -44 -30.5 -73t-82.5 -29q-38 0 -63.5 16.5t-42 33t-33.5 16.5z" />
    <glyph glyph-name="adieresis" unicode="&#xe4;" horiz-adv-x="624" 
d="M599 496l-97 -496h-128l12 61q-55 -75 -152 -75q-93 0 -151 64.5t-58 163.5q0 123 75.5 209.5t203.5 86.5q108 0 154 -75l13 61h128zM282 104q64 0 109 47t45 120q0 57 -34 89t-89 32q-69 0 -113.5 -47.5t-44.5 -117.5q0 -57 36 -90t91 -33zM384 579l25 124h118l-25 -124
h-118zM204 579l25 124h118l-25 -124h-118z" />
    <glyph glyph-name="aring" unicode="&#xe5;" horiz-adv-x="624" 
d="M599 496l-97 -496h-128l12 61q-55 -75 -152 -75q-93 0 -151 64.5t-58 163.5q0 123 75.5 209.5t203.5 86.5q108 0 154 -75l13 61h128zM282 104q64 0 109 47t45 120q0 57 -34 89t-89 32q-69 0 -113.5 -47.5t-44.5 -117.5q0 -57 36 -90t91 -33zM252 635q0 40 28 67.5
t68 27.5t68 -27.5t28 -67.5t-28 -67.5t-68 -27.5t-68 27.5t-28 67.5zM315 635q0 -16 9 -25t24 -9t24 9t9 25t-9 25t-24 9t-24 -9t-9 -25z" />
    <glyph glyph-name="ae" unicode="&#xe6;" horiz-adv-x="979" 
d="M597 496l-9 -46q58 60 150 60q90 0 147.5 -57.5t57.5 -138.5q0 -36 -6 -68l-5 -28h-385q0 -58 32.5 -91t85.5 -33q98 0 148 89l91 -58q-43 -71 -101 -105t-143 -34q-98 0 -147 65l-11 -51h-128l12 61q-55 -75 -152 -75q-93 0 -151 64.5t-58 163.5q0 123 75.5 209.5
t203.5 86.5q104 0 154 -72l13 58h126zM282 104q64 0 109 47t45 120q0 57 -34 89t-89 32q-69 0 -113.5 -47.5t-44.5 -117.5q0 -57 36 -90t91 -33zM715 414q-50 0 -89.5 -29t-56.5 -75h262q0 48 -31.5 76t-84.5 28z" />
    <glyph glyph-name="ccedilla" unicode="&#xe7;" horiz-adv-x="560" 
d="M201 -112l-34 33l38 72q-79 18 -127.5 78.5t-48.5 149.5q0 76 32 140t102.5 106.5t167.5 42.5q76 0 129 -36t79 -99l-109 -64q-32 81 -118 81q-66 0 -109.5 -49t-43.5 -113q0 -59 33 -92.5t86 -33.5q85 0 140 89l97 -67q-46 -75 -106 -107.5t-143 -32.5l-29 -38
q16 8 38 8q30 0 48.5 -18t18.5 -48q0 -44 -29 -69t-76 -25q-75 0 -90 61l70 17q3 -22 25 -22q12 0 20 8t8 22q0 24 -26 24q-22 0 -43 -18z" />
    <glyph glyph-name="egrave" unicode="&#xe8;" horiz-adv-x="575" 
d="M528 218h-385q0 -58 32.5 -91t85.5 -33q98 0 148 89l91 -58q-43 -71 -101.5 -105t-144.5 -34q-102 0 -165.5 64t-63.5 172q0 119 82.5 203.5t208.5 84.5q105 0 164 -54.5t59 -141.5q0 -36 -6 -68zM311 414q-49 0 -89 -29t-57 -75h262q0 48 -31.5 76t-84.5 28zM349 708
l37 -158h-97l-92 158h152z" />
    <glyph glyph-name="eacute" unicode="&#xe9;" horiz-adv-x="575" 
d="M528 218h-385q0 -58 32.5 -91t85.5 -33q98 0 148 89l91 -58q-43 -71 -101.5 -105t-144.5 -34q-102 0 -165.5 64t-63.5 172q0 119 82.5 203.5t208.5 84.5q105 0 164 -54.5t59 -141.5q0 -36 -6 -68zM311 414q-49 0 -89 -29t-57 -75h262q0 48 -31.5 76t-84.5 28zM254 550
l95 158h155l-149 -158h-101z" />
    <glyph glyph-name="ecircumflex" unicode="&#xea;" horiz-adv-x="575" 
d="M528 218h-385q0 -58 32.5 -91t85.5 -33q98 0 148 89l91 -58q-43 -71 -101.5 -105t-144.5 -34q-102 0 -165.5 64t-63.5 172q0 119 82.5 203.5t208.5 84.5q105 0 164 -54.5t59 -141.5q0 -36 -6 -68zM311 414q-49 0 -89 -29t-57 -75h262q0 48 -31.5 76t-84.5 28zM165 550
l143 157h92l82 -157h-93l-52 60l-73 -60h-99z" />
    <glyph glyph-name="edieresis" unicode="&#xeb;" horiz-adv-x="575" 
d="M528 218h-385q0 -58 32.5 -91t85.5 -33q98 0 148 89l91 -58q-43 -71 -101.5 -105t-144.5 -34q-102 0 -165.5 64t-63.5 172q0 119 82.5 203.5t208.5 84.5q105 0 164 -54.5t59 -141.5q0 -36 -6 -68zM311 414q-49 0 -89 -29t-57 -75h262q0 48 -31.5 76t-84.5 28zM357 576
l25 124h118l-25 -124h-118zM177 576l25 124h118l-25 -124h-118z" />
    <glyph glyph-name="igrave" unicode="&#xec;" horiz-adv-x="250" 
d="M3 0l96 496h128l-97 -496h-127zM190 708l37 -158h-97l-92 158h152z" />
    <glyph glyph-name="iacute" unicode="&#xed;" horiz-adv-x="250" 
d="M3 0l96 496h128l-97 -496h-127zM116 550l95 158h155l-149 -158h-101z" />
    <glyph glyph-name="icircumflex" unicode="&#xee;" horiz-adv-x="250" 
d="M3 0l96 496h128l-97 -496h-127zM8 550l143 157h92l82 -157h-93l-52 60l-73 -60h-99z" />
    <glyph glyph-name="idieresis" unicode="&#xef;" horiz-adv-x="250" 
d="M3 0l96 496h128l-97 -496h-127zM208 576l25 124h118l-25 -124h-118zM28 576l25 124h118l-25 -124h-118z" />
    <glyph glyph-name="eth" unicode="&#xf0;" horiz-adv-x="590" 
d="M280 499l-25 78l69 25q-44 33 -102 58l62 90q94 -45 157 -106l118 43l27 -78l-89 -32q67 -103 67 -239q0 -157 -80 -254.5t-230 -97.5q-97 0 -160 59t-63 152q0 110 79.5 187.5t203.5 77.5q90 0 134 -53q-13 71 -58 129zM306 356q-65 0 -107 -44.5t-42 -108.5
q0 -53 34 -82t82 -29q66 0 108.5 44t42.5 110q0 50 -33.5 80t-84.5 30z" />
    <glyph glyph-name="ntilde" unicode="&#xf1;" 
d="M537 325l-63 -325h-128l56 288q5 25 5 37q0 30 -22.5 48.5t-61.5 18.5q-51 0 -90.5 -39t-51.5 -101l-49 -252h-128l96 496h128l-12 -67q62 81 165 81q77 0 118.5 -39t41.5 -101q0 -15 -4 -45zM291 616q-13 0 -20.5 -9t-7.5 -21q0 -6 4 -16l-85 -16q-6 12 -6 34
q0 47 30 78t85 31q37 0 63 -16.5t43.5 -33t33.5 -16.5q26 0 26 29q0 8 -3 17l83 17q6 -16 6 -42q0 -44 -30.5 -73t-82.5 -29q-38 0 -63.5 16.5t-42 33t-33.5 16.5z" />
    <glyph glyph-name="ograve" unicode="&#xf2;" horiz-adv-x="612" 
d="M574 280q0 -128 -85.5 -211t-219.5 -83q-100 0 -171 63t-71 162q0 128 84 213.5t219 85.5q106 0 175 -60.5t69 -169.5zM285 104q66 0 111.5 47t45.5 118q0 57 -35 90t-93 33q-68 0 -112.5 -49.5t-44.5 -114.5q0 -59 36.5 -91.5t91.5 -32.5zM361 708l37 -158h-97l-92 158
h152z" />
    <glyph glyph-name="oacute" unicode="&#xf3;" horiz-adv-x="612" 
d="M574 280q0 -128 -85.5 -211t-219.5 -83q-100 0 -171 63t-71 162q0 128 84 213.5t219 85.5q106 0 175 -60.5t69 -169.5zM285 104q66 0 111.5 47t45.5 118q0 57 -35 90t-93 33q-68 0 -112.5 -49.5t-44.5 -114.5q0 -59 36.5 -91.5t91.5 -32.5zM283 550l95 158h155l-149 -158
h-101z" />
    <glyph glyph-name="ocircumflex" unicode="&#xf4;" horiz-adv-x="612" 
d="M574 280q0 -128 -85.5 -211t-219.5 -83q-100 0 -171 63t-71 162q0 128 84 213.5t219 85.5q106 0 175 -60.5t69 -169.5zM285 104q66 0 111.5 47t45.5 118q0 57 -35 90t-93 33q-68 0 -112.5 -49.5t-44.5 -114.5q0 -59 36.5 -91.5t91.5 -32.5zM183 550l143 157h92l82 -157
h-93l-52 60l-73 -60h-99z" />
    <glyph glyph-name="otilde" unicode="&#xf5;" horiz-adv-x="612" 
d="M574 280q0 -128 -85.5 -211t-219.5 -83q-100 0 -171 63t-71 162q0 128 84 213.5t219 85.5q106 0 175 -60.5t69 -169.5zM285 104q66 0 111.5 47t45.5 118q0 57 -35 90t-93 33q-68 0 -112.5 -49.5t-44.5 -114.5q0 -59 36.5 -91.5t91.5 -32.5zM283 616q-13 0 -20.5 -9
t-7.5 -21q0 -6 4 -16l-85 -16q-6 12 -6 34q0 47 30 78t85 31q37 0 63 -16.5t43.5 -33t33.5 -16.5q26 0 26 29q0 8 -3 17l83 17q6 -16 6 -42q0 -44 -30.5 -73t-82.5 -29q-38 0 -63.5 16.5t-42 33t-33.5 16.5z" />
    <glyph glyph-name="odieresis" unicode="&#xf6;" horiz-adv-x="612" 
d="M574 280q0 -128 -85.5 -211t-219.5 -83q-100 0 -171 63t-71 162q0 128 84 213.5t219 85.5q106 0 175 -60.5t69 -169.5zM285 104q66 0 111.5 47t45.5 118q0 57 -35 90t-93 33q-68 0 -112.5 -49.5t-44.5 -114.5q0 -59 36.5 -91.5t91.5 -32.5zM376 576l25 124h118l-25 -124
h-118zM196 576l25 124h118l-25 -124h-118z" />
    <glyph glyph-name="divide" unicode="&#xf7;" horiz-adv-x="575" 
d="M225 350l27 134h134l-27 -134h-134zM158 0l26 134h134l-27 -134h-133zM22 191l19 102h484l-19 -102h-484z" />
    <glyph glyph-name="oslash" unicode="&#xf8;" horiz-adv-x="612" 
d="M574 280q0 -128 -85.5 -211t-219.5 -83q-51 0 -100 19l-38 -49l-74 55l34 44q-64 62 -64 156q0 128 84 213.5t219 85.5q56 0 102 -18l38 49l73 -56l-32 -41q63 -63 63 -164zM157 228q0 -39 17 -67l177 227q-24 4 -37 4q-68 0 -112.5 -49.5t-44.5 -114.5zM285 104
q66 0 111.5 47t45.5 118q0 37 -16 66l-177 -227q16 -4 36 -4z" />
    <glyph glyph-name="ugrave" unicode="&#xf9;" 
d="M40 188l60 308h128l-55 -282q-5 -25 -5 -42q0 -34 24 -51t64 -17q49 0 87 39t51 106l48 247h128l-96 -496h-128l12 67q-24 -37 -65.5 -59t-90.5 -22q-79 0 -123.5 43.5t-44.5 106.5q0 17 6 52zM374 708l37 -158h-97l-92 158h152z" />
    <glyph glyph-name="uacute" unicode="&#xfa;" 
d="M40 188l60 308h128l-55 -282q-5 -25 -5 -42q0 -34 24 -51t64 -17q49 0 87 39t51 106l48 247h128l-96 -496h-128l12 67q-24 -37 -65.5 -59t-90.5 -22q-79 0 -123.5 43.5t-44.5 106.5q0 17 6 52zM272 550l95 158h155l-149 -158h-101z" />
    <glyph glyph-name="ucircumflex" unicode="&#xfb;" 
d="M40 188l60 308h128l-55 -282q-5 -25 -5 -42q0 -34 24 -51t64 -17q49 0 87 39t51 106l48 247h128l-96 -496h-128l12 67q-24 -37 -65.5 -59t-90.5 -22q-79 0 -123.5 43.5t-44.5 106.5q0 17 6 52zM185 550l143 157h92l82 -157h-93l-52 60l-73 -60h-99z" />
    <glyph glyph-name="udieresis" unicode="&#xfc;" 
d="M40 188l60 308h128l-55 -282q-5 -25 -5 -42q0 -34 24 -51t64 -17q49 0 87 39t51 106l48 247h128l-96 -496h-128l12 67q-24 -37 -65.5 -59t-90.5 -22q-79 0 -123.5 43.5t-44.5 106.5q0 17 6 52zM377 576l25 124h118l-25 -124h-118zM197 576l25 124h118l-25 -124h-118z" />
    <glyph glyph-name="yacute" unicode="&#xfd;" horiz-adv-x="546" 
d="M-26 -200l42 117q21 -12 43 -12q42 0 67 47l25 48l-107 496h136l67 -328l188 328h142l-352 -588q-41 -68 -80 -93.5t-102 -25.5q-42 0 -69 11zM242 550l95 158h155l-149 -158h-101z" />
    <glyph glyph-name="thorn" unicode="&#xfe;" horiz-adv-x="624" 
d="M-35 -204l175 904h128l-52 -265q24 32 66 53.5t94 21.5q88 0 147.5 -59t59.5 -164q0 -125 -79.5 -213t-201.5 -88q-52 0 -95 21.5t-63 53.5l-52 -265h-127zM327 392q-70 0 -116 -48.5t-46 -119.5q0 -56 37 -88t91 -32q65 0 111.5 47.5t46.5 118.5q0 56 -34.5 89t-89.5 33
z" />
    <glyph glyph-name="ydieresis" unicode="&#xff;" horiz-adv-x="546" 
d="M-26 -200l42 117q21 -12 43 -12q42 0 67 47l25 48l-107 496h136l67 -328l188 328h142l-352 -588q-41 -68 -80 -93.5t-102 -25.5q-42 0 -69 11zM354 576l25 124h118l-25 -124h-118zM174 576l25 124h118l-25 -124h-118z" />
    <glyph glyph-name="Amacron" unicode="&#x100;" horiz-adv-x="704" 
d="M-54 0l416 700h132l146 -700h-139l-35 183h-265l-105 -183h-150zM364 469l-97 -168h178l-29 168q-7 34 -12 76zM323 792l19 94h248l-19 -94h-248z" />
    <glyph glyph-name="amacron" unicode="&#x101;" horiz-adv-x="624" 
d="M599 496l-97 -496h-128l12 61q-55 -75 -152 -75q-93 0 -151 64.5t-58 163.5q0 123 75.5 209.5t203.5 86.5q108 0 154 -75l13 61h128zM282 104q64 0 109 47t45 120q0 57 -34 89t-89 32q-69 0 -113.5 -47.5t-44.5 -117.5q0 -57 36 -90t91 -33zM221 588l19 94h248l-19 -94
h-248z" />
    <glyph glyph-name="Abreve" unicode="&#x102;" horiz-adv-x="704" 
d="M-54 0l416 700h132l146 -700h-139l-35 183h-265l-105 -183h-150zM364 469l-97 -168h178l-29 168q-7 34 -12 76zM494 881h76q-16 -113 -131 -113q-44 0 -71.5 26t-27.5 66q0 9 2 21h77q-1 -3 -1 -10q0 -33 30 -33q34 0 46 43z" />
    <glyph glyph-name="abreve" unicode="&#x103;" horiz-adv-x="624" 
d="M599 496l-97 -496h-128l12 61q-55 -75 -152 -75q-93 0 -151 64.5t-58 163.5q0 123 75.5 209.5t203.5 86.5q108 0 154 -75l13 61h128zM282 104q64 0 109 47t45 120q0 57 -34 89t-89 32q-69 0 -113.5 -47.5t-44.5 -117.5q0 -57 36 -90t91 -33zM401 677h76
q-16 -113 -131 -113q-44 0 -71.5 26t-27.5 66q0 9 2 21h77q-1 -3 -1 -10q0 -33 30 -33q34 0 46 43z" />
    <glyph glyph-name="Aogonek" unicode="&#x104;" horiz-adv-x="704" 
d="M445 -114q0 71 77 114h-21l-35 183h-265l-105 -183h-150l416 700h132l146 -700q-32 -14 -59.5 -36t-27.5 -47q0 -33 33 -33q9 0 22 2l-4 -77q-26 -7 -56 -7q-45 0 -74 22.5t-29 61.5zM364 469l-97 -168h178l-29 168q-7 34 -12 76z" />
    <glyph glyph-name="aogonek" unicode="&#x105;" horiz-adv-x="624" 
d="M307 -114q0 71 77 114h-10l12 61q-55 -75 -152 -75q-93 0 -151 64.5t-58 163.5q0 123 75.5 209.5t203.5 86.5q108 0 154 -75l13 61h128l-97 -496q-32 -14 -59.5 -36t-27.5 -47q0 -33 33 -33q9 0 22 2l-4 -77q-26 -7 -56 -7q-45 0 -74 22.5t-29 61.5zM282 104q64 0 109 47
t45 120q0 57 -34 89t-89 32q-69 0 -113.5 -47.5t-44.5 -117.5q0 -57 36 -90t91 -33z" />
    <glyph glyph-name="Cacute" unicode="&#x106;" horiz-adv-x="768" 
d="M584 249l109 -76q-66 -97 -146.5 -142t-189.5 -45q-135 0 -221.5 86t-86.5 228q0 170 114 292t299 122q210 0 286 -185l-116 -72q-26 66 -75 100.5t-114 34.5q-112 0 -185 -85t-73 -196q0 -90 51.5 -146.5t134.5 -56.5q67 0 122 39t91 102zM411 754l95 158h155l-149 -158
h-101z" />
    <glyph glyph-name="cacute" unicode="&#x107;" horiz-adv-x="560" 
d="M418 193l97 -67q-46 -75 -106 -107.5t-143 -32.5q-101 0 -169 64.5t-68 170.5q0 76 32 140t102.5 106.5t167.5 42.5q76 0 129 -36t79 -99l-109 -64q-32 81 -118 81q-66 0 -109.5 -49t-43.5 -113q0 -59 33 -92.5t86 -33.5q85 0 140 89zM266 550l95 158h155l-149 -158h-101
z" />
    <glyph glyph-name="Ccircumflex" unicode="&#x108;" horiz-adv-x="768" 
d="M584 249l109 -76q-66 -97 -146.5 -142t-189.5 -45q-135 0 -221.5 86t-86.5 228q0 170 114 292t299 122q210 0 286 -185l-116 -72q-26 66 -75 100.5t-114 34.5q-112 0 -185 -85t-73 -196q0 -90 51.5 -146.5t134.5 -56.5q67 0 122 39t91 102zM311 754l143 157h92l82 -157
h-93l-52 60l-73 -60h-99z" />
    <glyph glyph-name="ccircumflex" unicode="&#x109;" horiz-adv-x="560" 
d="M418 193l97 -67q-46 -75 -106 -107.5t-143 -32.5q-101 0 -169 64.5t-68 170.5q0 76 32 140t102.5 106.5t167.5 42.5q76 0 129 -36t79 -99l-109 -64q-32 81 -118 81q-66 0 -109.5 -49t-43.5 -113q0 -59 33 -92.5t86 -33.5q85 0 140 89zM167 550l143 157h92l82 -157h-93
l-52 60l-73 -60h-99z" />
    <glyph glyph-name="Cdotaccent" unicode="&#x10a;" horiz-adv-x="768" 
d="M584 249l109 -76q-66 -97 -146.5 -142t-189.5 -45q-135 0 -221.5 86t-86.5 228q0 170 114 292t299 122q210 0 286 -185l-116 -72q-26 66 -75 100.5t-114 34.5q-112 0 -185 -85t-73 -196q0 -90 51.5 -146.5t134.5 -56.5q67 0 122 39t91 102zM404 772l26 132h140l-26 -132
h-140z" />
    <glyph glyph-name="cdotaccent" unicode="&#x10b;" horiz-adv-x="560" 
d="M418 193l97 -67q-46 -75 -106 -107.5t-143 -32.5q-101 0 -169 64.5t-68 170.5q0 76 32 140t102.5 106.5t167.5 42.5q76 0 129 -36t79 -99l-109 -64q-32 81 -118 81q-66 0 -109.5 -49t-43.5 -113q0 -59 33 -92.5t86 -33.5q85 0 140 89zM268 568l26 132h140l-26 -132h-140z
" />
    <glyph glyph-name="Ccaron" unicode="&#x10c;" horiz-adv-x="768" 
d="M584 249l109 -76q-66 -97 -146.5 -142t-189.5 -45q-135 0 -221.5 86t-86.5 228q0 170 114 292t299 122q210 0 286 -185l-116 -72q-26 66 -75 100.5t-114 34.5q-112 0 -185 -85t-73 -196q0 -90 51.5 -146.5t134.5 -56.5q67 0 122 39t91 102zM662 911l-143 -157h-92
l-82 157h93l52 -60l73 60h99z" />
    <glyph glyph-name="ccaron" unicode="&#x10d;" horiz-adv-x="560" 
d="M418 193l97 -67q-46 -75 -106 -107.5t-143 -32.5q-101 0 -169 64.5t-68 170.5q0 76 32 140t102.5 106.5t167.5 42.5q76 0 129 -36t79 -99l-109 -64q-32 81 -118 81q-66 0 -109.5 -49t-43.5 -113q0 -59 33 -92.5t86 -33.5q85 0 140 89zM521 707l-143 -157h-92l-82 157h93
l52 -60l73 60h99z" />
    <glyph glyph-name="Dcaron" unicode="&#x10e;" horiz-adv-x="721" 
d="M14 0l137 700h211q150 0 235.5 -75.5t85.5 -218.5q0 -180 -117.5 -293t-329.5 -113h-222zM170 122h91q132 0 209 76t77 195q0 91 -53 138t-147 47h-88zM535 911l-143 -157h-92l-82 157h93l52 -60l73 60h99z" />
    <glyph glyph-name="dcaron" unicode="&#x10f;" horiz-adv-x="736" 
d="M687 594l20 106h106l-20 -108l-95 -108l-24 20l58 90h-45zM645 700l-136 -700h-128l10 58q-53 -72 -147 -72q-95 0 -157 65t-62 165q0 122 77.5 208t205.5 86q54 0 95.5 -21t61.5 -54l52 265h128zM284 104q65 0 111.5 47.5t46.5 119.5q0 57 -35 89t-93 32
q-70 0 -114.5 -47t-44.5 -114q0 -60 36.5 -93.5t92.5 -33.5z" />
    <glyph glyph-name="Dcroat" unicode="&#x110;" horiz-adv-x="759" 
d="M52 0l57 295h-77l21 110h78l58 295h211q150 0 235.5 -75.5t85.5 -218.5q0 -180 -117.5 -293t-329.5 -113h-222zM208 122h91q132 0 209 76t77 195q0 91 -53 138t-147 47h-88l-34 -173h155l-21 -110h-155z" />
    <glyph glyph-name="dcroat" unicode="&#x111;" horiz-adv-x="636" 
d="M645 700l-10 -52h61l-19 -96h-61l-107 -552h-128l10 58q-53 -72 -147 -72q-95 0 -157 65t-62 165q0 122 77.5 208t205.5 86q54 0 95.5 -21t61.5 -54l23 117h-159l19 96h159l10 52h128zM284 104q65 0 111.5 47.5t46.5 119.5q0 57 -35 89t-93 32q-70 0 -114.5 -47
t-44.5 -114q0 -60 36.5 -93.5t92.5 -33.5z" />
    <glyph glyph-name="Emacron" unicode="&#x112;" horiz-adv-x="615" 
d="M14 0l137 700h479l-23 -118h-347l-32 -161h319l-23 -118h-319l-36 -185h350l-23 -118h-482zM284 792l19 94h248l-19 -94h-248z" />
    <glyph glyph-name="emacron" unicode="&#x113;" horiz-adv-x="575" 
d="M528 218h-385q0 -58 32.5 -91t85.5 -33q98 0 148 89l91 -58q-43 -71 -101.5 -105t-144.5 -34q-102 0 -165.5 64t-63.5 172q0 119 82.5 203.5t208.5 84.5q105 0 164 -54.5t59 -141.5q0 -36 -6 -68zM311 414q-49 0 -89 -29t-57 -75h262q0 48 -31.5 76t-84.5 28zM207 588
l19 94h248l-19 -94h-248z" />
    <glyph glyph-name="Ebreve" unicode="&#x114;" horiz-adv-x="615" 
d="M14 0l137 700h479l-23 -118h-347l-32 -161h319l-23 -118h-319l-36 -185h350l-23 -118h-482zM462 881h76q-16 -113 -131 -113q-44 0 -71.5 26t-27.5 66q0 9 2 21h77q-1 -3 -1 -10q0 -33 30 -33q34 0 46 43z" />
    <glyph glyph-name="ebreve" unicode="&#x115;" horiz-adv-x="575" 
d="M528 218h-385q0 -58 32.5 -91t85.5 -33q98 0 148 89l91 -58q-43 -71 -101.5 -105t-144.5 -34q-102 0 -165.5 64t-63.5 172q0 119 82.5 203.5t208.5 84.5q105 0 164 -54.5t59 -141.5q0 -36 -6 -68zM311 414q-49 0 -89 -29t-57 -75h262q0 48 -31.5 76t-84.5 28zM384 677h76
q-16 -113 -131 -113q-44 0 -71.5 26t-27.5 66q0 9 2 21h77q-1 -3 -1 -10q0 -33 30 -33q34 0 46 43z" />
    <glyph glyph-name="Edotaccent" unicode="&#x116;" horiz-adv-x="615" 
d="M14 0l137 700h479l-23 -118h-347l-32 -161h319l-23 -118h-319l-36 -185h350l-23 -118h-482zM333 772l26 132h140l-26 -132h-140z" />
    <glyph glyph-name="edotaccent" unicode="&#x117;" horiz-adv-x="575" 
d="M528 218h-385q0 -58 32.5 -91t85.5 -33q98 0 148 89l91 -58q-43 -71 -101.5 -105t-144.5 -34q-102 0 -165.5 64t-63.5 172q0 119 82.5 203.5t208.5 84.5q105 0 164 -54.5t59 -141.5q0 -36 -6 -68zM311 414q-49 0 -89 -29t-57 -75h262q0 48 -31.5 76t-84.5 28zM256 568
l26 132h140l-26 -132h-140z" />
    <glyph glyph-name="Eogonek" unicode="&#x118;" horiz-adv-x="615" 
d="M14 0l137 700h479l-23 -118h-347l-32 -161h319l-23 -118h-319l-36 -185h350l-23 -118q-32 -14 -59.5 -36t-27.5 -47q0 -33 33 -33q9 0 22 2l-4 -77q-26 -7 -56 -7q-45 0 -74 22.5t-29 61.5q0 71 77 114h-364z" />
    <glyph glyph-name="eogonek" unicode="&#x119;" horiz-adv-x="575" 
d="M157 -114q0 62 59 103q-86 11 -138.5 73t-52.5 160q0 119 82.5 203.5t208.5 84.5q105 0 164 -54.5t59 -141.5q0 -36 -6 -68l-5 -28h-385q0 -58 32.5 -91t85.5 -33q98 0 148 89l91 -58q-58 -96 -148 -125q-32 -10 -59.5 -34t-27.5 -49q0 -33 33 -33q9 0 22 2l-4 -77
q-26 -7 -56 -7q-45 0 -74 22.5t-29 61.5zM311 414q-49 0 -89 -29t-57 -75h262q0 48 -31.5 76t-84.5 28z" />
    <glyph glyph-name="Ecaron" unicode="&#x11a;" horiz-adv-x="615" 
d="M14 0l137 700h479l-23 -118h-347l-32 -161h319l-23 -118h-319l-36 -185h350l-23 -118h-482zM583 911l-143 -157h-92l-82 157h93l52 -60l73 60h99z" />
    <glyph glyph-name="ecaron" unicode="&#x11b;" horiz-adv-x="575" 
d="M528 218h-385q0 -58 32.5 -91t85.5 -33q98 0 148 89l91 -58q-43 -71 -101.5 -105t-144.5 -34q-102 0 -165.5 64t-63.5 172q0 119 82.5 203.5t208.5 84.5q105 0 164 -54.5t59 -141.5q0 -36 -6 -68zM311 414q-49 0 -89 -29t-57 -75h262q0 48 -31.5 76t-84.5 28zM514 707
l-143 -157h-92l-82 157h93l52 -60l73 60h99z" />
    <glyph glyph-name="Gcircumflex" unicode="&#x11c;" horiz-adv-x="780" 
d="M573 0l-11 91q-86 -105 -226 -105q-123 0 -205 84.5t-82 220.5q0 115 49 210t146 154t224 59q106 0 178 -47.5t103 -126.5l-111 -71q-21 60 -68.5 94.5t-117.5 34.5q-114 0 -190.5 -84t-76.5 -211q0 -87 50 -141t128 -54q82 0 139 45.5t82 112.5h-227l21 108h356
l-73 -374h-88zM312 754l143 157h92l82 -157h-93l-52 60l-73 -60h-99z" />
    <glyph glyph-name="gcircumflex" unicode="&#x11d;" horiz-adv-x="597" 
d="M16 5l115 -37q-9 -18 -9 -35q0 -22 25 -36.5t69 -14.5q119 0 145 136l11 59q-48 -69 -140 -69q-86 0 -147.5 58t-61.5 160q0 118 74.5 201t200.5 83q50 0 88.5 -19t56.5 -49l11 54h128l-92 -473q-24 -126 -94 -183.5t-190 -57.5q-99 0 -156.5 42.5t-57.5 103.5
q0 43 24 77zM300 400q-64 0 -105.5 -49.5t-41.5 -113.5q0 -57 32 -88t81 -31q65 0 106.5 51t41.5 120q0 49 -32.5 80t-81.5 31zM165 550l143 157h92l82 -157h-93l-52 60l-73 -60h-99z" />
    <glyph glyph-name="Gbreve" unicode="&#x11e;" horiz-adv-x="780" 
d="M573 0l-11 91q-86 -105 -226 -105q-123 0 -205 84.5t-82 220.5q0 115 49 210t146 154t224 59q106 0 178 -47.5t103 -126.5l-111 -71q-21 60 -68.5 94.5t-117.5 34.5q-114 0 -190.5 -84t-76.5 -211q0 -87 50 -141t128 -54q82 0 139 45.5t82 112.5h-227l21 108h356
l-73 -374h-88zM529 881h76q-16 -113 -131 -113q-44 0 -71.5 26t-27.5 66q0 9 2 21h77q-1 -3 -1 -10q0 -33 30 -33q34 0 46 43z" />
    <glyph glyph-name="gbreve" unicode="&#x11f;" horiz-adv-x="597" 
d="M16 5l115 -37q-9 -18 -9 -35q0 -22 25 -36.5t69 -14.5q119 0 145 136l11 59q-48 -69 -140 -69q-86 0 -147.5 58t-61.5 160q0 118 74.5 201t200.5 83q50 0 88.5 -19t56.5 -49l11 54h128l-92 -473q-24 -126 -94 -183.5t-190 -57.5q-99 0 -156.5 42.5t-57.5 103.5
q0 43 24 77zM300 400q-64 0 -105.5 -49.5t-41.5 -113.5q0 -57 32 -88t81 -31q65 0 106.5 51t41.5 120q0 49 -32.5 80t-81.5 31zM382 677h76q-16 -113 -131 -113q-44 0 -71.5 26t-27.5 66q0 9 2 21h77q-1 -3 -1 -10q0 -33 30 -33q34 0 46 43z" />
    <glyph glyph-name="Gdotaccent" unicode="&#x120;" horiz-adv-x="780" 
d="M573 0l-11 91q-86 -105 -226 -105q-123 0 -205 84.5t-82 220.5q0 115 49 210t146 154t224 59q106 0 178 -47.5t103 -126.5l-111 -71q-21 60 -68.5 94.5t-117.5 34.5q-114 0 -190.5 -84t-76.5 -211q0 -87 50 -141t128 -54q82 0 139 45.5t82 112.5h-227l21 108h356
l-73 -374h-88zM401 772l26 132h140l-26 -132h-140z" />
    <glyph glyph-name="gdotaccent" unicode="&#x121;" horiz-adv-x="597" 
d="M16 5l115 -37q-9 -18 -9 -35q0 -22 25 -36.5t69 -14.5q119 0 145 136l11 59q-48 -69 -140 -69q-86 0 -147.5 58t-61.5 160q0 118 74.5 201t200.5 83q50 0 88.5 -19t56.5 -49l11 54h128l-92 -473q-24 -126 -94 -183.5t-190 -57.5q-99 0 -156.5 42.5t-57.5 103.5
q0 43 24 77zM300 400q-64 0 -105.5 -49.5t-41.5 -113.5q0 -57 32 -88t81 -31q65 0 106.5 51t41.5 120q0 49 -32.5 80t-81.5 31zM263 568l26 132h140l-26 -132h-140z" />
    <glyph glyph-name="uni0122" unicode="&#x122;" horiz-adv-x="780" 
d="M250 -182l24 122h126l-24 -122l-117 -135l-24 16l59 119h-44zM573 0l-11 91q-86 -105 -226 -105q-123 0 -205 84.5t-82 220.5q0 115 49 210t146 154t224 59q106 0 178 -47.5t103 -126.5l-111 -71q-21 60 -68.5 94.5t-117.5 34.5q-114 0 -190.5 -84t-76.5 -211
q0 -87 50 -141t128 -54q82 0 139 45.5t82 112.5h-227l21 108h356l-73 -374h-88z" />
    <glyph glyph-name="uni0123" unicode="&#x123;" horiz-adv-x="597" 
d="M416 686l-24 -123h-126l24 123l138 136l21 -21l-83 -115h50zM16 5l115 -37q-9 -18 -9 -35q0 -22 25 -36.5t69 -14.5q119 0 145 136l11 59q-48 -69 -140 -69q-86 0 -147.5 58t-61.5 160q0 118 74.5 201t200.5 83q50 0 88.5 -19t56.5 -49l11 54h128l-92 -473
q-24 -126 -94 -183.5t-190 -57.5q-99 0 -156.5 42.5t-57.5 103.5q0 43 24 77zM300 400q-64 0 -105.5 -49.5t-41.5 -113.5q0 -57 32 -88t81 -31q65 0 106.5 51t41.5 120q0 49 -32.5 80t-81.5 31z" />
    <glyph glyph-name="Hcircumflex" unicode="&#x124;" horiz-adv-x="716" 
d="M16 0l137 700h132l-55 -282h302l55 282h132l-137 -700h-132l58 296h-302l-58 -296h-132zM285 754l143 157h92l82 -157h-93l-52 60l-73 -60h-99z" />
    <glyph glyph-name="hcircumflex" unicode="&#x125;" horiz-adv-x="600" 
d="M544 328l-65 -328h-128l56 283q2 12 2 24q0 39 -21 62t-61 23q-55 0 -94.5 -37t-53.5 -108l-48 -247h-127l136 700h128l-53 -275q26 38 72.5 61.5t99.5 23.5q74 0 117.5 -38t43.5 -103q0 -18 -4 -41zM146 764l143 157h92l82 -157h-93l-52 60l-73 -60h-99z" />
    <glyph glyph-name="Hbar" unicode="&#x126;" horiz-adv-x="762" 
d="M48 484l18 94h86l24 122h132l-24 -122h302l24 122h132l-24 -122h86l-18 -94h-86l-95 -484h-132l58 296h-302l-58 -296h-132l95 484h-86zM253 418h302l13 66h-302z" />
    <glyph glyph-name="hbar" unicode="&#x127;" horiz-adv-x="600" 
d="M50 552l18 96h62l10 52h128l-10 -52h158l-18 -96h-159l-24 -127q58 85 172 85q74 0 117.5 -38t43.5 -103q0 -18 -4 -41l-65 -328h-128l56 283q2 12 2 24q0 39 -21 62t-61 23q-55 0 -94.5 -37t-53.5 -108l-48 -247h-127l107 552h-61z" />
    <glyph glyph-name="Itilde" unicode="&#x128;" horiz-adv-x="278" 
d="M14 0l137 700h132l-137 -700h-132zM172 820q-13 0 -20.5 -9t-7.5 -21q0 -6 4 -16l-85 -16q-6 12 -6 34q0 47 30 78t85 31q37 0 63 -16.5t43.5 -33t33.5 -16.5q26 0 26 29q0 8 -3 17l83 17q6 -17 6 -42q0 -44 -30.5 -73t-82.5 -29q-38 0 -63.5 16.5t-42 33t-33.5 16.5z
" />
    <glyph glyph-name="itilde" unicode="&#x129;" horiz-adv-x="250" 
d="M3 0l96 496h128l-97 -496h-127zM116 616q-13 0 -20.5 -9t-7.5 -21q0 -6 4 -16l-85 -16q-6 12 -6 34q0 47 30 78t85 31q37 0 63 -16.5t43.5 -33t33.5 -16.5q26 0 26 29q0 8 -3 17l83 17q6 -16 6 -42q0 -44 -30.5 -73t-82.5 -29q-38 0 -63.5 16.5t-42 33t-33.5 16.5z" />
    <glyph glyph-name="Imacron" unicode="&#x12a;" horiz-adv-x="278" 
d="M14 0l137 700h132l-137 -700h-132zM110 792l19 94h248l-19 -94h-248z" />
    <glyph glyph-name="imacron" unicode="&#x12b;" horiz-adv-x="250" 
d="M3 0l96 496h128l-97 -496h-127zM56 588l19 94h248l-19 -94h-248z" />
    <glyph glyph-name="Ibreve" unicode="&#x12c;" horiz-adv-x="278" 
d="M14 0l137 700h132l-137 -700h-132zM286 881h76q-16 -113 -131 -113q-44 0 -71.5 26t-27.5 66q0 9 2 21h77q-1 -3 -1 -10q0 -33 30 -33q34 0 46 43z" />
    <glyph glyph-name="ibreve" unicode="&#x12d;" horiz-adv-x="250" 
d="M3 0l96 496h128l-97 -496h-127zM235 677h76q-16 -113 -131 -113q-44 0 -71.5 26t-27.5 66q0 9 2 21h77q-1 -3 -1 -10q0 -33 30 -33q34 0 46 43z" />
    <glyph glyph-name="Iogonek" unicode="&#x12e;" horiz-adv-x="278" 
d="M14 0l137 700h132l-137 -700q-32 -14 -59.5 -36t-27.5 -47q0 -33 33 -33q9 0 22 2l-4 -77q-26 -7 -56 -7q-45 0 -74 22.5t-29 61.5q0 71 77 114h-14z" />
    <glyph glyph-name="iogonek" unicode="&#x12f;" horiz-adv-x="250" 
d="M3 0l96 496h128l-97 -496q-32 -14 -59.5 -36t-27.5 -47q0 -33 33 -33q9 0 22 2l-4 -77q-26 -7 -56 -7q-45 0 -74 22.5t-29 61.5q0 71 77 114h-9zM107 568l26 132h140l-26 -132h-140z" />
    <glyph glyph-name="Idotaccent" unicode="&#x130;" horiz-adv-x="278" 
d="M14 0l137 700h132l-137 -700h-132zM158 772l26 132h140l-26 -132h-140z" />
    <glyph glyph-name="dotlessi" unicode="&#x131;" horiz-adv-x="250" 
d="M3 0l96 496h128l-97 -496h-127z" />
    <glyph glyph-name="IJ" unicode="&#x132;" horiz-adv-x="800" 
d="M14 0l137 700h132l-137 -700h-132zM823 700l-95 -486q-23 -118 -86 -173t-183 -55q-83 0 -138.5 49t-55.5 131q0 31 7 59l130 -15q-3 -18 -3 -32q0 -28 23 -49t61 -21q94 0 114 108l94 484h132z" />
    <glyph glyph-name="ij" unicode="&#x133;" horiz-adv-x="490" 
d="M3 0l96 496h128l-97 -496h-127zM107 568l26 132h140l-26 -132h-140zM100 -201l33 114q18 -8 37 -8q30 0 45.5 17t22.5 54l101 520h128l-104 -540q-32 -167 -190 -167q-43 0 -73 10zM347 568l26 132h140l-26 -132h-140z" />
    <glyph glyph-name="Jcircumflex" unicode="&#x134;" horiz-adv-x="555" 
d="M578 700l-95 -486q-23 -118 -86 -173t-183 -55q-83 0 -138.5 49t-55.5 131q0 31 7 59l130 -15q-3 -18 -3 -32q0 -28 23 -49t61 -21q94 0 114 108l94 484h132zM314 754l143 157h92l82 -157h-93l-52 60l-73 -60h-99z" />
    <glyph glyph-name="jcircumflex" unicode="&#x135;" horiz-adv-x="250" 
d="M-140 -201l33 114q18 -8 37 -8q30 0 45.5 17t22.5 54l101 520h128l-104 -540q-32 -167 -190 -167q-43 0 -73 10zM7 550l143 157h92l82 -157h-93l-52 60l-73 -60h-99z" />
    <glyph glyph-name="uni0136" unicode="&#x136;" horiz-adv-x="658" 
d="M197 -182l24 122h126l-24 -122l-117 -135l-24 16l59 119h-44zM701 700l-297 -260l176 -440h-148l-136 349l-98 -86l-52 -263h-132l137 700h132l-50 -260l66 60l228 200h174z" />
    <glyph glyph-name="uni0137" unicode="&#x137;" horiz-adv-x="541" 
d="M135 -182l24 122h126l-24 -122l-117 -135l-24 16l59 119h-44zM269 700l-67 -344l163 140h167l-209 -174l138 -322h-134l-106 239l-51 -44l-38 -195h-127l136 700h128z" />
    <glyph glyph-name="kgreenlandic" unicode="&#x138;" horiz-adv-x="540" 
d="M101 496h128l-28 -149l167 149h163l-212 -185l139 -311h-134l-106 229l-49 -43l-37 -186h-127z" />
    <glyph glyph-name="Lacute" unicode="&#x139;" horiz-adv-x="597" 
d="M14 0l137 700h132l-113 -578h348l-24 -122h-480zM171 754l95 158h155l-149 -158h-101z" />
    <glyph glyph-name="lacute" unicode="&#x13a;" horiz-adv-x="252" 
d="M4 0l136 700h128l-137 -700h-127zM162 754l95 158h155l-149 -158h-101z" />
    <glyph glyph-name="uni013B" unicode="&#x13b;" horiz-adv-x="597" 
d="M164 -182l24 122h126l-24 -122l-117 -135l-24 16l59 119h-44zM14 0l137 700h132l-113 -578h348l-24 -122h-480z" />
    <glyph glyph-name="uni013C" unicode="&#x13c;" horiz-adv-x="252" 
d="M-32 -182l24 122h126l-24 -122l-117 -135l-24 16l59 119h-44zM4 0l136 700h128l-137 -700h-127z" />
    <glyph glyph-name="Lcaron" unicode="&#x13d;" horiz-adv-x="597" 
d="M472 582l23 118h119l-23 -118l-139 -135l-19 19l84 116h-45zM14 0l137 700h132l-113 -578h348l-24 -122h-480z" />
    <glyph glyph-name="lcaron" unicode="&#x13e;" horiz-adv-x="358" 
d="M310 594l20 106h106l-20 -108l-95 -108l-24 20l58 90h-45zM4 0l136 700h128l-137 -700h-127z" />
    <glyph glyph-name="Ldot" unicode="&#x13f;" horiz-adv-x="597" 
d="M14 0l137 700h132l-113 -578h348l-24 -122h-480zM356 283l27 134h134l-27 -134h-134z" />
    <glyph glyph-name="ldot" unicode="&#x140;" horiz-adv-x="386" 
d="M4 0l136 700h128l-137 -700h-127zM249 283l27 134h134l-27 -134h-134z" />
    <glyph glyph-name="Lslash" unicode="&#x141;" horiz-adv-x="610" 
d="M-22 123l26 131l84 47l78 399h132l-62 -314l175 99l-26 -131l-174 -99l-26 -133h348l-24 -122h-480l33 171z" />
    <glyph glyph-name="lslash" unicode="&#x142;" horiz-adv-x="286" 
d="M-15 137l23 114l70 40l80 409h128l-64 -327l72 41l-22 -114l-73 -41l-50 -259h-127l34 177z" />
    <glyph glyph-name="Nacute" unicode="&#x143;" horiz-adv-x="728" 
d="M16 0l137 700h136l197 -453q12 -29 19 -55l100 508h128l-137 -700h-137l-196 454q-14 34 -20 55l-99 -509h-128zM380 754l95 158h155l-149 -158h-101z" />
    <glyph glyph-name="nacute" unicode="&#x144;" 
d="M537 325l-63 -325h-128l56 288q5 25 5 37q0 30 -22.5 48.5t-61.5 18.5q-51 0 -90.5 -39t-51.5 -101l-49 -252h-128l96 496h128l-12 -67q62 81 165 81q77 0 118.5 -39t41.5 -101q0 -15 -4 -45zM277 550l95 158h155l-149 -158h-101z" />
    <glyph glyph-name="uni0145" unicode="&#x145;" horiz-adv-x="730" 
d="M211 -182l24 122h126l-24 -122l-117 -135l-24 16l59 119h-44zM16 0l137 700h136l197 -453q12 -29 19 -55l100 508h128l-137 -700h-137l-196 454q-14 34 -20 55l-99 -509h-128z" />
    <glyph glyph-name="uni0146" unicode="&#x146;" 
d="M146 -182l24 122h126l-24 -122l-117 -135l-24 16l59 119h-44zM537 325l-63 -325h-128l56 288q5 25 5 37q0 30 -22.5 48.5t-61.5 18.5q-51 0 -90.5 -39t-51.5 -101l-49 -252h-128l96 496h128l-12 -67q62 81 165 81q77 0 118.5 -39t41.5 -101q0 -15 -4 -45z" />
    <glyph glyph-name="Ncaron" unicode="&#x147;" horiz-adv-x="728" 
d="M16 0l137 700h136l197 -453q12 -29 19 -55l100 508h128l-137 -700h-137l-196 454q-14 34 -20 55l-99 -509h-128zM635 911l-143 -157h-92l-82 157h93l52 -60l73 60h99z" />
    <glyph glyph-name="ncaron" unicode="&#x148;" 
d="M537 325l-63 -325h-128l56 288q5 25 5 37q0 30 -22.5 48.5t-61.5 18.5q-51 0 -90.5 -39t-51.5 -101l-49 -252h-128l96 496h128l-12 -67q62 81 165 81q77 0 118.5 -39t41.5 -101q0 -15 -4 -45zM538 707l-143 -157h-92l-82 157h93l52 -60l73 60h99z" />
    <glyph glyph-name="napostrophe" unicode="&#x149;" horiz-adv-x="669" 
d="M109 614l22 116h116l-22 -116l-118 -113l-21 20l71 93h-48zM612 325l-63 -325h-128l56 288q5 25 5 37q0 30 -22.5 48.5t-61.5 18.5q-51 0 -90.5 -39t-51.5 -101l-49 -252h-128l96 496h128l-12 -67q62 81 165 81q77 0 118.5 -39t41.5 -101q0 -15 -4 -45z" />
    <glyph glyph-name="Eng" unicode="&#x14a;" horiz-adv-x="733" 
d="M16 0l137 700h136l201 -451q16 -40 20 -55l98 506h128l-137 -706q-20 -102 -80 -157t-157 -55q-54 0 -96 20l54 117q24 -15 50 -15q72 0 92 96l-201 452q-16 40 -20 55l-97 -507h-128z" />
    <glyph glyph-name="eng" unicode="&#x14b;" 
d="M537 325l-71 -369q-32 -167 -190 -167q-43 0 -73 10l33 114q18 -8 37 -8q30 0 45.5 17t22.5 54l61 312q5 25 5 37q0 30 -22.5 48.5t-61.5 18.5q-51 0 -90.5 -39t-51.5 -101l-49 -252h-128l96 496h128l-12 -67q62 81 165 81q77 0 118.5 -39t41.5 -101q0 -15 -4 -45z" />
    <glyph glyph-name="Omacron" unicode="&#x14c;" horiz-adv-x="812" 
d="M774 399q0 -173 -112.5 -293t-294.5 -120q-139 0 -229 90t-90 229q0 106 46 198t140 151.5t217 59.5q150 0 236.5 -86.5t86.5 -228.5zM384 108q111 0 182.5 82t71.5 200q0 95 -55.5 148.5t-146.5 53.5q-109 0 -180.5 -84t-71.5 -199q0 -94 57 -147.5t143 -53.5zM343 792
l19 94h248l-19 -94h-248z" />
    <glyph glyph-name="omacron" unicode="&#x14d;" horiz-adv-x="612" 
d="M574 280q0 -128 -85.5 -211t-219.5 -83q-100 0 -171 63t-71 162q0 128 84 213.5t219 85.5q106 0 175 -60.5t69 -169.5zM285 104q66 0 111.5 47t45.5 118q0 57 -35 90t-93 33q-68 0 -112.5 -49.5t-44.5 -114.5q0 -59 36.5 -91.5t91.5 -32.5zM220 588l19 94h248l-19 -94
h-248z" />
    <glyph glyph-name="Obreve" unicode="&#x14e;" horiz-adv-x="812" 
d="M774 399q0 -173 -112.5 -293t-294.5 -120q-139 0 -229 90t-90 229q0 106 46 198t140 151.5t217 59.5q150 0 236.5 -86.5t86.5 -228.5zM384 108q111 0 182.5 82t71.5 200q0 95 -55.5 148.5t-146.5 53.5q-109 0 -180.5 -84t-71.5 -199q0 -94 57 -147.5t143 -53.5zM516 881
h76q-16 -113 -131 -113q-44 0 -71.5 26t-27.5 66q0 9 2 21h77q-1 -3 -1 -10q0 -33 30 -33q34 0 46 43z" />
    <glyph glyph-name="obreve" unicode="&#x14f;" horiz-adv-x="612" 
d="M574 280q0 -128 -85.5 -211t-219.5 -83q-100 0 -171 63t-71 162q0 128 84 213.5t219 85.5q106 0 175 -60.5t69 -169.5zM285 104q66 0 111.5 47t45.5 118q0 57 -35 90t-93 33q-68 0 -112.5 -49.5t-44.5 -114.5q0 -59 36.5 -91.5t91.5 -32.5zM399 677h76
q-16 -113 -131 -113q-44 0 -71.5 26t-27.5 66q0 9 2 21h77q-1 -3 -1 -10q0 -33 30 -33q34 0 46 43z" />
    <glyph glyph-name="Ohungarumlaut" unicode="&#x150;" horiz-adv-x="812" 
d="M774 399q0 -173 -112.5 -293t-294.5 -120q-139 0 -229 90t-90 229q0 106 46 198t140 151.5t217 59.5q150 0 236.5 -86.5t86.5 -228.5zM384 108q111 0 182.5 82t71.5 200q0 95 -55.5 148.5t-146.5 53.5q-109 0 -180.5 -84t-71.5 -199q0 -94 57 -147.5t143 -53.5zM290 754
l94 158h153l-149 -158h-98zM480 754l95 158h151l-149 -158h-97z" />
    <glyph glyph-name="ohungarumlaut" unicode="&#x151;" horiz-adv-x="612" 
d="M574 280q0 -128 -85.5 -211t-219.5 -83q-100 0 -171 63t-71 162q0 128 84 213.5t219 85.5q106 0 175 -60.5t69 -169.5zM285 104q66 0 111.5 47t45.5 118q0 57 -35 90t-93 33q-68 0 -112.5 -49.5t-44.5 -114.5q0 -59 36.5 -91.5t91.5 -32.5zM176 550l94 158h153l-149 -158
h-98zM366 550l95 158h151l-149 -158h-97z" />
    <glyph glyph-name="OE" unicode="&#x152;" horiz-adv-x="1174" 
d="M569 0l16 81q-85 -95 -218 -95q-139 0 -229 90t-90 229q0 106 46 198t140 151.5t217 59.5q77 0 138 -30.5t96 -82.5l21 99h483l-23 -118h-351l-32 -161h323l-23 -118h-323l-36 -185h354l-23 -118h-486zM384 108q111 0 182.5 82t71.5 200q0 95 -55.5 148.5t-146.5 53.5
q-109 0 -180.5 -84t-71.5 -199q0 -94 57 -147.5t143 -53.5z" />
    <glyph glyph-name="oe" unicode="&#x153;" horiz-adv-x="1001" 
d="M954 218h-385q0 -58 32.5 -91t85.5 -33q98 0 148 89l91 -58q-43 -71 -101.5 -105t-144.5 -34q-57 0 -106.5 27.5t-79.5 75.5q-89 -103 -225 -103q-100 0 -171 63t-71 162q0 128 84 213.5t219 85.5q131 0 201 -99q36 46 90.5 72.5t120.5 26.5q105 0 164 -54.5t59 -141.5
q0 -36 -6 -68zM285 104q66 0 111.5 47t45.5 118q0 57 -35 90t-93 33q-68 0 -112.5 -49.5t-44.5 -114.5q0 -59 36.5 -91.5t91.5 -32.5zM737 414q-49 0 -89 -29t-57 -75h262q0 48 -31.5 76t-84.5 28z" />
    <glyph glyph-name="Racute" unicode="&#x154;" horiz-adv-x="667" 
d="M430 0l-105 284h-123l-56 -284h-132l137 700h287q105 0 164.5 -47t59.5 -131q0 -88 -55.5 -147t-146.5 -79l111 -296h-141zM260 584l-36 -184h167q60 0 97.5 26.5t37.5 76.5q0 81 -99 81h-167zM319 754l95 158h155l-149 -158h-101z" />
    <glyph glyph-name="racute" unicode="&#x155;" horiz-adv-x="384" 
d="M406 504l-43 -119q-17 7 -40 7q-56 0 -92.5 -40t-50.5 -114l-47 -238h-128l96 496h128l-13 -68q46 82 148 82q21 0 42 -6zM171 550l95 158h155l-149 -158h-101z" />
    <glyph glyph-name="uni0156" unicode="&#x156;" horiz-adv-x="667" 
d="M188 -182l24 122h126l-24 -122l-117 -135l-24 16l59 119h-44zM430 0l-105 284h-123l-56 -284h-132l137 700h287q105 0 164.5 -47t59.5 -131q0 -88 -55.5 -147t-146.5 -79l111 -296h-141zM260 584l-36 -184h167q60 0 97.5 26.5t37.5 76.5q0 81 -99 81h-167z" />
    <glyph glyph-name="uni0157" unicode="&#x157;" horiz-adv-x="384" 
d="M-30 -182l24 122h126l-24 -122l-117 -135l-24 16l59 119h-44zM406 504l-43 -119q-17 7 -40 7q-56 0 -92.5 -40t-50.5 -114l-47 -238h-128l96 496h128l-13 -68q46 82 148 82q21 0 42 -6z" />
    <glyph glyph-name="Rcaron" unicode="&#x158;" horiz-adv-x="667" 
d="M430 0l-105 284h-123l-56 -284h-132l137 700h287q105 0 164.5 -47t59.5 -131q0 -88 -55.5 -147t-146.5 -79l111 -296h-141zM260 584l-36 -184h167q60 0 97.5 26.5t37.5 76.5q0 81 -99 81h-167zM585 911l-143 -157h-92l-82 157h93l52 -60l73 60h99z" />
    <glyph glyph-name="rcaron" unicode="&#x159;" horiz-adv-x="384" 
d="M406 504l-43 -119q-17 7 -40 7q-56 0 -92.5 -40t-50.5 -114l-47 -238h-128l96 496h128l-13 -68q46 82 148 82q21 0 42 -6zM452 707l-143 -157h-92l-82 157h93l52 -60l73 60h99z" />
    <glyph glyph-name="Sacute" unicode="&#x15a;" horiz-adv-x="652" 
d="M368 598q-53 0 -88.5 -20.5t-35.5 -58.5q0 -37 34 -59.5t110 -42.5q94 -24 144 -69t50 -120q0 -110 -78 -176t-208 -66q-112 0 -182 63.5t-84 158.5l121 61q9 -76 48 -121.5t109 -45.5q58 0 99 29t41 78q0 40 -33.5 62t-110.5 42q-78 20 -132.5 69t-54.5 124
q0 92 71.5 150t189.5 58q193 0 243 -172l-101 -64q-35 120 -152 120zM308 754l95 158h155l-149 -158h-101z" />
    <glyph glyph-name="sacute" unicode="&#x15b;" horiz-adv-x="500" 
d="M264 418q-31 0 -52.5 -12.5t-21.5 -36.5q0 -43 97 -65q76 -18 112.5 -52t36.5 -92q0 -78 -58.5 -126t-159.5 -48q-78 0 -134 43.5t-72 107.5l100 58q22 -103 121 -103q36 0 60 15t24 42q0 25 -23.5 38.5t-76.5 27.5q-141 37 -141 147q0 64 53 106t142 42q149 0 191 -123
l-91 -49q-33 80 -107 80zM203 550l95 158h155l-149 -158h-101z" />
    <glyph glyph-name="Scircumflex" unicode="&#x15c;" horiz-adv-x="652" 
d="M368 598q-53 0 -88.5 -20.5t-35.5 -58.5q0 -37 34 -59.5t110 -42.5q94 -24 144 -69t50 -120q0 -110 -78 -176t-208 -66q-112 0 -182 63.5t-84 158.5l121 61q9 -76 48 -121.5t109 -45.5q58 0 99 29t41 78q0 40 -33.5 62t-110.5 42q-78 20 -132.5 69t-54.5 124
q0 92 71.5 150t189.5 58q193 0 243 -172l-101 -64q-35 120 -152 120zM226 754l143 157h92l82 -157h-93l-52 60l-73 -60h-99z" />
    <glyph glyph-name="scircumflex" unicode="&#x15d;" horiz-adv-x="500" 
d="M264 418q-31 0 -52.5 -12.5t-21.5 -36.5q0 -43 97 -65q76 -18 112.5 -52t36.5 -92q0 -78 -58.5 -126t-159.5 -48q-78 0 -134 43.5t-72 107.5l100 58q22 -103 121 -103q36 0 60 15t24 42q0 25 -23.5 38.5t-76.5 27.5q-141 37 -141 147q0 64 53 106t142 42q149 0 191 -123
l-91 -49q-33 80 -107 80zM128 550l143 157h92l82 -157h-93l-52 60l-73 -60h-99z" />
    <glyph glyph-name="Scedilla" unicode="&#x15e;" horiz-adv-x="652" 
d="M235 -112l-34 33l37 70q-88 16 -142 75.5t-66 141.5l121 61q9 -76 48 -121.5t109 -45.5q58 0 99 29t41 78q0 40 -33.5 62t-110.5 42q-78 20 -132.5 69t-54.5 124q0 92 71.5 150t189.5 58q193 0 243 -172l-101 -64q-35 120 -152 120q-53 0 -88.5 -20.5t-35.5 -58.5
q0 -37 34 -59.5t110 -42.5q94 -24 144 -69t50 -120q0 -109 -76.5 -174.5t-205.5 -67.5l-29 -38q16 8 38 8q30 0 48.5 -18t18.5 -48q0 -44 -29 -69t-76 -25q-75 0 -90 61l70 17q3 -22 25 -22q12 0 20 8t8 22q0 24 -26 24q-22 0 -43 -18z" />
    <glyph glyph-name="scedilla" unicode="&#x15f;" horiz-adv-x="500" 
d="M155 -112l-34 33l39 72q-57 14 -96.5 53t-51.5 91l100 58q22 -103 121 -103q36 0 60 15t24 42q0 25 -23.5 38.5t-76.5 27.5q-141 37 -141 147q0 64 53 106t142 42q149 0 191 -123l-91 -49q-33 80 -107 80q-31 0 -52.5 -12.5t-21.5 -36.5q0 -43 97 -65q76 -18 112.5 -52
t36.5 -92q0 -78 -58 -125.5t-158 -48.5l-29 -38q16 8 38 8q30 0 48.5 -18t18.5 -48q0 -44 -29 -69t-76 -25q-75 0 -90 61l70 17q3 -22 25 -22q12 0 20 8t8 22q0 24 -26 24q-22 0 -43 -18z" />
    <glyph glyph-name="Scaron" unicode="&#x160;" horiz-adv-x="652" 
d="M368 598q-53 0 -88.5 -20.5t-35.5 -58.5q0 -37 34 -59.5t110 -42.5q94 -24 144 -69t50 -120q0 -110 -78 -176t-208 -66q-112 0 -182 63.5t-84 158.5l121 61q9 -76 48 -121.5t109 -45.5q58 0 99 29t41 78q0 40 -33.5 62t-110.5 42q-78 20 -132.5 69t-54.5 124
q0 92 71.5 150t189.5 58q193 0 243 -172l-101 -64q-35 120 -152 120zM577 911l-143 -157h-92l-82 157h93l52 -60l73 60h99z" />
    <glyph glyph-name="scaron" unicode="&#x161;" horiz-adv-x="500" 
d="M264 418q-31 0 -52.5 -12.5t-21.5 -36.5q0 -43 97 -65q76 -18 112.5 -52t36.5 -92q0 -78 -58.5 -126t-159.5 -48q-78 0 -134 43.5t-72 107.5l100 58q22 -103 121 -103q36 0 60 15t24 42q0 25 -23.5 38.5t-76.5 27.5q-141 37 -141 147q0 64 53 106t142 42q149 0 191 -123
l-91 -49q-33 80 -107 80zM472 709l-143 -157h-92l-82 157h93l52 -60l73 60h99z" />
    <glyph glyph-name="uni0162" unicode="&#x162;" horiz-adv-x="592" 
d="M141 -182l24 122h126l-24 -122l-117 -135l-24 16l59 119h-44zM72 578l24 122h556l-24 -122h-212l-113 -578h-132l113 578h-212z" />
    <glyph glyph-name="uni0163" unicode="&#x163;" horiz-adv-x="374" 
d="M70 -182l24 122h126l-24 -122l-117 -135l-24 16l59 119h-44zM42 394l20 102h77l26 134h128l-26 -134h106l-20 -102h-106l-44 -226q-3 -16 -3 -28q0 -20 14 -31t37 -11q21 0 43 6l-8 -104q-47 -14 -90 -14q-55 0 -91.5 32.5t-36.5 85.5q0 25 6 58l45 232h-77z" />
    <glyph glyph-name="Tcaron" unicode="&#x164;" horiz-adv-x="592" 
d="M72 578l24 122h556l-24 -122h-212l-113 -578h-132l113 578h-212zM568 911l-143 -157h-92l-82 157h93l52 -60l73 60h99z" />
    <glyph glyph-name="tcaron" unicode="&#x165;" horiz-adv-x="374" 
d="M357 656l20 106h106l-20 -108l-95 -108l-23 19l55 91h-43zM42 394l20 102h77l26 134h128l-26 -134h106l-20 -102h-106l-44 -226q-3 -16 -3 -28q0 -20 14 -31t37 -11q21 0 43 6l-8 -104q-47 -14 -90 -14q-55 0 -91.5 32.5t-36.5 85.5q0 25 6 58l45 232h-77z" />
    <glyph glyph-name="Tbar" unicode="&#x166;" horiz-adv-x="592" 
d="M72 578l24 122h556l-24 -122h-212l-27 -140h138l-19 -94h-138l-67 -344h-132l67 344h-138l19 94h138l27 140h-212z" />
    <glyph glyph-name="tbar" unicode="&#x167;" horiz-adv-x="374" 
d="M42 394l20 102h77l26 134h128l-26 -134h106l-20 -102h-106l-17 -86h94l-19 -96h-94l-8 -44q-3 -16 -3 -28q0 -20 14 -31t37 -11q21 0 43 6l-8 -104q-47 -14 -90 -14q-55 0 -91.5 32.5t-36.5 85.5q0 25 6 58l9 50h-64l19 96h64l17 86h-77z" />
    <glyph glyph-name="Utilde" unicode="&#x168;" horiz-adv-x="700" 
d="M712 700l-85 -435q-28 -145 -109 -212t-225 -67q-100 0 -168.5 60.5t-68.5 165.5q0 37 7 75l81 413h132l-81 -417q-5 -29 -5 -51q0 -59 34 -91.5t92 -32.5q150 0 184 176l80 416h132zM375 820q-13 0 -20.5 -9t-7.5 -21q0 -6 4 -16l-85 -16q-6 12 -6 34q0 47 30 78t85 31
q37 0 63 -16.5t43.5 -33t33.5 -16.5q26 0 26 29q0 8 -3 17l83 17q6 -17 6 -42q0 -44 -30.5 -73t-82.5 -29q-38 0 -63.5 16.5t-42 33t-33.5 16.5z" />
    <glyph glyph-name="utilde" unicode="&#x169;" 
d="M40 188l60 308h128l-55 -282q-5 -25 -5 -42q0 -34 24 -51t64 -17q49 0 87 39t51 106l48 247h128l-96 -496h-128l12 67q-24 -37 -65.5 -59t-90.5 -22q-79 0 -123.5 43.5t-44.5 106.5q0 17 6 52zM283 616q-13 0 -20.5 -9t-7.5 -21q0 -6 4 -16l-85 -16q-6 12 -6 34
q0 47 30 78t85 31q37 0 63 -16.5t43.5 -33t33.5 -16.5q26 0 26 29q0 8 -3 17l83 17q6 -16 6 -42q0 -44 -30.5 -73t-82.5 -29q-38 0 -63.5 16.5t-42 33t-33.5 16.5z" />
    <glyph glyph-name="Umacron" unicode="&#x16a;" horiz-adv-x="700" 
d="M712 700l-85 -435q-28 -145 -109 -212t-225 -67q-100 0 -168.5 60.5t-68.5 165.5q0 37 7 75l81 413h132l-81 -417q-5 -29 -5 -51q0 -59 34 -91.5t92 -32.5q150 0 184 176l80 416h132zM314 792l19 94h248l-19 -94h-248z" />
    <glyph glyph-name="umacron" unicode="&#x16b;" 
d="M40 188l60 308h128l-55 -282q-5 -25 -5 -42q0 -34 24 -51t64 -17q49 0 87 39t51 106l48 247h128l-96 -496h-128l12 67q-24 -37 -65.5 -59t-90.5 -22q-79 0 -123.5 43.5t-44.5 106.5q0 17 6 52zM220 588l19 94h248l-19 -94h-248z" />
    <glyph glyph-name="Ubreve" unicode="&#x16c;" horiz-adv-x="700" 
d="M712 700l-85 -435q-28 -145 -109 -212t-225 -67q-100 0 -168.5 60.5t-68.5 165.5q0 37 7 75l81 413h132l-81 -417q-5 -29 -5 -51q0 -59 34 -91.5t92 -32.5q150 0 184 176l80 416h132zM493 881h76q-16 -113 -131 -113q-44 0 -71.5 26t-27.5 66q0 9 2 21h77q-1 -3 -1 -10
q0 -33 30 -33q34 0 46 43z" />
    <glyph glyph-name="ubreve" unicode="&#x16d;" 
d="M40 188l60 308h128l-55 -282q-5 -25 -5 -42q0 -34 24 -51t64 -17q49 0 87 39t51 106l48 247h128l-96 -496h-128l12 67q-24 -37 -65.5 -59t-90.5 -22q-79 0 -123.5 43.5t-44.5 106.5q0 17 6 52zM399 677h76q-16 -113 -131 -113q-44 0 -71.5 26t-27.5 66q0 9 2 21h77
q-1 -3 -1 -10q0 -33 30 -33q34 0 46 43z" />
    <glyph glyph-name="Uring" unicode="&#x16e;" horiz-adv-x="700" 
d="M712 700l-85 -435q-28 -145 -109 -212t-225 -67q-100 0 -168.5 60.5t-68.5 165.5q0 37 7 75l81 413h132l-81 -417q-5 -29 -5 -51q0 -59 34 -91.5t92 -32.5q150 0 184 176l80 416h132zM343 839q0 40 28 67.5t68 27.5t68 -27.5t28 -67.5t-28 -67.5t-68 -27.5t-68 27.5
t-28 67.5zM406 839q0 -16 9 -25t24 -9t24 9t9 25t-9 25t-24 9t-24 -9t-9 -25z" />
    <glyph glyph-name="uring" unicode="&#x16f;" 
d="M40 188l60 308h128l-55 -282q-5 -25 -5 -42q0 -34 24 -51t64 -17q49 0 87 39t51 106l48 247h128l-96 -496h-128l12 67q-24 -37 -65.5 -59t-90.5 -22q-79 0 -123.5 43.5t-44.5 106.5q0 17 6 52zM255 635q0 40 28 67.5t68 27.5t68 -27.5t28 -67.5t-28 -67.5t-68 -27.5
t-68 27.5t-28 67.5zM318 635q0 -16 9 -25t24 -9t24 9t9 25t-9 25t-24 9t-24 -9t-9 -25z" />
    <glyph glyph-name="Uhungarumlaut" unicode="&#x170;" horiz-adv-x="700" 
d="M712 700l-85 -435q-28 -145 -109 -212t-225 -67q-100 0 -168.5 60.5t-68.5 165.5q0 37 7 75l81 413h132l-81 -417q-5 -29 -5 -51q0 -59 34 -91.5t92 -32.5q150 0 184 176l80 416h132zM273 754l94 158h153l-149 -158h-98zM463 754l95 158h151l-149 -158h-97z" />
    <glyph glyph-name="uhungarumlaut" unicode="&#x171;" 
d="M40 188l60 308h128l-55 -282q-5 -25 -5 -42q0 -34 24 -51t64 -17q49 0 87 39t51 106l48 247h128l-96 -496h-128l12 67q-24 -37 -65.5 -59t-90.5 -22q-79 0 -123.5 43.5t-44.5 106.5q0 17 6 52zM179 550l94 158h153l-149 -158h-98zM369 550l95 158h151l-149 -158h-97z" />
    <glyph glyph-name="Uogonek" unicode="&#x172;" horiz-adv-x="700" 
d="M217 -114q0 61 56 101q-93 6 -155 65.5t-62 159.5q0 37 7 75l81 413h132l-81 -417q-5 -29 -5 -51q0 -59 34 -91.5t92 -32.5q150 0 184 176l80 416h132l-85 -435q-22 -113 -75 -177.5t-142 -87.5q-31 -8 -58 -30t-27 -48q0 -38 33 -38q9 0 22 2l-4 -77q-26 -7 -56 -7
q-45 0 -74 22.5t-29 61.5z" />
    <glyph glyph-name="uogonek" unicode="&#x173;" 
d="M279 -114q0 71 77 114h-10l12 67q-24 -37 -65.5 -59t-90.5 -22q-79 0 -123.5 43.5t-44.5 106.5q0 17 6 52l60 308h128l-55 -282q-5 -25 -5 -42q0 -34 24 -51t64 -17q49 0 87 39t51 106l48 247h128l-96 -496q-32 -14 -59.5 -36t-27.5 -47q0 -33 33 -33q9 0 22 2l-4 -77
q-26 -7 -56 -7q-45 0 -74 22.5t-29 61.5z" />
    <glyph glyph-name="Wcircumflex" unicode="&#x174;" horiz-adv-x="942" 
d="M139 0l-56 700h136l24 -442q2 -51 2 -76l32 77l199 441h141l26 -441q2 -52 2 -77l32 76l195 442h141l-328 -700h-142l-34 508l-229 -508h-141zM387 754l143 157h92l82 -157h-93l-52 60l-73 -60h-99z" />
    <glyph glyph-name="wcircumflex" unicode="&#x175;" horiz-adv-x="714" 
d="M454 496l23 -322l141 322h128l-229 -496h-127l-27 337l-157 -337h-122l-42 496h121l16 -323l147 323h128zM226 550l143 157h92l82 -157h-93l-52 60l-73 -60h-99z" />
    <glyph glyph-name="Ycircumflex" unicode="&#x176;" horiz-adv-x="602" 
d="M308 0l54 274l315 426h-151l-177 -251q-18 -27 -32 -51l-12 51l-76 251h-147l148 -426l-54 -274h132zM225 754l143 157h92l82 -157h-93l-52 60l-73 -60h-99z" />
    <glyph glyph-name="ycircumflex" unicode="&#x177;" horiz-adv-x="546" 
d="M-26 -200l42 117q21 -12 43 -12q42 0 67 47l25 48l-107 496h136l67 -328l188 328h142l-352 -588q-41 -68 -80 -93.5t-102 -25.5q-42 0 -69 11zM157 550l143 157h92l82 -157h-93l-52 60l-73 -60h-99z" />
    <glyph glyph-name="Ydieresis" unicode="&#x178;" horiz-adv-x="602" 
d="M308 0l54 274l315 426h-151l-177 -251q-18 -27 -32 -51l-12 51l-76 251h-147l148 -426l-54 -274h132zM421 780l25 124h118l-25 -124h-118zM241 780l25 124h118l-25 -124h-118z" />
    <glyph glyph-name="Zacute" unicode="&#x179;" horiz-adv-x="614" 
d="M105 578l24 122h512l-24 -122l-443 -456h371l-24 -122h-541l24 120l445 458h-344zM296 754l95 158h155l-149 -158h-101z" />
    <glyph glyph-name="zacute" unicode="&#x17a;" horiz-adv-x="496" 
d="M149 102h273l-20 -102h-423l19 102l316 292h-248l20 102h396l-20 -102zM211 550l95 158h155l-149 -158h-101z" />
    <glyph glyph-name="Zdotaccent" unicode="&#x17b;" horiz-adv-x="614" 
d="M105 578l24 122h512l-24 -122l-443 -456h371l-24 -122h-541l24 120l445 458h-344zM318 772l26 132h140l-26 -132h-140z" />
    <glyph glyph-name="zdotaccent" unicode="&#x17c;" horiz-adv-x="496" 
d="M149 102h273l-20 -102h-423l19 102l316 292h-248l20 102h396l-20 -102zM226 568l26 132h140l-26 -132h-140z" />
    <glyph glyph-name="Zcaron" unicode="&#x17d;" horiz-adv-x="614" 
d="M105 578l24 122h512l-24 -122l-443 -456h371l-24 -122h-541l24 120l445 458h-344zM559 911l-143 -157h-92l-82 157h93l52 -60l73 60h99z" />
    <glyph glyph-name="zcaron" unicode="&#x17e;" horiz-adv-x="496" 
d="M149 102h273l-20 -102h-423l19 102l316 292h-248l20 102h396l-20 -102zM483 707l-143 -157h-92l-82 157h93l52 -60l73 60h99z" />
    <glyph glyph-name="longs" unicode="&#x17f;" horiz-adv-x="342" 
d="M37 394l20 102h71l16 78q36 176 202 176q36 0 66 -9l-25 -116q-25 9 -42 9q-61 0 -74 -63l-111 -571h-128l76 394h-71z" />
    <glyph glyph-name="uni018E" unicode="&#x18e;" horiz-adv-x="615" 
d="M616 700l-137 -700h-479l23 118h347l32 161h-319l23 118h319l36 185h-350l23 118h482z" />
    <glyph glyph-name="uni018F" unicode="&#x18f;" horiz-adv-x="575" 
d="M30 278h385q0 58 -32.5 91t-85.5 33q-98 0 -148 -89l-91 58q43 71 101.5 105t144.5 34q102 0 165.5 -64t63.5 -172q0 -119 -82.5 -203.5t-208.5 -84.5q-105 0 -164 54.5t-59 141.5q0 36 6 68zM247 82q49 0 89 29t57 75h-262q0 -48 31.5 -76t84.5 -28z" />
    <glyph glyph-name="florin" unicode="&#x192;" horiz-adv-x="353" 
d="M48 394l20 102h72l14 73q17 89 70.5 135t135.5 46q37 0 64 -11l-33 -112q-20 7 -42 7q-55 0 -69 -67l-13 -71h107l-20 -102h-107l-86 -439q-33 -173 -192 -173q-38 0 -66 11l38 113q16 -8 34 -8q49 0 61 62l84 434h-72z" />
    <glyph glyph-name="uni01B5" unicode="&#x1b5;" horiz-adv-x="614" 
d="M105 578l24 122h512l-24 -122l-172 -177h122l-18 -94h-196l-179 -185h371l-24 -122h-541l24 120l181 187h-118l18 94h192l172 177h-344z" />
    <glyph glyph-name="uni01B6" unicode="&#x1b6;" horiz-adv-x="496" 
d="M47 210l19 96h153l95 88h-248l20 102h396l-20 -102l-94 -88h66l-19 -96h-150l-116 -108h273l-20 -102h-423l19 102l117 108h-68z" />
    <glyph glyph-name="AEacute" unicode="&#x1fc;" horiz-adv-x="990" 
d="M385 0l36 183h-210l-117 -183h-148l454 700h605l-23 -118h-351l-32 -161h323l-23 -118h-323l-36 -185h354l-23 -118h-486zM466 582l-180 -281h158l55 281h-33zM587 754l95 158h155l-149 -158h-101z" />
    <glyph glyph-name="aeacute" unicode="&#x1fd;" horiz-adv-x="979" 
d="M597 496l-9 -46q58 60 150 60q90 0 147.5 -57.5t57.5 -138.5q0 -36 -6 -68l-5 -28h-385q0 -58 32.5 -91t85.5 -33q98 0 148 89l91 -58q-43 -71 -101 -105t-143 -34q-98 0 -147 65l-11 -51h-128l12 61q-55 -75 -152 -75q-93 0 -151 64.5t-58 163.5q0 123 75.5 209.5
t203.5 86.5q104 0 154 -72l13 58h126zM282 104q64 0 109 47t45 120q0 57 -34 89t-89 32q-69 0 -113.5 -47.5t-44.5 -117.5q0 -57 36 -90t91 -33zM715 414q-50 0 -89.5 -29t-56.5 -75h262q0 48 -31.5 76t-84.5 28zM487 550l95 158h155l-149 -158h-101z" />
    <glyph glyph-name="circumflex" unicode="&#x2c6;" horiz-adv-x="408" 
d="M84 550l143 157h92l82 -157h-93l-52 60l-73 -60h-99z" />
    <glyph glyph-name="caron" unicode="&#x2c7;" horiz-adv-x="408" 
d="M435 707l-143 -157h-92l-82 157h93l52 -60l73 60h99z" />
    <glyph glyph-name="breve" unicode="&#x2d8;" horiz-adv-x="294" 
d="M252 677h76q-16 -113 -131 -113q-44 0 -71.5 26t-27.5 66q0 9 2 21h77q-1 -3 -1 -10q0 -33 30 -33q34 0 46 43z" />
    <glyph glyph-name="dotaccent" unicode="&#x2d9;" horiz-adv-x="250" 
d="M105 568l26 132h140l-26 -132h-140z" />
    <glyph glyph-name="ring" unicode="&#x2da;" horiz-adv-x="274" 
d="M106 635q0 40 28 67.5t68 27.5t68 -27.5t28 -67.5t-28 -67.5t-68 -27.5t-68 27.5t-28 67.5zM169 635q0 -16 9 -25t24 -9t24 9t9 25t-9 25t-24 9t-24 -9t-9 -25z" />
    <glyph glyph-name="ogonek" unicode="&#x2db;" horiz-adv-x="224" 
d="M-57 -114q0 82 102 126l93 -12q-32 -14 -59.5 -36t-27.5 -47q0 -33 33 -33q9 0 22 2l-4 -77q-26 -7 -56 -7q-45 0 -74 22.5t-29 61.5z" />
    <glyph glyph-name="tilde" unicode="&#x2dc;" horiz-adv-x="470" 
d="M218 616q-13 0 -20.5 -9t-7.5 -21q0 -6 4 -16l-85 -16q-6 12 -6 34q0 47 30 78t85 31q37 0 63 -16.5t43.5 -33t33.5 -16.5q26 0 26 29q0 8 -3 17l83 17q6 -16 6 -42q0 -44 -30.5 -73t-82.5 -29q-38 0 -63.5 16.5t-42 33t-33.5 16.5z" />
    <glyph glyph-name="hungarumlaut" unicode="&#x2dd;" horiz-adv-x="516" 
d="M108 550l94 158h153l-149 -158h-98zM298 550l95 158h151l-149 -158h-97z" />
    <glyph glyph-name="uni0374" unicode="&#x374;" horiz-adv-x="309" 
d="M75 420l114 288h144l-170 -288h-88z" />
    <glyph glyph-name="uni0375" unicode="&#x375;" horiz-adv-x="309" 
d="M212 130l-105 -288h-145l161 288h89z" />
    <glyph glyph-name="uni037A" unicode="&#x37a;" horiz-adv-x="235" 
d="M-8 -73l11 53h106l-6 -30q-2 -12 -2 -17q0 -36 37 -36q16 0 27 3l-17 -89q-25 -9 -61 -9q-42 0 -70 22t-28 67q0 21 3 36z" />
    <glyph glyph-name="uni037E" unicode="&#x37e;" horiz-adv-x="214" 
d="M51 350l26 134h134l-26 -134h-134zM-17 0l26 134h134l-26 -134l-127 -151l-24 17l63 134h-46z" />
    <glyph glyph-name="tonos" unicode="&#x384;" horiz-adv-x="300" 
d="M110 542l75 158h144l-133 -158h-86z" />
    <glyph glyph-name="dieresistonos" unicode="&#x385;" horiz-adv-x="494" 
d="M408 576l24 124h118l-24 -124h-118zM66 576l24 124h118l-24 -124h-118zM197 550l72 158h147l-130 -158h-89z" />
    <glyph glyph-name="Alphatonos" unicode="&#x386;" horiz-adv-x="704" 
d="M97 542l75 158h144l-133 -158h-86zM-54 0l416 700h132l146 -700h-139l-35 183h-265l-105 -183h-150zM364 469l-97 -168h178l-29 168q-7 34 -12 76z" />
    <glyph glyph-name="anoteleia" unicode="&#x387;" horiz-adv-x="214" 
d="M-18 300l27 134h134l-27 -134h-134z" />
    <glyph glyph-name="Epsilontonos" unicode="&#x388;" horiz-adv-x="770" 
d="M50 542l75 158h144l-133 -158h-86zM169 0l137 700h479l-23 -118h-347l-32 -161h319l-23 -118h-319l-36 -185h350l-23 -118h-482z" />
    <glyph glyph-name="Etatonos" unicode="&#x389;" horiz-adv-x="866" 
d="M50 542l75 158h144l-133 -158h-86zM166 0l137 700h132l-55 -282h302l55 282h132l-137 -700h-132l58 296h-302l-58 -296h-132z" />
    <glyph glyph-name="Iotatonos" unicode="&#x38a;" horiz-adv-x="436" 
d="M172 0l137 700h132l-137 -700h-132zM125 700l-75 -158h86l133 158h-144z" />
    <glyph glyph-name="Omicrontonos" unicode="&#x38c;" horiz-adv-x="884" 
d="M846 399q0 -173 -112.5 -293t-294.5 -120q-139 0 -229 90t-90 229q0 106 46 198t140 151.5t217 59.5q150 0 236.5 -86.5t86.5 -228.5zM456 108q111 0 182.5 82t71.5 200q0 95 -55.5 148.5t-146.5 53.5q-109 0 -180.5 -84t-71.5 -199q0 -94 57 -147.5t143 -53.5zM125 700
l-75 -158h86l133 158h-144z" />
    <glyph glyph-name="Upsilontonos" unicode="&#x38e;" horiz-adv-x="809" 
d="M569 274l-54 -274h-132l54 274l-148 426h147l76 -251q8 -27 12 -51l32 51l177 251h151zM50 542l75 158h144l-133 -158h-86z" />
    <glyph glyph-name="Omegatonos" unicode="&#x38f;" horiz-adv-x="874" 
d="M770 96l-19 -96h-286l21 110q101 45 164 123.5t63 174.5q0 83 -54 133.5t-140 50.5q-108 0 -177.5 -71t-69.5 -174q0 -151 120 -237l-21 -110h-287l18 96h146q-44 44 -76 109t-32 143q0 149 107 257.5t286 108.5q141 0 227.5 -78t86.5 -204q0 -102 -58 -189.5
t-150 -146.5h131zM125 700l-75 -158h86l133 158h-144z" />
    <glyph glyph-name="iotadieresistonos" unicode="&#x390;" horiz-adv-x="390" 
d="M71 150l67 346h128l-64 -330q-4 -22 -4 -29q0 -39 50 -39q17 0 39 6l-8 -104q-40 -14 -86 -14q-52 0 -89.5 30t-37.5 88q0 18 5 46zM358 576l24 124h118l-24 -124h-118zM16 576l24 124h118l-24 -124h-118zM147 550l72 158h147l-130 -158h-89z" />
    <glyph glyph-name="Alpha" unicode="&#x391;" horiz-adv-x="704" 
d="M-54 0l416 700h132l146 -700h-139l-35 183h-265l-105 -183h-150zM364 469l-97 -168h178l-29 168q-7 34 -12 76z" />
    <glyph glyph-name="Beta" unicode="&#x392;" horiz-adv-x="660" 
d="M14 0l137 700h275q94 0 150.5 -43.5t56.5 -112.5q0 -61 -33.5 -103.5t-92.5 -63.5q93 -49 93 -146q0 -102 -84.5 -166.5t-207.5 -64.5h-294zM207 312l-38 -194h153q67 0 105.5 28t38.5 82q0 84 -109 84h-150zM260 584l-30 -156h146q54 0 88.5 24t34.5 68q0 64 -93 64
h-146z" />
    <glyph glyph-name="Gamma" unicode="&#x393;" horiz-adv-x="574" 
d="M14 0l137 700h481l-23 -118h-349l-114 -582h-132z" />
    <glyph glyph-name="uni0394" unicode="&#x394;" horiz-adv-x="704" 
d="M640 0h-694l416 700h132zM364 469l-201 -351h316l-63 351q-7 34 -12 76z" />
    <glyph glyph-name="Epsilon" unicode="&#x395;" horiz-adv-x="615" 
d="M14 0l137 700h479l-23 -118h-347l-32 -161h319l-23 -118h-319l-36 -185h350l-23 -118h-482z" />
    <glyph glyph-name="Zeta" unicode="&#x396;" horiz-adv-x="614" 
d="M105 578l24 122h512l-24 -122l-443 -456h371l-24 -122h-541l24 120l445 458h-344z" />
    <glyph glyph-name="Eta" unicode="&#x397;" horiz-adv-x="716" 
d="M16 0l137 700h132l-55 -282h302l55 282h132l-137 -700h-132l58 296h-302l-58 -296h-132z" />
    <glyph glyph-name="Theta" unicode="&#x398;" horiz-adv-x="707" 
d="M673 408q0 -80 -24.5 -154.5t-69 -135t-116 -96.5t-157.5 -36q-125 0 -195 84.5t-70 212.5q0 106 42.5 202.5t129 162.5t198.5 66q127 0 194.5 -83t67.5 -223zM317 108q77 0 128.5 52t75.5 132h-346v-10q0 -82 37.5 -128t104.5 -46zM395 592q-70 0 -123 -51t-78 -133h345
q0 90 -38 137t-106 47z" />
    <glyph glyph-name="Iota" unicode="&#x399;" horiz-adv-x="278" 
d="M14 0l137 700h132l-137 -700h-132z" />
    <glyph glyph-name="Kappa" unicode="&#x39a;" horiz-adv-x="658" 
d="M701 700l-297 -260l176 -440h-148l-136 349l-98 -86l-52 -263h-132l137 700h132l-50 -260l66 60l228 200h174z" />
    <glyph glyph-name="Lambda" unicode="&#x39b;" horiz-adv-x="665" 
d="M-54 0l395 700h140l120 -700h-145l-66 448q-6 46 -9 89l-44 -95l-238 -442h-153z" />
    <glyph glyph-name="Mu" unicode="&#x39c;" horiz-adv-x="870" 
d="M14 0l137 700h136l116 -550l327 550h145l-137 -700h-128l84 428l-60 -107l-192 -321h-127l-72 312q-15 98 -17 116l-84 -428h-128z" />
    <glyph glyph-name="Nu" unicode="&#x39d;" horiz-adv-x="730" 
d="M16 0l137 700h136l197 -453q12 -29 19 -55l100 508h128l-137 -700h-137l-196 454q-14 34 -20 55l-99 -509h-128z" />
    <glyph glyph-name="Xi" unicode="&#x39e;" horiz-adv-x="616" 
d="M608 582h-494l23 118h494zM20 118h500l-23 -118h-499zM525 303h-438l23 118h438z" />
    <glyph glyph-name="Omicron" unicode="&#x39f;" horiz-adv-x="812" 
d="M774 399q0 -173 -112.5 -293t-294.5 -120q-139 0 -229 90t-90 229q0 106 46 198t140 151.5t217 59.5q150 0 236.5 -86.5t86.5 -228.5zM384 108q111 0 182.5 82t71.5 200q0 95 -55.5 148.5t-146.5 53.5q-109 0 -180.5 -84t-71.5 -199q0 -94 57 -147.5t143 -53.5z" />
    <glyph glyph-name="Pi" unicode="&#x3a0;" horiz-adv-x="691" 
d="M16 0l137 700h541l-137 -700h-132l113 578h-277l-113 -578h-132z" />
    <glyph glyph-name="Rho" unicode="&#x3a1;" horiz-adv-x="698" 
d="M14 0l137 700h298q112 0 176 -53t64 -153q0 -117 -87 -183.5t-224 -66.5h-184l-48 -244h-132zM260 582l-43 -220h178q72 0 115 32.5t43 90.5q0 97 -120 97h-173z" />
    <glyph glyph-name="Sigma" unicode="&#x3a3;" horiz-adv-x="598" 
d="M243 351l-138 223l25 126h502l-24 -122h-358l144 -231l-222 -225h358l-24 -122h-520l24 122z" />
    <glyph glyph-name="Tau" unicode="&#x3a4;" horiz-adv-x="592" 
d="M72 578l24 122h556l-24 -122h-212l-113 -578h-132l113 578h-212z" />
    <glyph glyph-name="Upsilon" unicode="&#x3a5;" horiz-adv-x="602" 
d="M362 274l-54 -274h-132l54 274l-148 426h147l76 -251q8 -27 12 -51l32 51l177 251h151z" />
    <glyph glyph-name="Phi" unicode="&#x3a6;" horiz-adv-x="814" 
d="M424 58l-12 -58h-136l12 58q-101 6 -174 71.5t-73 177.5q0 144 100.5 237t259.5 98l12 58h136l-12 -58q103 -7 175.5 -71.5t72.5 -183.5q0 -146 -105 -235.5t-256 -93.5zM515 530l-69 -360q94 1 152.5 62t58.5 150q0 70 -37.5 109t-95.5 39h-9zM310 170l69 360
q-93 -3 -151.5 -65.5t-58.5 -146.5q0 -69 38 -108.5t97 -39.5h6z" />
    <glyph glyph-name="Chi" unicode="&#x3a7;" horiz-adv-x="621" 
d="M259 700l92 -218l169 218h151l-271 -330l158 -370h-145l-104 262l-205 -262h-155l308 383l-142 317h144z" />
    <glyph glyph-name="Psi" unicode="&#x3a8;" horiz-adv-x="794" 
d="M268 0l32 160q-98 0 -160.5 58t-62.5 159q0 25 9 72l49 251h132l-49 -250q-7 -37 -7 -59q0 -54 28 -84.5t83 -30.5l83 424h132l-83 -424q138 0 172 174l49 250h132l-52 -263q-54 -277 -323 -277l-32 -160h-132z" />
    <glyph glyph-name="uni03A9" unicode="&#x3a9;" horiz-adv-x="784" 
d="M680 96l-19 -96h-286l21 110q101 45 164 123.5t63 174.5q0 83 -54 133.5t-140 50.5q-108 0 -177.5 -71t-69.5 -174q0 -151 120 -237l-21 -110h-287l18 96h146q-44 44 -76 109t-32 143q0 149 107 257.5t286 108.5q141 0 227.5 -78t86.5 -204q0 -102 -58 -189.5
t-150 -146.5h131z" />
    <glyph glyph-name="Iotadieresis" unicode="&#x3aa;" horiz-adv-x="278" 
d="M14 0l137 700h132l-137 -700h-132zM261 780l25 124h118l-25 -124h-118zM81 780l25 124h118l-25 -124h-118z" />
    <glyph glyph-name="Upsilondieresis" unicode="&#x3ab;" horiz-adv-x="602" 
d="M308 0l54 274l315 426h-151l-177 -251q-18 -27 -32 -51l-12 51l-76 251h-147l148 -426l-54 -274h132zM421 780l25 124h118l-25 -124h-118zM241 780l25 124h118l-25 -124h-118z" />
    <glyph glyph-name="alphatonos" unicode="&#x3ac;" horiz-adv-x="687" 
d="M574 96q18 0 40 12v-108q-44 -14 -80 -14q-46 0 -73.5 24.5t-35.5 63.5q-63 -88 -186 -88q-95 0 -154 62t-59 166q0 76 32 142t99.5 110t158.5 44q121 0 170 -92l30 78h132l-111 -287q-4 -23 -4 -49q0 -64 41 -64zM317 392q-70 0 -115.5 -49t-45.5 -118q0 -55 33.5 -88
t86.5 -33q67 0 113 48t46 121q0 53 -33.5 86t-84.5 33zM285 542l75 158h144l-133 -158h-86z" />
    <glyph glyph-name="epsilontonos" unicode="&#x3ad;" horiz-adv-x="487" 
d="M279 308l-17 -87q-119 -2 -119 -75q0 -30 20 -46t52 -16q36 0 61 18t25 48q0 9 -3 21l114 36q11 -25 11 -52q0 -87 -62 -128t-155 -41q-89 0 -140 41.5t-51 104.5q0 50 31.5 85t82.5 51q-54 33 -54 95q0 71 58 109t140 38q76 0 124.5 -34.5t48.5 -84.5q0 -40 -26 -75
l-92 36q6 10 6 23q0 22 -19.5 33.5t-48.5 11.5q-36 0 -58 -15.5t-22 -43.5q0 -53 93 -53zM210 542l75 158h144l-133 -158h-86z" />
    <glyph glyph-name="etatonos" unicode="&#x3ae;" 
d="M537 325l-102 -529h-128l95 492q5 25 5 37q0 30 -22.5 48.5t-61.5 18.5q-51 0 -90.5 -39t-51.5 -101l-49 -252h-128l96 496h128l-12 -67q62 81 165 81q77 0 118.5 -39t41.5 -101q0 -15 -4 -45zM277 542l75 158h144l-133 -158h-86z" />
    <glyph glyph-name="iotatonos" unicode="&#x3af;" horiz-adv-x="323" 
d="M34 150l67 346h128l-64 -330q-4 -22 -4 -29q0 -39 50 -39q17 0 39 6l-8 -104q-40 -14 -86 -14q-52 0 -89.5 30t-37.5 88q0 18 5 46zM127 542l75 158h144l-133 -158h-86z" />
    <glyph glyph-name="upsilondieresistonos" unicode="&#x3b0;" horiz-adv-x="582" 
d="M50 237l50 259h128l-53 -274q-5 -27 -5 -39q0 -37 21 -58t60 -21q103 0 125 113l54 279h128l-57 -293q-42 -217 -265 -217q-89 0 -141.5 47.5t-52.5 132.5q0 29 8 71zM454 576l24 124h118l-24 -124h-118zM112 576l24 124h118l-24 -124h-118zM243 550l72 158h147
l-130 -158h-89z" />
    <glyph glyph-name="alpha" unicode="&#x3b1;" horiz-adv-x="687" 
d="M574 96q18 0 40 12v-108q-44 -14 -80 -14q-46 0 -73.5 24.5t-35.5 63.5q-63 -88 -186 -88q-95 0 -154 62t-59 166q0 76 32 142t99.5 110t158.5 44q121 0 170 -92l30 78h132l-111 -287q-4 -23 -4 -49q0 -64 41 -64zM317 392q-70 0 -115.5 -49t-45.5 -118q0 -55 33.5 -88
t86.5 -33q67 0 113 48t46 121q0 53 -33.5 86t-84.5 33z" />
    <glyph glyph-name="beta" unicode="&#x3b2;" horiz-adv-x="588" 
d="M291 -14q-96 0 -142 67l-49 -257h-127l134 694q22 113 89 168.5t169 55.5q82 0 133.5 -44t51.5 -115q0 -57 -34 -101.5t-86 -66.5q107 -61 107 -171q0 -105 -69 -167.5t-177 -62.5zM245 326l22 110h33q54 0 88.5 26.5t34.5 73.5q0 30 -21 49t-55 19q-41 0 -71 -26
t-39 -75l-50 -255q-5 -27 -5 -49q0 -43 29.5 -73t77.5 -30q49 0 85 34t36 88t-39.5 81t-102.5 27h-23z" />
    <glyph glyph-name="gamma" unicode="&#x3b3;" horiz-adv-x="548" 
d="M110 -204l42 214l-103 486h134l61 -323l188 323h144l-296 -486l-42 -214h-128z" />
    <glyph glyph-name="delta" unicode="&#x3b4;" horiz-adv-x="578" 
d="M309 602l113 -121q101 -109 101 -220q0 -122 -73 -198.5t-201 -76.5q-95 0 -162.5 58.5t-67.5 154.5q0 105 73 181t197 78l-156 166l15 76h370l-19 -98h-190zM259 94q60 0 100.5 41t40.5 103q0 58 -31.5 87t-83.5 29q-60 0 -102 -42.5t-42 -105.5q0 -49 34 -80.5
t84 -31.5z" />
    <glyph glyph-name="epsilon" unicode="&#x3b5;" horiz-adv-x="487" 
d="M279 308l-17 -87q-119 -2 -119 -75q0 -30 20 -46t52 -16q36 0 61 18t25 48q0 9 -3 21l114 36q11 -25 11 -52q0 -87 -62 -128t-155 -41q-89 0 -140 41.5t-51 104.5q0 50 31.5 85t82.5 51q-54 33 -54 95q0 71 58 109t140 38q76 0 124.5 -34.5t48.5 -84.5q0 -40 -26 -75
l-92 36q6 10 6 23q0 22 -19.5 33.5t-48.5 11.5q-36 0 -58 -15.5t-22 -43.5q0 -53 93 -53z" />
    <glyph glyph-name="zeta" unicode="&#x3b6;" horiz-adv-x="511" 
d="M356 -139l-69 66q21 21 21 42q0 14 -12.5 22.5t-31.5 8.5q-102 0 -166 60.5t-64 152.5q0 121 93 224.5t218 160.5h-228l20 102h374l-20 -102q-139 -70 -231 -161.5t-92 -192.5q0 -111 144 -130q65 -9 99 -39.5t34 -74.5q0 -69 -89 -139z" />
    <glyph glyph-name="eta" unicode="&#x3b7;" 
d="M537 325l-102 -529h-128l95 492q5 25 5 37q0 30 -22.5 48.5t-61.5 18.5q-51 0 -90.5 -39t-51.5 -101l-49 -252h-128l96 496h128l-12 -67q62 81 165 81q77 0 118.5 -39t41.5 -101q0 -15 -4 -45z" />
    <glyph glyph-name="theta" unicode="&#x3b8;" horiz-adv-x="640" 
d="M618 438q0 -67 -13.5 -132t-42.5 -123t-69 -102t-97 -69.5t-124 -25.5q-107 0 -171 72.5t-64 198.5q0 68 14.5 134t44.5 124t70.5 102.5t96.5 70.5t120 26q113 0 174 -73t61 -203zM290 104q68 0 114.5 52t68.5 136h-306v-26q0 -79 34.5 -120.5t88.5 -41.5zM371 596
q-63 0 -111.5 -52.5t-73.5 -135.5h304v23q0 92 -31.5 128.5t-87.5 36.5z" />
    <glyph glyph-name="iota" unicode="&#x3b9;" horiz-adv-x="323" 
d="M34 150l67 346h128l-64 -330q-4 -22 -4 -29q0 -39 50 -39q17 0 39 6l-8 -104q-40 -14 -86 -14q-52 0 -89.5 30t-37.5 88q0 18 5 46z" />
    <glyph glyph-name="kappa" unicode="&#x3ba;" horiz-adv-x="540" 
d="M101 496h128l-28 -149l167 149h163l-212 -185l139 -311h-134l-106 229l-49 -43l-37 -186h-127z" />
    <glyph glyph-name="lambda" unicode="&#x3bb;" horiz-adv-x="546" 
d="M147 581v114q34 12 72 12q61 0 93.5 -25t45.5 -90l121 -592h-137l-60 317l-186 -317h-150l304 500l-7 44q-7 48 -51 48q-23 0 -45 -11z" />
    <glyph glyph-name="uni03BC" unicode="&#x3bc;" 
d="M-36 -204l136 700h128l-55 -282q-5 -25 -5 -42q0 -34 24 -51t64 -17q49 0 87 39t51 106l48 247h128l-96 -496h-128l12 67q-51 -81 -155 -81q-40 0 -76 13q-1 -5 -4 -31t-6 -41l-26 -131h-127z" />
    <glyph glyph-name="nu" unicode="&#x3bd;" horiz-adv-x="534" 
d="M568 496l-298 -496h-124l-102 496h132l60 -336l190 336h142z" />
    <glyph glyph-name="xi" unicode="&#x3be;" horiz-adv-x="550" 
d="M335 -158l-65 73q25 21 25 41q0 33 -45 34q-98 4 -162 56t-64 132q0 76 47 130.5t125 79.5q-30 17 -52.5 51.5t-22.5 79.5q0 89 67 142t171 53q98 0 155 -41t57 -106q0 -43 -26 -89l-114 26q11 23 11 40q0 28 -26 45t-65 17q-48 0 -75.5 -22.5t-27.5 -63.5
q0 -43 35.5 -70t94.5 -27l-19 -98q-52 0 -94.5 -11.5t-73 -42t-30.5 -75.5q0 -43 39 -68.5t106 -29.5q133 -8 133 -111q0 -46 -23.5 -76.5t-80.5 -68.5z" />
    <glyph glyph-name="omicron" unicode="&#x3bf;" horiz-adv-x="612" 
d="M574 280q0 -128 -85.5 -211t-219.5 -83q-100 0 -171 63t-71 162q0 128 84 213.5t219 85.5q106 0 175 -60.5t69 -169.5zM285 104q66 0 111.5 47t45.5 118q0 57 -35 90t-93 33q-68 0 -112.5 -49.5t-44.5 -114.5q0 -59 36.5 -91.5t91.5 -32.5z" />
    <glyph glyph-name="pi" unicode="&#x3c0;" horiz-adv-x="686" 
d="M198 0h-128l76 394h-103l20 102h627l-20 -102h-103l-43 -224q-3 -20 -3 -29q0 -43 43 -43q18 0 37 6l-8 -104q-42 -14 -84 -14q-52 0 -87 31t-35 84q0 28 5 50l47 243h-165z" />
    <glyph glyph-name="rho" unicode="&#x3c1;" horiz-adv-x="626" 
d="M-33 -204l86 447q24 126 103.5 196.5t198.5 70.5q105 0 168.5 -61t63.5 -170q0 -122 -82 -207.5t-210 -85.5q-52 0 -92.5 21.5t-57.5 50.5l-51 -262h-127zM336 392q-67 0 -112.5 -50t-45.5 -118q0 -55 33.5 -87.5t87.5 -32.5q66 0 112 47.5t46 117.5q0 60 -32.5 91.5
t-88.5 31.5z" />
    <glyph glyph-name="sigma1" unicode="&#x3c2;" horiz-adv-x="555" 
d="M295 95q124 -33 124 -115q0 -54 -29.5 -88.5t-88.5 -63.5l-61 80q34 22 34 47q0 13 -7 21t-27 11q-88 15 -149.5 77.5t-61.5 159.5q0 119 81 202.5t217 83.5q169 0 217 -137l-111 -67q-28 86 -122 86q-65 0 -107.5 -44t-42.5 -108q0 -57 36 -93t98 -52z" />
    <glyph glyph-name="sigma" unicode="&#x3c3;" horiz-adv-x="638" 
d="M574 280q0 -128 -85.5 -211t-219.5 -83q-100 0 -171 63t-71 162q0 128 84 213.5t219 85.5h333l-18 -94h-120q49 -53 49 -136zM285 104q66 0 111.5 47t45.5 118q0 57 -35 90t-93 33q-68 0 -112.5 -49.5t-44.5 -114.5q0 -59 36.5 -91.5t91.5 -32.5z" />
    <glyph glyph-name="tau" unicode="&#x3c4;" horiz-adv-x="467" 
d="M36 394l20 102h419l-20 -102h-149l-44 -226q-3 -15 -3 -26q0 -44 56 -44q22 0 48 7l-7 -105q-42 -14 -91 -14q-59 0 -98.5 33t-39.5 88q0 26 6 55l45 232h-142z" />
    <glyph glyph-name="upsilon" unicode="&#x3c5;" horiz-adv-x="582" 
d="M50 237l50 259h128l-53 -274q-5 -27 -5 -39q0 -37 21 -58t60 -21q103 0 125 113l54 279h128l-57 -293q-42 -217 -265 -217q-89 0 -141.5 47.5t-52.5 132.5q0 29 8 71z" />
    <glyph glyph-name="phi" unicode="&#x3c6;" horiz-adv-x="736" 
d="M380 0l-40 -204h-128l40 204h-8q-92 0 -156 57.5t-64 150.5q0 128 89.5 208t231.5 80h110q116 0 180.5 -56t64.5 -155q0 -126 -85 -205.5t-224 -79.5h-11zM328 390q-83 -4 -130 -50t-47 -119q0 -58 34.5 -86.5t87.5 -28.5zM401 106q79 2 125 47t46 122q0 55 -31 85
t-85 30z" />
    <glyph glyph-name="chi" unicode="&#x3c7;" horiz-adv-x="567" 
d="M-60 -204l264 373l-50 188q-10 36 -32 36q-17 0 -39 -13l-39 84q49 39 111 39q51 0 77.5 -24.5t38.5 -71.5l26 -102l126 191h134l-223 -331l56 -221q6 -24 16 -33t30 -9q12 0 28 11l25 -94q-47 -30 -101 -30q-49 0 -75 23.5t-40 79.5l-33 139l-157 -235h-143z" />
    <glyph glyph-name="psi" unicode="&#x3c8;" horiz-adv-x="703" 
d="M353 -14l-37 -190h-127l37 190q-79 0 -131.5 45.5t-52.5 132.5q0 31 8 73l51 259h128l-56 -285q-4 -22 -4 -32q0 -80 79 -80l78 397h127l-78 -397q99 0 119 104l57 293h128l-58 -299q-41 -211 -268 -211z" />
    <glyph glyph-name="omega" unicode="&#x3c9;" horiz-adv-x="818" 
d="M601 464l118 46q41 -96 41 -213q0 -57 -14.5 -110t-44 -99.5t-81.5 -74t-119 -27.5q-54 0 -90 30t-42 74q-47 -104 -163 -104q-78 0 -122.5 54.5t-44.5 145.5q0 84 38.5 170t100.5 154l97 -62q-46 -55 -77 -122.5t-31 -127.5q0 -102 65 -102q35 0 62 29t37 82l29 153h128
l-29 -153q-4 -21 -4 -37q0 -35 16 -54.5t45 -19.5q52 0 84 63t32 141q0 75 -31 164z" />
    <glyph glyph-name="iotadieresis" unicode="&#x3ca;" horiz-adv-x="323" 
d="M34 150l67 346h128l-64 -330q-4 -22 -4 -29q0 -39 50 -39q17 0 39 6l-8 -104q-40 -14 -86 -14q-52 0 -89.5 30t-37.5 88q0 18 5 46zM217 576l25 124h118l-25 -124h-118zM37 576l25 124h118l-25 -124h-118z" />
    <glyph glyph-name="upsilondieresis" unicode="&#x3cb;" horiz-adv-x="582" 
d="M50 237l50 259h128l-53 -274q-5 -27 -5 -39q0 -37 21 -58t60 -21q103 0 125 113l54 279h128l-57 -293q-42 -217 -265 -217q-89 0 -141.5 47.5t-52.5 132.5q0 29 8 71zM371 576l25 124h118l-25 -124h-118zM191 576l25 124h118l-25 -124h-118z" />
    <glyph glyph-name="omicrontonos" unicode="&#x3cc;" horiz-adv-x="612" 
d="M574 280q0 -128 -85.5 -211t-219.5 -83q-100 0 -171 63t-71 162q0 128 84 213.5t219 85.5q106 0 175 -60.5t69 -169.5zM285 104q66 0 111.5 47t45.5 118q0 57 -35 90t-93 33q-68 0 -112.5 -49.5t-44.5 -114.5q0 -59 36.5 -91.5t91.5 -32.5zM282 542l75 158h144l-133 -158
h-86z" />
    <glyph glyph-name="upsilontonos" unicode="&#x3cd;" horiz-adv-x="582" 
d="M50 237l50 259h128l-53 -274q-5 -27 -5 -39q0 -37 21 -58t60 -21q103 0 125 113l54 279h128l-57 -293q-42 -217 -265 -217q-89 0 -141.5 47.5t-52.5 132.5q0 29 8 71zM272 542l75 158h144l-133 -158h-86z" />
    <glyph glyph-name="omegatonos" unicode="&#x3ce;" horiz-adv-x="818" 
d="M601 464l118 46q41 -96 41 -213q0 -57 -14.5 -110t-44 -99.5t-81.5 -74t-119 -27.5q-54 0 -90 30t-42 74q-47 -104 -163 -104q-78 0 -122.5 54.5t-44.5 145.5q0 84 38.5 170t100.5 154l97 -62q-46 -55 -77 -122.5t-31 -127.5q0 -102 65 -102q35 0 62 29t37 82l29 153h128
l-29 -153q-4 -21 -4 -37q0 -35 16 -54.5t45 -19.5q52 0 84 63t32 141q0 75 -31 164zM395 542l75 158h144l-133 -158h-86z" />
    <glyph glyph-name="uni0400" unicode="&#x400;" horiz-adv-x="615" 
d="M14 0l137 700h479l-23 -118h-347l-32 -161h319l-23 -118h-319l-36 -185h350l-23 -118h-482zM418 912l37 -158h-97l-92 158h152z" />
    <glyph glyph-name="uni0401" unicode="&#x401;" horiz-adv-x="615" 
d="M14 0l137 700h479l-23 -118h-347l-32 -161h319l-23 -118h-319l-36 -185h350l-23 -118h-482zM435 780l25 124h118l-25 -124h-118zM255 780l25 124h118l-25 -124h-118z" />
    <glyph glyph-name="uni0402" unicode="&#x402;" horiz-adv-x="764" 
d="M72 578l24 122h548l-24 -122h-218l-32 -166h114q104 0 163 -48.5t59 -140.5q0 -101 -72.5 -165.5t-192.5 -64.5q-51 0 -92 12l31 107q28 -13 74 -13q56 0 90.5 30.5t34.5 82.5q0 90 -126 90h-104l-59 -302h-132l112 578h-198z" />
    <glyph glyph-name="uni0403" unicode="&#x403;" horiz-adv-x="574" 
d="M14 0l137 700h481l-23 -118h-349l-114 -582h-132zM335 754l95 158h155l-149 -158h-101z" />
    <glyph glyph-name="uni0404" unicode="&#x404;" horiz-adv-x="754" 
d="M438 592q-84 0 -147 -49.5t-90 -130.5h376l-22 -110h-370q1 -92 50.5 -143t132.5 -51q137 0 219 146l106 -69q-119 -199 -339 -199q-135 0 -220 87t-85 231q0 78 28 151.5t78.5 131t129.5 92.5t174 35q108 0 182 -51t107 -144l-127 -65q-17 70 -66 104t-117 34z" />
    <glyph glyph-name="uni0405" unicode="&#x405;" horiz-adv-x="652" 
d="M368 598q-53 0 -88.5 -20.5t-35.5 -58.5q0 -37 34 -59.5t110 -42.5q94 -24 144 -69t50 -120q0 -110 -78 -176t-208 -66q-112 0 -182 63.5t-84 158.5l121 61q9 -76 48 -121.5t109 -45.5q58 0 99 29t41 78q0 40 -33.5 62t-110.5 42q-78 20 -132.5 69t-54.5 124
q0 92 71.5 150t189.5 58q193 0 243 -172l-101 -64q-35 120 -152 120z" />
    <glyph glyph-name="uni0406" unicode="&#x406;" horiz-adv-x="278" 
d="M14 0l137 700h132l-137 -700h-132z" />
    <glyph glyph-name="uni0407" unicode="&#x407;" horiz-adv-x="278" 
d="M14 0l137 700h132l-137 -700h-132zM261 780l25 124h118l-25 -124h-118zM81 780l25 124h118l-25 -124h-118z" />
    <glyph glyph-name="uni0408" unicode="&#x408;" horiz-adv-x="555" 
d="M578 700l-95 -486q-23 -118 -86 -173t-183 -55q-83 0 -138.5 49t-55.5 131q0 31 7 59l130 -15q-3 -18 -3 -32q0 -28 23 -49t61 -21q94 0 114 108l94 484h132z" />
    <glyph glyph-name="uni0409" unicode="&#x409;" horiz-adv-x="1057" 
d="M411 0l113 582h-152l-134 -440q-24 -78 -65.5 -113.5t-113.5 -35.5q-44 0 -77 13l42 122q18 -11 34 -11q42 0 57 49l164 534h401l-53 -272h140q100 0 162 -51.5t62 -143.5q0 -103 -84.5 -168t-207.5 -65h-288zM604 312l-38 -194h147q67 0 105.5 28t38.5 82q0 84 -109 84
h-144z" />
    <glyph glyph-name="uni040A" unicode="&#x40a;" horiz-adv-x="1070" 
d="M16 0l137 700h132l-55 -282h266l55 282h132l-55 -282h145q109 0 170 -47.5t61 -138.5q0 -112 -82 -172t-210 -60h-298l58 296h-266l-58 -296h-132zM604 296l-35 -178h160q64 0 102.5 27.5t38.5 76.5q0 74 -110 74h-156z" />
    <glyph glyph-name="uni040B" unicode="&#x40b;" horiz-adv-x="756" 
d="M689 281l-54 -281h-127l48 244q4 17 4 32q0 33 -22.5 53.5t-60.5 20.5q-54 0 -96 -39t-54 -101l-41 -210h-132l113 578h-195l24 122h560l-24 -122h-233l-38 -196q63 86 175 86q74 0 116 -38.5t42 -99.5q0 -25 -5 -49z" />
    <glyph glyph-name="uni040C" unicode="&#x40c;" horiz-adv-x="658" 
d="M701 700l-297 -260l176 -440h-148l-136 349l-98 -86l-52 -263h-132l137 700h132l-50 -260l66 60l228 200h174zM354 754l95 158h155l-149 -158h-101z" />
    <glyph glyph-name="uni040D" unicode="&#x40d;" horiz-adv-x="730" 
d="M731 700l-137 -700h-128l98 503l-40 -55l-374 -448h-136l137 700h128l-97 -496l41 55l369 441h139zM473 912l37 -158h-97l-92 158h152z" />
    <glyph glyph-name="uni040E" unicode="&#x40e;" horiz-adv-x="570" 
d="M25 0l55 134q15 -12 39 -12q32 0 52 35l49 83l-131 460h140l81 -298l177 298h148l-368 -614q-60 -100 -161 -100q-45 0 -81 14zM424 881h76q-16 -113 -131 -113q-44 0 -71.5 26t-27.5 66q0 9 2 21h77q-1 -3 -1 -10q0 -33 30 -33q34 0 46 43z" />
    <glyph glyph-name="uni040F" unicode="&#x40f;" horiz-adv-x="691" 
d="M15 0l136 700h132l-113 -578h281l113 578h132l-136 -700h-211l-23 -116h-123l23 116h-211z" />
    <glyph glyph-name="uni0410" unicode="&#x410;" horiz-adv-x="704" 
d="M-54 0l416 700h132l146 -700h-139l-35 183h-265l-105 -183h-150zM364 469l-97 -168h178l-29 168q-7 34 -12 76z" />
    <glyph glyph-name="uni0411" unicode="&#x411;" horiz-adv-x="660" 
d="M207 312l-38 -194h153q67 0 105.5 28t38.5 82q0 84 -109 84h-150zM230 428h146q100 0 162 -51.5t62 -145.5q0 -102 -84.5 -166.5t-207.5 -64.5h-294l137 700h456l-23 -116h-324z" />
    <glyph glyph-name="uni0412" unicode="&#x412;" horiz-adv-x="660" 
d="M14 0l137 700h275q94 0 150.5 -43.5t56.5 -112.5q0 -61 -33.5 -103.5t-92.5 -63.5q93 -49 93 -146q0 -102 -84.5 -166.5t-207.5 -64.5h-294zM207 312l-38 -194h153q67 0 105.5 28t38.5 82q0 84 -109 84h-150zM260 584l-30 -156h146q54 0 88.5 24t34.5 68q0 64 -93 64
h-146z" />
    <glyph glyph-name="uni0413" unicode="&#x413;" horiz-adv-x="572" 
d="M14 0l137 700h481l-23 -118h-349l-114 -582h-132z" />
    <glyph glyph-name="uni0414" unicode="&#x414;" horiz-adv-x="711" 
d="M80 0l-23 -116h-122l46 234h58q75 112 124 266l99 316h440l-113 -582h50l-46 -234h-123l23 116h-413zM457 118l90 464h-188l-68 -215q-46 -148 -107 -249h273z" />
    <glyph glyph-name="uni0415" unicode="&#x415;" horiz-adv-x="615" 
d="M14 0l137 700h479l-23 -118h-347l-32 -161h319l-23 -118h-319l-36 -185h350l-23 -118h-482z" />
    <glyph glyph-name="uni0416" unicode="&#x416;" horiz-adv-x="1019" 
d="M1062 700l-297 -261l177 -439h-144l-142 342l-87 -76l-52 -266h-132l52 266l-55 74l-261 -340h-160l348 439l-194 261h161l150 -206q21 -28 43 -62l53 268h132l-52 -263l67 62l225 201h168z" />
    <glyph glyph-name="uni0417" unicode="&#x417;" horiz-adv-x="592" 
d="M68 262l120 -30q-12 -18 -12 -47q0 -83 104 -83q57 0 91.5 31.5t34.5 87.5q0 104 -155 104l19 98q159 0 159 107q0 36 -26 55t-67 19q-45 0 -75 -24.5t-30 -72.5q0 -7 1 -13l-125 -21q-3 15 -3 29q0 92 65.5 152t178.5 60q103 0 157 -47.5t54 -120.5q0 -58 -31 -102
t-85 -62q97 -54 97 -158q0 -106 -69.5 -172t-199.5 -66q-108 0 -166.5 55t-58.5 135q0 47 22 86z" />
    <glyph glyph-name="uni0418" unicode="&#x418;" horiz-adv-x="728" 
d="M733 700l-137 -700h-128l98 503l-40 -55l-374 -448h-136l137 700h128l-97 -496l41 55l369 441h139z" />
    <glyph glyph-name="uni0419" unicode="&#x419;" horiz-adv-x="728" 
d="M500 881h76q-16 -113 -131 -113q-44 0 -71.5 26t-27.5 66q0 9 2 21h77q-1 -3 -1 -10q0 -33 30 -33q34 0 46 43zM733 700l-137 -700h-128l98 503l-40 -55l-374 -448h-136l137 700h128l-97 -496l41 55l369 441h139z" />
    <glyph glyph-name="uni041A" unicode="&#x41a;" horiz-adv-x="658" 
d="M701 700l-297 -260l176 -440h-148l-136 349l-98 -86l-52 -263h-132l137 700h132l-50 -260l66 60l228 200h174z" />
    <glyph glyph-name="uni041B" unicode="&#x41b;" horiz-adv-x="720" 
d="M-18 7l42 121q18 -11 41 -11q19 0 31.5 12.5t21.5 40.5l163 530h444l-136 -700h-132l113 582h-195l-133 -435q-24 -80 -65.5 -117t-111.5 -37q-48 0 -83 14z" />
    <glyph glyph-name="uni041C" unicode="&#x41c;" horiz-adv-x="870" 
d="M14 0l137 700h136l116 -550l327 550h145l-137 -700h-128l84 428l-60 -107l-192 -321h-127l-72 312q-15 98 -17 116l-84 -428h-128z" />
    <glyph glyph-name="uni041D" unicode="&#x41d;" horiz-adv-x="716" 
d="M16 0l137 700h132l-55 -282h302l55 282h132l-137 -700h-132l58 296h-302l-58 -296h-132z" />
    <glyph glyph-name="uni041E" unicode="&#x41e;" horiz-adv-x="812" 
d="M774 399q0 -173 -112.5 -293t-294.5 -120q-139 0 -229 90t-90 229q0 106 46 198t140 151.5t217 59.5q150 0 236.5 -86.5t86.5 -228.5zM384 108q111 0 182.5 82t71.5 200q0 95 -55.5 148.5t-146.5 53.5q-109 0 -180.5 -84t-71.5 -199q0 -94 57 -147.5t143 -53.5z" />
    <glyph glyph-name="uni041F" unicode="&#x41f;" horiz-adv-x="691" 
d="M16 0l137 700h541l-137 -700h-132l113 578h-277l-113 -578h-132z" />
    <glyph glyph-name="uni0420" unicode="&#x420;" horiz-adv-x="698" 
d="M14 0l137 700h298q112 0 176 -53t64 -153q0 -117 -87 -183.5t-224 -66.5h-184l-48 -244h-132zM260 582l-43 -220h178q72 0 115 32.5t43 90.5q0 97 -120 97h-173z" />
    <glyph glyph-name="uni0421" unicode="&#x421;" horiz-adv-x="768" 
d="M584 249l109 -76q-66 -97 -146.5 -142t-189.5 -45q-135 0 -221.5 86t-86.5 228q0 170 114 292t299 122q210 0 286 -185l-116 -72q-26 66 -75 100.5t-114 34.5q-112 0 -185 -85t-73 -196q0 -90 51.5 -146.5t134.5 -56.5q67 0 122 39t91 102z" />
    <glyph glyph-name="uni0422" unicode="&#x422;" horiz-adv-x="592" 
d="M72 578l24 122h556l-24 -122h-212l-113 -578h-132l113 578h-212z" />
    <glyph glyph-name="uni0423" unicode="&#x423;" horiz-adv-x="570" 
d="M25 0l55 134q15 -12 39 -12q32 0 52 35l49 83l-131 460h140l81 -298l177 298h148l-368 -614q-60 -100 -161 -100q-45 0 -81 14z" />
    <glyph glyph-name="uni0424" unicode="&#x424;" horiz-adv-x="814" 
d="M424 58l-12 -58h-136l12 58q-101 6 -174 71.5t-73 177.5q0 144 100.5 237t259.5 98l12 58h136l-12 -58q103 -7 175.5 -71.5t72.5 -183.5q0 -146 -105 -235.5t-256 -93.5zM515 530l-69 -360q94 1 152.5 62t58.5 150q0 70 -37.5 109t-95.5 39h-9zM310 170l69 360
q-93 -3 -151.5 -65.5t-58.5 -146.5q0 -69 38 -108.5t97 -39.5h6z" />
    <glyph glyph-name="uni0425" unicode="&#x425;" horiz-adv-x="621" 
d="M259 700l92 -218l169 218h151l-271 -330l158 -370h-145l-104 262l-205 -262h-155l308 383l-142 317h144z" />
    <glyph glyph-name="uni0426" unicode="&#x426;" horiz-adv-x="705" 
d="M15 0l136 700h132l-113 -578h281l113 578h132l-113 -578h50l-46 -238h-123l23 116h-472z" />
    <glyph glyph-name="uni0427" unicode="&#x427;" horiz-adv-x="645" 
d="M476 501l39 199h132l-137 -700h-132l58 298q-56 -62 -160 -62q-79 0 -131.5 49.5t-52.5 136.5q0 36 6 70l41 208h132l-41 -207q-4 -20 -4 -40q0 -46 26.5 -72.5t73.5 -26.5q55 0 95 37t55 110z" />
    <glyph glyph-name="uni0428" unicode="&#x428;" horiz-adv-x="876" 
d="M15 0l136 700h132l-113 -578h167l113 578h132l-113 -578h167l113 578h132l-137 -700h-729z" />
    <glyph glyph-name="uni0429" unicode="&#x429;" horiz-adv-x="890" 
d="M15 0l136 700h132l-113 -578h167l113 578h132l-113 -578h167l113 578h132l-113 -578h50l-46 -238h-123l23 116h-657z" />
    <glyph glyph-name="uni042A" unicode="&#x42a;" horiz-adv-x="731" 
d="M85 0l114 584h-120l23 116h252l-53 -272h140q100 0 162 -51.5t62 -143.5q0 -103 -84.5 -168t-207.5 -65h-288zM278 312l-38 -194h147q67 0 105.5 28t38.5 82q0 84 -109 84h-144z" />
    <glyph glyph-name="uni042B" unicode="&#x42b;" horiz-adv-x="908" 
d="M14 0l137 700h132l-53 -272h140q100 0 162 -51.5t62 -143.5q0 -103 -84.5 -168t-207.5 -65h-288zM207 312l-38 -194h147q67 0 105.5 28t38.5 82q0 84 -109 84h-144zM644 0l137 700h132l-137 -700h-132z" />
    <glyph glyph-name="uni042C" unicode="&#x42c;" horiz-adv-x="660" 
d="M14 0l137 700h132l-53 -272h140q100 0 162 -51.5t62 -143.5q0 -103 -84.5 -168t-207.5 -65h-288zM207 312l-38 -194h147q67 0 105.5 28t38.5 82q0 84 -109 84h-144z" />
    <glyph glyph-name="uni042D" unicode="&#x42d;" horiz-adv-x="760" 
d="M193 302l22 110h371q-6 83 -60.5 131.5t-129.5 48.5q-126 0 -204 -128l-105 64q48 86 131 136t191 50q139 0 226 -85.5t87 -232.5q0 -114 -44 -205.5t-135.5 -148t-217.5 -56.5q-104 0 -179.5 55t-110.5 140l119 66q45 -139 186 -139q92 0 152.5 53.5t82.5 140.5h-382z
" />
    <glyph glyph-name="uni042E" unicode="&#x42e;" horiz-adv-x="1040" 
d="M1002 399q0 -173 -112.5 -293t-294.5 -120q-136 0 -225 84.5t-94 218.5h-73l-57 -289h-132l137 700h132l-57 -289h62q33 131 135.5 217t255.5 86q150 0 236.5 -86.5t86.5 -228.5zM612 108q111 0 182.5 82t71.5 200q0 95 -55.5 148.5t-146.5 53.5q-109 0 -180.5 -84
t-71.5 -199q0 -94 57 -147.5t143 -53.5z" />
    <glyph glyph-name="uni042F" unicode="&#x42f;" horiz-adv-x="667" 
d="M348 284l-216 -284h-153l226 296q-55 22 -88.5 67t-33.5 113q0 102 78.5 163t211.5 61h299l-137 -700h-132l56 284h-111zM481 400l36 184h-173q-57 0 -92.5 -25.5t-35.5 -75.5q0 -40 27 -61.5t75 -21.5h163z" />
    <glyph glyph-name="uni0430" unicode="&#x430;" horiz-adv-x="624" 
d="M599 496l-97 -496h-128l12 61q-55 -75 -152 -75q-93 0 -151 64.5t-58 163.5q0 123 75.5 209.5t203.5 86.5q108 0 154 -75l13 61h128zM282 104q64 0 109 47t45 120q0 57 -34 89t-89 32q-69 0 -113.5 -47.5t-44.5 -117.5q0 -57 36 -90t91 -33z" />
    <glyph glyph-name="uni0431" unicode="&#x431;" horiz-adv-x="599" 
d="M539 722l25 -94q-49 -30 -133 -34q-89 -5 -155 -49.5t-89 -134.5q24 34 68.5 55t100.5 21q87 0 142.5 -57t55.5 -159q0 -123 -80 -203.5t-206 -80.5q-104 0 -168 72t-64 189q0 82 24.5 150.5t76.5 144.5q109 158 309 158q54 0 93 22zM316 376q-67 0 -108.5 -47.5
t-41.5 -109.5q0 -54 31.5 -88.5t80.5 -34.5q66 0 107.5 45.5t41.5 112.5q0 53 -31 87.5t-80 34.5z" />
    <glyph glyph-name="uni0432" unicode="&#x432;" horiz-adv-x="528" 
d="M4 0l97 496h225q71 0 112.5 -30.5t41.5 -78.5q0 -85 -93 -126q67 -34 67 -102q0 -75 -59.5 -117t-148.5 -42h-242zM204 400l-18 -94h98q33 0 54 13.5t21 41.5q0 39 -57 39h-98zM167 210l-22 -114h103q36 0 60.5 16t24.5 47q0 51 -63 51h-103z" />
    <glyph glyph-name="uni0433" unicode="&#x433;" horiz-adv-x="434" 
d="M4 0l97 496h340l-22 -114h-212l-75 -382h-128z" />
    <glyph glyph-name="uni0434" unicode="&#x434;" horiz-adv-x="625" 
d="M83 0l-21 -106h-102l42 220h60q44 54 66 135l70 247h369l-74 -382h54l-43 -220h-102l21 106h-340zM288 390l-42 -151q-17 -60 -54 -125h179l53 276h-136z" />
    <glyph glyph-name="uni0435" unicode="&#x435;" horiz-adv-x="575" 
d="M528 218h-385q0 -58 32.5 -91t85.5 -33q98 0 148 89l91 -58q-43 -71 -101.5 -105t-144.5 -34q-102 0 -165.5 64t-63.5 172q0 119 82.5 203.5t208.5 84.5q105 0 164 -54.5t59 -141.5q0 -36 -6 -68zM311 414q-49 0 -89 -29t-57 -75h262q0 48 -31.5 76t-84.5 28z" />
    <glyph glyph-name="uni0436" unicode="&#x436;" horiz-adv-x="796" 
d="M382 496h120l-33 -168q19 22 34 37l138 131h146l-216 -199l153 -297h-136l-112 211l-36 -33l-35 -178h-120l35 178l-22 30l-181 -208h-152l269 300l-137 196h144l88 -135l19 -37z" />
    <glyph glyph-name="uni0437" unicode="&#x437;" horiz-adv-x="493" 
d="M195 221l17 87q108 0 108 63q0 22 -18 35.5t-48 13.5q-29 0 -49.5 -13t-20.5 -36q0 -9 2 -16l-111 -37q-8 22 -8 44q0 62 53 105t143 43q80 0 127 -35t47 -89q0 -41 -24.5 -72t-63.5 -46q69 -34 69 -105q0 -86 -64 -131.5t-152 -45.5q-87 0 -139 44t-52 103q0 43 24 77
l106 -36q-8 -16 -8 -31q0 -26 20.5 -42.5t55.5 -16.5q37 0 60.5 20.5t23.5 55.5q0 61 -98 61z" />
    <glyph glyph-name="uni0438" unicode="&#x438;" horiz-adv-x="582" 
d="M222 496l-62 -319l268 319h130l-97 -496h-122l62 320l-266 -320h-132l97 496h122z" />
    <glyph glyph-name="uni0439" unicode="&#x439;" horiz-adv-x="582" 
d="M222 496l-62 -319l268 319h130l-97 -496h-122l62 320l-266 -320h-132l97 496h122zM390 677h76q-16 -113 -131 -113q-44 0 -71.5 26t-27.5 66q0 9 2 21h77q-1 -3 -1 -10q0 -33 30 -33q34 0 46 43z" />
    <glyph glyph-name="uni043A" unicode="&#x43a;" horiz-adv-x="540" 
d="M101 496h128l-28 -149l167 149h163l-212 -185l139 -311h-134l-106 229l-49 -43l-37 -186h-127z" />
    <glyph glyph-name="uni043B" unicode="&#x43b;" horiz-adv-x="579" 
d="M555 496l-96 -496h-124l74 382h-156l-78 -270q-34 -119 -148 -119q-31 0 -63 7l35 111q14 -6 28 -6q26 0 37 37l102 354h389z" />
    <glyph glyph-name="uni043C" unicode="&#x43c;" horiz-adv-x="669" 
d="M332 0h-110l-49 281l-55 -281h-114l97 496h134l65 -364l205 364h139l-97 -496h-114l55 281z" />
    <glyph glyph-name="uni043D" unicode="&#x43d;" horiz-adv-x="568" 
d="M222 496l-35 -179h200l35 179h122l-97 -496h-122l41 207h-200l-41 -207h-122l97 496h122z" />
    <glyph glyph-name="uni043E" unicode="&#x43e;" horiz-adv-x="612" 
d="M574 280q0 -128 -85.5 -211t-219.5 -83q-100 0 -171 63t-71 162q0 128 84 213.5t219 85.5q106 0 175 -60.5t69 -169.5zM285 104q66 0 111.5 47t45.5 118q0 57 -35 90t-93 33q-68 0 -112.5 -49.5t-44.5 -114.5q0 -59 36.5 -91.5t91.5 -32.5z" />
    <glyph glyph-name="uni043F" unicode="&#x43f;" horiz-adv-x="566" 
d="M127 0h-124l97 496h442l-97 -496h-124l75 382h-194z" />
    <glyph glyph-name="uni0440" unicode="&#x440;" horiz-adv-x="624" 
d="M-33 -204l135 700h128l-12 -61q24 32 66.5 53.5t94.5 21.5q90 0 148 -58.5t58 -164.5q0 -125 -79.5 -213t-201.5 -88q-52 0 -95 21.5t-63 53.5l-52 -265h-127zM329 392q-68 0 -112.5 -48.5t-44.5 -118.5q0 -54 35 -87.5t88 -33.5q65 0 111.5 47.5t46.5 118.5
q0 56 -34.5 89t-89.5 33z" />
    <glyph glyph-name="uni0441" unicode="&#x441;" horiz-adv-x="560" 
d="M418 193l97 -67q-46 -75 -106 -107.5t-143 -32.5q-101 0 -169 64.5t-68 170.5q0 76 32 140t102.5 106.5t167.5 42.5q76 0 129 -36t79 -99l-109 -64q-32 81 -118 81q-66 0 -109.5 -49t-43.5 -113q0 -59 33 -92.5t86 -33.5q85 0 140 89z" />
    <glyph glyph-name="uni0442" unicode="&#x442;" horiz-adv-x="460" 
d="M472 496l-22 -110h-142l-75 -386h-122l75 386h-142l22 110h406z" />
    <glyph glyph-name="uni0443" unicode="&#x443;" horiz-adv-x="546" 
d="M-26 -200l42 117q21 -12 43 -12q42 0 67 47l25 48l-107 496h136l67 -328l188 328h142l-352 -588q-41 -68 -80 -93.5t-102 -25.5q-42 0 -69 11z" />
    <glyph glyph-name="uni0444" unicode="&#x444;" horiz-adv-x="928" 
d="M609 700l-52 -267q25 36 66.5 56.5t91.5 20.5q79 0 129 -59t50 -160q0 -120 -76.5 -212.5t-195.5 -92.5q-48 0 -84.5 20.5t-53.5 50.5l-50 -261h-128l51 263q-48 -73 -147 -73q-80 0 -134 61t-54 155q0 127 74.5 217.5t194.5 90.5q100 0 139 -74l51 264h128zM666 400
q-67 0 -112 -57t-45 -133q0 -53 29 -83.5t76 -30.5q67 0 109.5 55t42.5 132q0 53 -27.5 85t-72.5 32zM299 400q-66 0 -108 -55.5t-42 -129.5q0 -53 29.5 -86t78.5 -33q64 0 107 56.5t43 133.5q0 51 -30.5 82.5t-77.5 31.5z" />
    <glyph glyph-name="uni0445" unicode="&#x445;" horiz-adv-x="490" 
d="M196 496l53 -130l102 130h149l-197 -229l116 -267h-136l-67 167l-126 -167h-151l225 274l-102 222h134z" />
    <glyph glyph-name="uni0446" unicode="&#x446;" horiz-adv-x="591" 
d="M547 496l-74 -382h45l-43 -220h-106l21 106h-385l96 496h128l-74 -382h189l74 382h129z" />
    <glyph glyph-name="uni0447" unicode="&#x447;" horiz-adv-x="550" 
d="M70 343l30 153h120l-28 -142q-4 -20 -4 -36q0 -71 73 -71q46 0 77.5 32.5t42.5 88.5l25 128h120l-97 -496h-120l39 197q-50 -60 -131 -60q-66 0 -109.5 41t-43.5 109q0 27 6 56z" />
    <glyph glyph-name="uni0448" unicode="&#x448;" horiz-adv-x="766" 
d="M482 496l-75 -382h138l75 382h122l-97 -496h-642l97 496h122l-75 -382h138l75 382h122z" />
    <glyph glyph-name="uni0449" unicode="&#x449;" horiz-adv-x="786" 
d="M742 496l-74 -382h44l-43 -220h-106l21 106h-581l97 496h122l-75 -382h138l75 382h122l-75 -382h138l75 382h122z" />
    <glyph glyph-name="uni044A" unicode="&#x44a;" horiz-adv-x="571" 
d="M237 306h108q74 0 117.5 -37t43.5 -100q0 -76 -58 -122.5t-150 -46.5h-245l78 402h-95l19 94h219zM218 210l-22 -114h102q85 0 85 64q0 50 -66 50h-99z" />
    <glyph glyph-name="uni044B" unicode="&#x44b;" horiz-adv-x="741" 
d="M492 0l96 496h128l-97 -496h-127zM188 306h108q74 0 117.5 -37t43.5 -100q0 -76 -58 -122.5t-150 -46.5h-245l97 496h124zM169 210l-22 -114h102q85 0 85 64q0 50 -66 50h-99z" />
    <glyph glyph-name="uni044C" unicode="&#x44c;" horiz-adv-x="522" 
d="M188 306h108q74 0 117.5 -37t43.5 -100q0 -76 -58 -122.5t-150 -46.5h-245l97 496h124zM169 210l-22 -114h102q85 0 85 64q0 50 -66 50h-99z" />
    <glyph glyph-name="uni044D" unicode="&#x44d;" horiz-adv-x="559" 
d="M150 199l19 98h227q-7 51 -39.5 77t-81.5 26q-86 0 -144 -85l-85 57q87 138 248 138q105 0 167 -61t62 -165q0 -58 -17 -110.5t-51 -95t-91 -67.5t-130 -25q-82 0 -141.5 41.5t-84.5 106.5l100 63q12 -43 47.5 -72t90.5 -29q112 0 143 103h-239z" />
    <glyph glyph-name="uni044E" unicode="&#x44e;" horiz-adv-x="788" 
d="M750 280q0 -128 -85.5 -211t-219.5 -83q-96 0 -163 57t-74 151h-43l-38 -194h-122l97 496h122l-38 -194h34q26 94 102 151t184 57q106 0 175 -60.5t69 -169.5zM461 104q66 0 111.5 47t45.5 118q0 57 -35 90t-93 33q-68 0 -110 -49t-42 -115q0 -59 34.5 -91.5t88.5 -32.5z
" />
    <glyph glyph-name="uni044F" unicode="&#x44f;" horiz-adv-x="531" 
d="M259 190l-144 -190h-132l159 208q-36 18 -57.5 50t-21.5 74q0 76 53.5 120t144.5 44h245l-97 -496h-124l37 190h-63zM342 290l20 106h-98q-36 0 -56.5 -15t-20.5 -41q0 -24 16.5 -37t43.5 -13h95z" />
    <glyph glyph-name="uni0450" unicode="&#x450;" horiz-adv-x="575" 
d="M528 218h-385q0 -58 32.5 -91t85.5 -33q98 0 148 89l91 -58q-43 -71 -101.5 -105t-144.5 -34q-102 0 -165.5 64t-63.5 172q0 119 82.5 203.5t208.5 84.5q105 0 164 -54.5t59 -141.5q0 -36 -6 -68zM311 414q-49 0 -89 -29t-57 -75h262q0 48 -31.5 76t-84.5 28zM349 708
l37 -158h-97l-92 158h152z" />
    <glyph glyph-name="uni0451" unicode="&#x451;" horiz-adv-x="575" 
d="M528 218h-385q0 -58 32.5 -91t85.5 -33q98 0 148 89l91 -58q-43 -71 -101.5 -105t-144.5 -34q-102 0 -165.5 64t-63.5 172q0 119 82.5 203.5t208.5 84.5q105 0 164 -54.5t59 -141.5q0 -36 -6 -68zM311 414q-49 0 -89 -29t-57 -75h262q0 48 -31.5 76t-84.5 28zM357 576
l25 124h118l-25 -124h-118zM177 576l25 124h118l-25 -124h-118z" />
    <glyph glyph-name="uni0452" unicode="&#x452;" horiz-adv-x="599" 
d="M50 552l18 96h62l10 52h128l-10 -52h158l-18 -96h-159l-24 -127q58 85 172 85q74 0 117.5 -38t43.5 -103q0 -18 -4 -41l-72 -372q-32 -167 -190 -167q-43 0 -73 10l33 114q18 -8 37 -8q30 0 45.5 17t22.5 54l60 307q2 12 2 24q0 39 -21 62t-61 23q-55 0 -94.5 -37
t-53.5 -108l-48 -247h-127l107 552h-61z" />
    <glyph glyph-name="uni0453" unicode="&#x453;" horiz-adv-x="434" 
d="M4 0l97 496h340l-22 -114h-212l-75 -382h-128zM215 550l95 158h155l-149 -158h-101z" />
    <glyph glyph-name="uni0454" unicode="&#x454;" horiz-adv-x="569" 
d="M275 96q92 0 152 95l87 -61q-45 -73 -106 -108.5t-149 -35.5q-96 0 -163 61.5t-67 167.5q0 123 82.5 209t220.5 86q159 0 216 -134l-105 -58q-32 82 -122 82q-58 0 -100 -27t-60 -76h241l-19 -98h-233q15 -103 125 -103z" />
    <glyph glyph-name="uni0455" unicode="&#x455;" horiz-adv-x="500" 
d="M264 418q-31 0 -52.5 -12.5t-21.5 -36.5q0 -43 97 -65q76 -18 112.5 -52t36.5 -92q0 -78 -58.5 -126t-159.5 -48q-78 0 -134 43.5t-72 107.5l100 58q22 -103 121 -103q36 0 60 15t24 42q0 25 -23.5 38.5t-76.5 27.5q-141 37 -141 147q0 64 53 106t142 42q149 0 191 -123
l-91 -49q-33 80 -107 80z" />
    <glyph glyph-name="uni0456" unicode="&#x456;" horiz-adv-x="250" 
d="M3 0l96 496h128l-97 -496h-127zM107 568l26 132h140l-26 -132h-140z" />
    <glyph glyph-name="uni0457" unicode="&#x457;" horiz-adv-x="250" 
d="M3 0l96 496h128l-97 -496h-127zM208 576l25 124h118l-25 -124h-118zM28 576l25 124h118l-25 -124h-118z" />
    <glyph glyph-name="uni0458" unicode="&#x458;" horiz-adv-x="250" 
d="M-140 -201l33 114q18 -8 37 -8q30 0 45.5 17t22.5 54l101 520h128l-104 -540q-32 -167 -190 -167q-43 0 -73 10zM107 568l26 132h140l-26 -132h-140z" />
    <glyph glyph-name="uni0459" unicode="&#x459;" horiz-adv-x="815" 
d="M481 306h108q74 0 117.5 -37t43.5 -100q0 -76 -58 -122.5t-150 -46.5h-245l75 382h-119l-78 -270q-34 -119 -148 -119q-31 0 -63 7l35 111q14 -6 28 -6q26 0 37 37l102 354h352zM462 210l-22 -114h102q85 0 85 64q0 50 -66 50h-99z" />
    <glyph glyph-name="uni045A" unicode="&#x45a;" horiz-adv-x="840" 
d="M501 311h114q76 0 118 -35.5t42 -95.5q0 -84 -59.5 -132t-157.5 -48h-240l41 208h-193l-41 -208h-121l97 496h121l-36 -185h193l36 185h122zM481 208l-22 -112h107q34 0 59.5 17t25.5 48q0 47 -63 47h-107z" />
    <glyph glyph-name="uni045B" unicode="&#x45b;" horiz-adv-x="600" 
d="M50 552l18 96h62l10 52h128l-10 -52h158l-18 -96h-159l-24 -127q26 38 72.5 61.5t99.5 23.5q74 0 117.5 -38t43.5 -103q0 -18 -4 -41l-65 -328h-128l56 283q2 12 2 24q0 39 -21 62t-61 23q-55 0 -94.5 -37t-53.5 -108l-48 -247h-127l107 552h-61z" />
    <glyph glyph-name="uni045C" unicode="&#x45c;" horiz-adv-x="540" 
d="M101 496h128l-28 -149l167 149h163l-212 -185l139 -311h-134l-106 229l-49 -43l-37 -186h-127zM227 550l95 158h155l-149 -158h-101z" />
    <glyph glyph-name="uni045D" unicode="&#x45d;" horiz-adv-x="582" 
d="M222 496l-62 -319l268 319h130l-97 -496h-122l62 320l-266 -320h-132l97 496h122zM359 708l37 -158h-97l-92 158h152z" />
    <glyph glyph-name="uni045E" unicode="&#x45e;" horiz-adv-x="546" 
d="M-26 -200l42 117q21 -12 43 -12q42 0 67 47l25 48l-107 496h136l67 -328l188 328h142l-352 -588q-41 -68 -80 -93.5t-102 -25.5q-42 0 -69 11zM369 677h76q-16 -113 -131 -113q-44 0 -71.5 26t-27.5 66q0 9 2 21h77q-1 -3 -1 -10q0 -33 30 -33q34 0 46 43z" />
    <glyph glyph-name="uni045F" unicode="&#x45f;" horiz-adv-x="566" 
d="M448 0h-172l-21 -106h-102l21 106h-172l96 496h128l-74 -382h190l74 382h128z" />
    <glyph glyph-name="endash" unicode="&#x2013;" horiz-adv-x="578" 
d="M33 260l19 102h498l-19 -102h-498z" />
    <glyph glyph-name="emdash" unicode="&#x2014;" horiz-adv-x="848" 
d="M33 260l19 102h768l-19 -102h-768z" />
    <glyph glyph-name="quoteleft" unicode="&#x2018;" horiz-adv-x="214" 
d="M222 553l-26 -134h-134l26 134l152 154l22 -21l-92 -133h52z" />
    <glyph glyph-name="quoteright" unicode="&#x2019;" horiz-adv-x="214" 
d="M91 566l26 134h134l-26 -134l-152 -154l-22 21l92 133h-52z" />
    <glyph glyph-name="quotesinglbase" unicode="&#x201a;" horiz-adv-x="214" 
d="M-18 0l26 134h134l-26 -134l-152 -154l-22 21l92 133h-52z" />
    <glyph glyph-name="quotedblleft" unicode="&#x201c;" horiz-adv-x="389" 
d="M222 553l-26 -134h-134l26 134l152 154l22 -21l-92 -133h52zM397 553l-26 -134h-134l26 134l152 154l22 -21l-92 -133h52z" />
    <glyph glyph-name="quotedblright" unicode="&#x201d;" horiz-adv-x="389" 
d="M266 566l26 134h134l-26 -134l-152 -154l-22 21l92 133h-52zM91 566l26 134h134l-26 -134l-152 -154l-22 21l92 133h-52z" />
    <glyph glyph-name="quotedblbase" unicode="&#x201e;" horiz-adv-x="389" 
d="M157 0l26 134h134l-26 -134l-152 -154l-22 21l92 133h-52zM-18 0l26 134h134l-26 -134l-152 -154l-22 21l92 133h-52z" />
    <glyph glyph-name="dagger" unicode="&#x2020;" horiz-adv-x="468" 
d="M59 394l20 102h132l47 244h122l-47 -244h134l-20 -102h-134l-98 -504h-122l98 504h-132z" />
    <glyph glyph-name="daggerdbl" unicode="&#x2021;" horiz-adv-x="468" 
d="M59 394l20 102h132l47 244h122l-47 -244h134l-20 -102h-134l-31 -158h134l-20 -102h-134l-47 -244h-122l47 244h-132l20 102h132l31 158h-132z" />
    <glyph glyph-name="bullet" unicode="&#x2022;" horiz-adv-x="326" 
d="M43 275q0 50 35 85t85 35t85 -35t35 -85t-35 -85t-85 -35t-85 35t-35 85z" />
    <glyph glyph-name="ellipsis" unicode="&#x2026;" 
d="M-18 0l27 134h134l-27 -134h-134zM172 0l27 134h134l-27 -134h-134zM362 0l27 134h134l-27 -134h-134z" />
    <glyph glyph-name="perthousand" unicode="&#x2030;" horiz-adv-x="1136" 
d="M459 142q0 80 55 137t141 57q82 0 126 -52q55 52 135 52q74 0 117 -41.5t43 -111.5q0 -82 -56 -139.5t-142 -57.5q-77 0 -123 54q-56 -54 -138 -54q-67 0 -112.5 44t-45.5 112zM88 520q0 80 55 137t141 57q74 0 117 -41.5t43 -111.5q0 -82 -56 -139.5t-142 -57.5
q-67 0 -112.5 44t-45.5 112zM279 628q-42 0 -69.5 -29.5t-27.5 -74.5q0 -33 20.5 -53.5t53.5 -20.5q40 0 67 29t27 74q0 32 -19.5 53.5t-51.5 21.5zM650 250q-42 0 -69.5 -29.5t-27.5 -74.5q0 -33 20.5 -53.5t53.5 -20.5q40 0 67 29t27 74q0 32 -19.5 53.5t-51.5 21.5z
M911 250q-42 0 -69.5 -29.5t-27.5 -74.5q0 -33 20.5 -53.5t53.5 -20.5q40 0 67 29t27 74q0 32 -19.5 53.5t-51.5 21.5zM201 -7l-63 56l565 658l63 -56z" />
    <glyph glyph-name="guilsinglleft" unicode="&#x2039;" horiz-adv-x="378" 
d="M251 489h148l-213 -218l121 -208h-139l-126 212z" />
    <glyph glyph-name="guilsinglright" unicode="&#x203a;" horiz-adv-x="378" 
d="M133 63h-148l213 218l-121 208h139l126 -212z" />
    <glyph glyph-name="fraction" unicode="&#x2044;" horiz-adv-x="541" 
d="M28 -7l-63 56l565 658l63 -56z" />
    <glyph glyph-name="zerosuperior" unicode="&#x2070;" horiz-adv-x="388" 
d="M402 553q0 -91 -52 -150.5t-137 -59.5q-58 0 -100 41.5t-42 112.5q0 84 51 147t140 63q64 0 102 -39.5t38 -114.5zM223 419q43 0 69 35.5t26 90.5q0 40 -17.5 63t-47.5 23q-43 0 -70 -39.5t-27 -88.5q0 -40 18 -62t49 -22z" />
    <glyph glyph-name="foursuperior" unicode="&#x2074;" horiz-adv-x="374" 
d="M48 408l13 66l206 226h84l-44 -226h36l-13 -66h-36l-12 -58h-84l12 58h-162zM244 581l-98 -107h77z" />
    <glyph glyph-name="fivesuperior" unicode="&#x2075;" horiz-adv-x="354" 
d="M83 512l50 188h237l-13 -66h-169l-22 -69q26 24 76 24q48 0 76 -29t28 -76q0 -66 -42.5 -103.5t-112.5 -37.5q-55 0 -89 27.5t-34 67.5q0 21 9 39l80 -15q-4 -7 -4 -17q0 -35 45 -35q28 0 46.5 19t18.5 46q0 24 -15 38.5t-36 14.5q-39 0 -68 -35z" />
    <glyph glyph-name="sixsuperior" unicode="&#x2076;" horiz-adv-x="354" 
d="M350 587l-72 15q5 10 5 18q0 26 -36 26q-32 0 -54.5 -28.5t-29.5 -72.5q28 33 80 33q45 0 75.5 -26.5t30.5 -69.5q0 -61 -39 -100t-102 -39q-62 0 -96 40.5t-34 108.5q0 81 46.5 148t130.5 67q50 0 77.5 -23t27.5 -56q0 -18 -10 -41zM220 516q-27 0 -44.5 -18t-17.5 -44
q0 -22 15 -35t36 -13q28 0 45.5 17.5t17.5 46.5q0 20 -14.5 33t-37.5 13z" />
    <glyph glyph-name="sevensuperior" unicode="&#x2077;" horiz-adv-x="309" 
d="M339 637l-191 -287h-85l190 284h-154l13 66h240z" />
    <glyph glyph-name="eightsuperior" unicode="&#x2078;" horiz-adv-x="334" 
d="M185 343q-53 0 -87 30t-34 72q0 66 71 98q-29 25 -29 62q0 44 35.5 73t92.5 29q51 0 81.5 -24t30.5 -63q0 -28 -15.5 -50.5t-40.5 -34.5q37 -25 37 -70q0 -57 -38.5 -89.5t-103.5 -32.5zM193 403q22 0 37.5 16t15.5 41q0 20 -11.5 32.5t-33.5 12.5q-23 0 -38.5 -16.5
t-15.5 -40.5q0 -20 13.5 -32.5t32.5 -12.5zM231 653q-22 0 -36.5 -13.5t-14.5 -34.5q0 -18 11 -29t28 -11q22 0 37 14t15 36q0 18 -11.5 28t-28.5 10z" />
    <glyph glyph-name="ninesuperior" unicode="&#x2079;" horiz-adv-x="340" 
d="M84 463l72 -15q-5 -8 -5 -18q0 -11 10 -18.5t27 -7.5q33 0 55 28.5t28 73.5q-29 -34 -75 -34t-79 28t-33 77q0 56 38.5 93t103.5 37q62 0 95.5 -39t33.5 -109q0 -87 -45 -151.5t-130 -64.5q-46 0 -76 23t-30 56q0 21 10 41zM212 534q28 0 45.5 17.5t17.5 45.5
q0 21 -15 34t-37 13q-27 0 -45 -17t-18 -46q0 -21 15 -34t37 -13z" />
    <glyph glyph-name="zeroinferior" unicode="&#x2080;" horiz-adv-x="388" 
d="M297 -1q0 -91 -52 -150.5t-137 -59.5q-58 0 -100 41.5t-42 112.5q0 84 51 147t140 63q64 0 102 -39.5t38 -114.5zM118 -135q43 0 69 35.5t26 90.5q0 40 -17.5 63t-47.5 23q-43 0 -70 -39.5t-27 -88.5q0 -40 18 -62t49 -22z" />
    <glyph glyph-name="oneinferior" unicode="&#x2081;" horiz-adv-x="254" 
d="M-10 26l15 77q57 0 87 43h82l-69 -350h-86l49 251q-28 -21 -78 -21z" />
    <glyph glyph-name="twoinferior" unicode="&#x2082;" horiz-adv-x="339" 
d="M-33 -155l157 129q43 35 43 70q0 38 -43 38q-22 0 -35 -15t-13 -35q0 -7 1 -12l-82 -11q-2 10 -2 24q0 49 35.5 84.5t101.5 35.5q54 0 89 -26.5t35 -71.5q0 -35 -17.5 -64t-56.5 -61l-79 -65h122l-13 -69h-252z" />
    <glyph glyph-name="threeinferior" unicode="&#x2083;" horiz-adv-x="359" 
d="M-12 -68l79 -18q-5 -12 -5 -21q0 -15 12.5 -25t32.5 -10q24 0 39 14.5t15 37.5q0 41 -73 41l11 60q76 0 76 45q0 31 -40 31q-18 0 -30.5 -11t-12.5 -28q0 -6 1 -11l-79 -10q-2 9 -2 19q0 49 37 78t94 29q52 0 84 -23t32 -56q0 -59 -55 -85q44 -22 44 -74q0 -57 -40 -91.5
t-107 -34.5q-54 0 -89.5 28.5t-35.5 68.5q0 25 12 46z" />
    <glyph glyph-name="fourinferior" unicode="&#x2084;" horiz-adv-x="374" 
d="M-32 -146l13 66l206 226h84l-44 -226h36l-13 -66h-36l-12 -58h-84l12 58h-162zM164 27l-98 -107h77z" />
    <glyph glyph-name="fiveinferior" unicode="&#x2085;" horiz-adv-x="354" 
d="M-17 -42l50 188h237l-13 -66h-169l-22 -69q26 24 76 24q48 0 76 -29t28 -76q0 -66 -42.5 -103.5t-112.5 -37.5q-55 0 -89 27.5t-34 67.5q0 21 9 39l80 -15q-4 -7 -4 -17q0 -35 45 -35q28 0 46.5 19t18.5 46q0 24 -15 38.5t-36 14.5q-39 0 -68 -35z" />
    <glyph glyph-name="sixinferior" unicode="&#x2086;" horiz-adv-x="354" 
d="M251 33l-72 15q5 10 5 18q0 26 -36 26q-32 0 -54.5 -28.5t-29.5 -72.5q28 33 80 33q45 0 75.5 -26.5t30.5 -69.5q0 -61 -39 -100t-102 -39q-62 0 -96 40.5t-34 108.5q0 81 46.5 148t130.5 67q50 0 77.5 -23t27.5 -56q0 -18 -10 -41zM121 -38q-27 0 -44.5 -18t-17.5 -44
q0 -22 15 -35t36 -13q28 0 45.5 17.5t17.5 46.5q0 20 -14.5 33t-37.5 13z" />
    <glyph glyph-name="seveninferior" unicode="&#x2087;" horiz-adv-x="309" 
d="M229 83l-191 -287h-85l190 284h-154l13 66h240z" />
    <glyph glyph-name="eightinferior" unicode="&#x2088;" horiz-adv-x="334" 
d="M86 -211q-53 0 -87 30t-34 72q0 66 71 98q-29 25 -29 62q0 44 35.5 73t92.5 29q51 0 81.5 -24t30.5 -63q0 -28 -15.5 -50.5t-40.5 -34.5q37 -25 37 -70q0 -57 -38.5 -89.5t-103.5 -32.5zM94 -151q22 0 37.5 16t15.5 41q0 20 -11.5 32.5t-33.5 12.5q-23 0 -38.5 -16.5
t-15.5 -40.5q0 -20 13.5 -32.5t32.5 -12.5zM132 99q-22 0 -36.5 -13.5t-14.5 -34.5q0 -18 11 -29t28 -11q22 0 37 14t15 36q0 18 -11.5 28t-28.5 10z" />
    <glyph glyph-name="nineinferior" unicode="&#x2089;" horiz-adv-x="340" 
d="M-18 -91l72 -15q-5 -8 -5 -18q0 -11 10 -18.5t27 -7.5q33 0 55 28.5t28 73.5q-29 -34 -75 -34t-79 28t-33 77q0 56 38.5 93t103.5 37q62 0 95.5 -39t33.5 -109q0 -87 -45 -151.5t-130 -64.5q-46 0 -76 23t-30 56q0 21 10 41zM110 -20q28 0 45.5 17.5t17.5 45.5
q0 21 -15 34t-37 13q-27 0 -45 -17t-18 -46q0 -21 15 -34t37 -13z" />
    <glyph glyph-name="Euro" unicode="&#x20ac;" horiz-adv-x="788" 
d="M608 254l111 -42q-53 -116 -132.5 -171t-195.5 -55q-112 0 -184.5 64.5t-92.5 178.5h-93l60 92h27q1 28 6 58h-64l60 92h32q46 106 138.5 174.5t219.5 68.5q110 0 179 -51.5t93 -147.5l-121 -51q-33 128 -168 128q-68 0 -121.5 -32t-85.5 -89h290l-60 -92h-262
q-6 -30 -6 -58h299l-60 -92h-227q18 -59 58 -90t96 -31q139 0 204 146z" />
    <glyph glyph-name="trademark" unicode="&#x2122;" horiz-adv-x="860" 
d="M95 626l14 74h320l-14 -74h-119l-63 -326h-82l63 326h-119zM391 300l77 400h89l65 -301l175 301h95l-77 -400h-82l43 224l-129 -224h-81l-50 224l-43 -224h-82z" />
    <glyph glyph-name="Omega" unicode="&#x2126;" horiz-adv-x="784" 
d="M680 96l-19 -96h-286l21 110q101 45 164 123.5t63 174.5q0 83 -54 133.5t-140 50.5q-108 0 -177.5 -71t-69.5 -174q0 -151 120 -237l-21 -110h-287l18 96h146q-44 44 -76 109t-32 143q0 149 107 257.5t286 108.5q141 0 227.5 -78t86.5 -204q0 -102 -58 -189.5
t-150 -146.5h131z" />
    <glyph glyph-name="onethird" unicode="&#x2153;" horiz-adv-x="756" 
d="M433 136l79 -18q-5 -12 -5 -21q0 -15 12.5 -25t32.5 -10q24 0 39 14.5t15 37.5q0 41 -73 41l11 60q76 0 76 45q0 31 -40 31q-18 0 -30.5 -11t-12.5 -28q0 -6 1 -11l-79 -10q-2 9 -2 19q0 49 37 78t94 29q52 0 84 -23t32 -56q0 -59 -55 -85q44 -22 44 -74q0 -57 -40 -91.5
t-107 -34.5q-54 0 -89.5 28.5t-35.5 68.5q0 25 12 46zM114 -7l-63 56l565 658l63 -56zM78 580l15 77q57 0 87 43h82l-69 -350h-86l49 251q-28 -21 -78 -21z" />
    <glyph glyph-name="twothirds" unicode="&#x2154;" horiz-adv-x="832" 
d="M505 136l79 -18q-5 -12 -5 -21q0 -15 12.5 -25t32.5 -10q24 0 39 14.5t15 37.5q0 41 -73 41l11 60q76 0 76 45q0 31 -40 31q-18 0 -30.5 -11t-12.5 -28q0 -6 1 -11l-79 -10q-2 9 -2 19q0 49 37 78t94 29q52 0 84 -23t32 -56q0 -59 -55 -85q44 -22 44 -74q0 -57 -40 -91.5
t-107 -34.5q-54 0 -89.5 28.5t-35.5 68.5q0 25 12 46zM195 -7l-63 56l565 658l63 -56zM65 399l157 129q43 35 43 70q0 38 -43 38q-22 0 -35 -15t-13 -35q0 -7 1 -12l-82 -11q-2 10 -2 24q0 49 35.5 84.5t101.5 35.5q54 0 89 -26.5t35 -71.5q0 -35 -17.5 -64t-56.5 -61
l-79 -65h122l-13 -69h-252z" />
    <glyph glyph-name="oneeighth" unicode="&#x215b;" horiz-adv-x="755" 
d="M77 580l15 77q57 0 87 43h82l-69 -350h-86l49 251q-28 -21 -78 -21zM120 -7l-63 56l565 658l63 -56zM536 -7q-53 0 -87 30t-34 72q0 66 71 98q-29 25 -29 62q0 44 35.5 73t92.5 29q51 0 81.5 -24t30.5 -63q0 -28 -15.5 -50.5t-40.5 -34.5q37 -25 37 -70
q0 -57 -38.5 -89.5t-103.5 -32.5zM544 53q22 0 37.5 16t15.5 41q0 20 -11.5 32.5t-33.5 12.5q-23 0 -38.5 -16.5t-15.5 -40.5q0 -20 13.5 -32.5t32.5 -12.5zM582 303q-22 0 -36.5 -13.5t-14.5 -34.5q0 -18 11 -29t28 -11q22 0 37 14t15 36q0 18 -11.5 28t-28.5 10z" />
    <glyph glyph-name="threeeighths" unicode="&#x215c;" horiz-adv-x="814" 
d="M594 -7q-53 0 -87 30t-34 72q0 66 71 98q-29 25 -29 62q0 44 35.5 73t92.5 29q51 0 81.5 -24t30.5 -63q0 -28 -15.5 -50.5t-40.5 -34.5q37 -25 37 -70q0 -57 -38.5 -89.5t-103.5 -32.5zM602 53q22 0 37.5 16t15.5 41q0 20 -11.5 32.5t-33.5 12.5q-23 0 -38.5 -16.5
t-15.5 -40.5q0 -20 13.5 -32.5t32.5 -12.5zM640 303q-22 0 -36.5 -13.5t-14.5 -34.5q0 -18 11 -29t28 -11q22 0 37 14t15 36q0 18 -11.5 28t-28.5 10zM179 -7l-63 56l565 658l63 -56zM72 486l79 -18q-5 -12 -5 -21q0 -15 12.5 -25t32.5 -10q24 0 39 14.5t15 37.5
q0 41 -73 41l11 60q76 0 76 45q0 31 -40 31q-18 0 -30.5 -11t-12.5 -28q0 -6 1 -11l-79 -10q-2 9 -2 19q0 49 37 78t94 29q52 0 84 -23t32 -56q0 -59 -55 -85q44 -22 44 -74q0 -57 -40 -91.5t-107 -34.5q-54 0 -89.5 28.5t-35.5 68.5q0 25 12 46z" />
    <glyph glyph-name="fiveeighths" unicode="&#x215d;" horiz-adv-x="816" 
d="M174 -7l-63 56l565 658l63 -56zM594 -7q-53 0 -87 30t-34 72q0 66 71 98q-29 25 -29 62q0 44 35.5 73t92.5 29q51 0 81.5 -24t30.5 -63q0 -28 -15.5 -50.5t-40.5 -34.5q37 -25 37 -70q0 -57 -38.5 -89.5t-103.5 -32.5zM602 53q22 0 37.5 16t15.5 41q0 20 -11.5 32.5
t-33.5 12.5q-23 0 -38.5 -16.5t-15.5 -40.5q0 -20 13.5 -32.5t32.5 -12.5zM640 303q-22 0 -36.5 -13.5t-14.5 -34.5q0 -18 11 -29t28 -11q22 0 37 14t15 36q0 18 -11.5 28t-28.5 10zM72 512l50 188h237l-13 -66h-169l-22 -69q26 24 76 24q48 0 76 -29t28 -76
q0 -66 -42.5 -103.5t-112.5 -37.5q-55 0 -89 27.5t-34 67.5q0 21 9 39l80 -15q-4 -7 -4 -17q0 -35 45 -35q28 0 46.5 19t18.5 46q0 24 -15 38.5t-36 14.5q-39 0 -68 -35z" />
    <glyph glyph-name="seveneighths" unicode="&#x215e;" horiz-adv-x="760" 
d="M110 -7l-63 56l565 658l63 -56zM536 -7q-53 0 -87 30t-34 72q0 66 71 98q-29 25 -29 62q0 44 35.5 73t92.5 29q51 0 81.5 -24t30.5 -63q0 -28 -15.5 -50.5t-40.5 -34.5q37 -25 37 -70q0 -57 -38.5 -89.5t-103.5 -32.5zM544 53q22 0 37.5 16t15.5 41q0 20 -11.5 32.5
t-33.5 12.5q-23 0 -38.5 -16.5t-15.5 -40.5q0 -20 13.5 -32.5t32.5 -12.5zM582 303q-22 0 -36.5 -13.5t-14.5 -34.5q0 -18 11 -29t28 -11q22 0 37 14t15 36q0 18 -11.5 28t-28.5 10zM347 637l-191 -287h-85l190 284h-154l13 66h240z" />
    <glyph glyph-name="arrowleft" unicode="&#x2190;" horiz-adv-x="595" 
d="M314 150l-80 -70l-187 232l275 231l62 -76l-126 -105h307l-19 -102h-320z" />
    <glyph glyph-name="arrowup" unicode="&#x2191;" horiz-adv-x="538" 
d="M514 391l-83 -70l-86 107l-61 -312h-102l60 307l-126 -104l-59 73l276 229z" />
    <glyph glyph-name="arrowright" unicode="&#x2192;" horiz-adv-x="595" 
d="M284 472l80 70l187 -232l-275 -231l-62 76l126 105h-307l19 102h320z" />
    <glyph glyph-name="arrowdown" unicode="&#x2193;" horiz-adv-x="538" 
d="M50 346l83 70l86 -107l61 312h102l-60 -307l126 104l59 -73l-276 -229z" />
    <glyph glyph-name="arrowboth" unicode="&#x2194;" horiz-adv-x="800" 
d="M487 472l80 70l187 -232l-275 -231l-62 76l126 105h-318l88 -110l-80 -70l-187 232l275 231l62 -76l-126 -105h318z" />
    <glyph glyph-name="arrowupdn" unicode="&#x2195;" horiz-adv-x="538" 
d="M27 226l83 70l86 -107l62 317l-126 -104l-59 73l276 229l181 -230l-83 -70l-86 107l-62 -317l126 104l59 -73l-276 -229z" />
    <glyph glyph-name="uni2196" unicode="&#x2196;" horiz-adv-x="541" 
d="M153 162h-100l64 327h327l-21 -106h-155l176 -218l-81 -70l-180 221z" />
    <glyph glyph-name="uni2197" unicode="&#x2197;" horiz-adv-x="541" 
d="M436 162h-106l30 152l-261 -221l-58 72l257 218h-146l21 106h327z" />
    <glyph glyph-name="uni2198" unicode="&#x2198;" horiz-adv-x="541" 
d="M388 435h100l-64 -327h-327l21 106h155l-176 218l81 70l180 -221z" />
    <glyph glyph-name="uni2199" unicode="&#x2199;" horiz-adv-x="541" 
d="M110 435h106l-30 -152l261 221l58 -72l-257 -218h146l-21 -106h-327z" />
    <glyph glyph-name="partialdiff" unicode="&#x2202;" horiz-adv-x="591" 
d="M319 614q-35 0 -61 -16t-26 -42q0 -6 1 -12l-116 -48q-9 22 -9 49q0 76 63 122.5t158 46.5q123 0 176.5 -82t53.5 -248q0 -83 -18 -153.5t-54.5 -126t-97 -87t-139.5 -31.5q-94 0 -157.5 60t-63.5 154q0 110 76.5 186t195.5 76q101 0 145 -61q0 99 -32.5 156t-94.5 57z
M305 356q-64 0 -106 -45t-42 -106q0 -51 32 -82t80 -31q64 0 107.5 43.5t43.5 107.5q0 52 -33 82.5t-82 30.5z" />
    <glyph glyph-name="Delta" unicode="&#x2206;" horiz-adv-x="704" 
d="M640 0h-694l416 700h132zM364 469l-201 -351h316l-63 351q-7 34 -12 76z" />
    <glyph glyph-name="product" unicode="&#x220f;" horiz-adv-x="686" 
d="M-24 -204l174 904h540l-175 -904h-130l152 782h-278l-153 -782h-130z" />
    <glyph glyph-name="summation" unicode="&#x2211;" horiz-adv-x="585" 
d="M228 290l-130 288l24 122h501l-24 -122h-346l128 -299l-244 -277h357l-24 -122h-516l24 122z" />
    <glyph glyph-name="minus" unicode="&#x2212;" horiz-adv-x="564" 
d="M40 314l19 102h484l-19 -102h-484z" />
    <glyph glyph-name="radical" unicode="&#x221a;" horiz-adv-x="628" 
d="M292 0h-126l-44 256h-104l20 100h202l25 -176l294 520h130z" />
    <glyph glyph-name="infinity" unicode="&#x221e;" horiz-adv-x="774" 
d="M37 282q0 76 55.5 131.5t144.5 55.5q97 0 157 -94q94 94 186 94q76 0 116.5 -41t40.5 -108q0 -84 -55 -136.5t-150 -52.5q-87 0 -148 90q-84 -90 -187 -90q-78 0 -119 41t-41 110zM234 381q-39 0 -68 -29t-29 -68q0 -29 18.5 -47t50.5 -18q53 0 127 89q-46 73 -99 73z
M569 381q-20 0 -42.5 -14t-37.5 -30t-42 -47q23 -35 46 -53t53 -18q33 0 61.5 26.5t28.5 70.5q0 28 -18 46.5t-49 18.5z" />
    <glyph glyph-name="integral" unicode="&#x222b;" horiz-adv-x="353" 
d="M36 -40l118 609q17 89 70.5 135t135.5 46q37 0 64 -11l-33 -112q-20 7 -42 7q-55 0 -69 -67l-119 -612q-33 -173 -192 -173q-38 0 -66 11l38 113q16 -8 34 -8q49 0 61 62z" />
    <glyph glyph-name="approxequal" unicode="&#x2248;" horiz-adv-x="461" 
d="M187 425q-14 0 -22.5 -9t-8.5 -24q0 -5 2 -15l-91 -16q-7 19 -7 41q0 50 32 83t92 33q38 0 65.5 -16t45.5 -31.5t33 -15.5t24 8.5t9 23.5q0 1 -3 16l91 16q7 -14 7 -40q0 -58 -32.5 -87.5t-91.5 -29.5q-39 0 -66.5 16t-45 31.5t-33.5 15.5zM155 245q-14 0 -22.5 -9
t-8.5 -24q0 -5 2 -15l-91 -16q-7 19 -7 41q0 50 32 83t92 33q38 0 65.5 -16t45.5 -31.5t33 -15.5t24 8.5t9 23.5q0 1 -3 16l91 16q7 -14 7 -40q0 -58 -32.5 -87.5t-91.5 -29.5q-39 0 -66.5 16t-45 31.5t-33.5 15.5z" />
    <glyph glyph-name="notequal" unicode="&#x2260;" horiz-adv-x="564" 
d="M38 107l69 87h-87l20 102h148l78 98h-207l20 102h268l119 149l80 -67l-66 -82h83l-20 -102h-145l-79 -98h205l-20 -102h-267l-122 -152z" />
    <glyph glyph-name="lessequal" unicode="&#x2264;" horiz-adv-x="564" 
d="M54 358l20 104l480 217l-28 -139l-315 -135l263 -134l-26 -128zM-15 0l19 102h484l-19 -102h-484z" />
    <glyph glyph-name="greaterequal" unicode="&#x2265;" horiz-adv-x="564" 
d="M548 464l-20 -104l-480 -217l28 139l315 135l-263 134l26 128zM-15 0l19 102h484l-19 -102h-484z" />
    <glyph glyph-name="lozenge" unicode="&#x25ca;" horiz-adv-x="606" 
d="M593 350l-285 -350h-128l-147 350l284 350h128zM261 110l200 249l-97 231l-200 -245z" />
    <glyph glyph-name="apple" unicode="&#xf8ff;" horiz-adv-x="748" 
d="M670 617v-595q0 -9 -6.5 -15.5t-15.5 -6.5q-3 0 -7 1l-267 77l-267 -77q-4 -1 -7 -1q-9 0 -15.5 6.5t-6.5 15.5v595q0 17 16 22l270 78q6 2 10 2t10 -2l270 -78q16 -5 16 -22zM352 366v303l-230 -67q6 -94 71.5 -161t158.5 -75zM396 669v-303q93 8 158.5 75t71.5 161z
M121 463v-412l231 67v204q-73 6 -134 43.5t-97 97.5zM627 51v412q-37 -60 -97.5 -97.5t-133.5 -43.5v-204z" />
    <glyph glyph-name="a.alt" horiz-adv-x="567" 
d="M467 0h-130q-12 21 -12 49q0 15 4 30q-29 -49 -66 -71t-93 -22q-65 0 -110.5 39t-45.5 105q0 73 52.5 119t147.5 58l158 20l2 10q2 14 2 22q0 30 -22.5 46.5t-62.5 16.5q-39 0 -65.5 -15.5t-26.5 -40.5q0 -8 3 -13l-123 -37q-4 14 -4 28q0 78 61 122t163 44
q98 0 149.5 -41.5t51.5 -108.5q0 -22 -5 -49l-37 -188q-6 -33 -6 -57q0 -34 15 -66zM212 88q54 0 91.5 38t49.5 104l2 11l-123 -15q-43 -5 -66.5 -25t-23.5 -52q0 -29 19 -45t51 -16z" />
    <glyph glyph-name="aacute.alt" horiz-adv-x="567" 
d="M467 0h-130q-12 21 -12 49q0 15 4 30q-29 -49 -66 -71t-93 -22q-65 0 -110.5 39t-45.5 105q0 73 52.5 119t147.5 58l158 20l2 10q2 14 2 22q0 30 -22.5 46.5t-62.5 16.5q-39 0 -65.5 -15.5t-26.5 -40.5q0 -8 3 -13l-123 -37q-4 14 -4 28q0 78 61 122t163 44
q98 0 149.5 -41.5t51.5 -108.5q0 -22 -5 -49l-37 -188q-6 -33 -6 -57q0 -34 15 -66zM212 88q54 0 91.5 38t49.5 104l2 11l-123 -15q-43 -5 -66.5 -25t-23.5 -52q0 -29 19 -45t51 -16zM240 550l95 158h155l-149 -158h-101z" />
    <glyph glyph-name="acircumflex.alt" horiz-adv-x="567" 
d="M467 0h-130q-12 21 -12 49q0 15 4 30q-29 -49 -66 -71t-93 -22q-65 0 -110.5 39t-45.5 105q0 73 52.5 119t147.5 58l158 20l2 10q2 14 2 22q0 30 -22.5 46.5t-62.5 16.5q-39 0 -65.5 -15.5t-26.5 -40.5q0 -8 3 -13l-123 -37q-4 14 -4 28q0 78 61 122t163 44
q98 0 149.5 -41.5t51.5 -108.5q0 -22 -5 -49l-37 -188q-6 -33 -6 -57q0 -34 15 -66zM212 88q54 0 91.5 38t49.5 104l2 11l-123 -15q-43 -5 -66.5 -25t-23.5 -52q0 -29 19 -45t51 -16zM161 550l143 157h92l82 -157h-93l-52 60l-73 -60h-99z" />
    <glyph glyph-name="adieresis.alt" horiz-adv-x="567" 
d="M467 0h-130q-12 21 -12 49q0 15 4 30q-29 -49 -66 -71t-93 -22q-65 0 -110.5 39t-45.5 105q0 73 52.5 119t147.5 58l158 20l2 10q2 14 2 22q0 30 -22.5 46.5t-62.5 16.5q-39 0 -65.5 -15.5t-26.5 -40.5q0 -8 3 -13l-123 -37q-4 14 -4 28q0 78 61 122t163 44
q98 0 149.5 -41.5t51.5 -108.5q0 -22 -5 -49l-37 -188q-6 -33 -6 -57q0 -34 15 -66zM212 88q54 0 91.5 38t49.5 104l2 11l-123 -15q-43 -5 -66.5 -25t-23.5 -52q0 -29 19 -45t51 -16zM349 576l25 124h118l-25 -124h-118zM169 576l25 124h118l-25 -124h-118z" />
    <glyph glyph-name="atilde.alt" horiz-adv-x="567" 
d="M467 0h-130q-12 21 -12 49q0 15 4 30q-29 -49 -66 -71t-93 -22q-65 0 -110.5 39t-45.5 105q0 73 52.5 119t147.5 58l158 20l2 10q2 14 2 22q0 30 -22.5 46.5t-62.5 16.5q-39 0 -65.5 -15.5t-26.5 -40.5q0 -8 3 -13l-123 -37q-4 14 -4 28q0 78 61 122t163 44
q98 0 149.5 -41.5t51.5 -108.5q0 -22 -5 -49l-37 -188q-6 -33 -6 -57q0 -34 15 -66zM212 88q54 0 91.5 38t49.5 104l2 11l-123 -15q-43 -5 -66.5 -25t-23.5 -52q0 -29 19 -45t51 -16zM264 616q-13 0 -20.5 -9t-7.5 -21q0 -6 4 -16l-85 -16q-6 12 -6 34q0 47 30 78t85 31
q37 0 63 -16.5t43.5 -33t33.5 -16.5q26 0 26 29q0 8 -3 17l83 17q6 -16 6 -42q0 -44 -30.5 -73t-82.5 -29q-38 0 -63.5 16.5t-42 33t-33.5 16.5z" />
    <glyph glyph-name="agrave.alt" horiz-adv-x="567" 
d="M467 0h-130q-12 21 -12 49q0 15 4 30q-29 -49 -66 -71t-93 -22q-65 0 -110.5 39t-45.5 105q0 73 52.5 119t147.5 58l158 20l2 10q2 14 2 22q0 30 -22.5 46.5t-62.5 16.5q-39 0 -65.5 -15.5t-26.5 -40.5q0 -8 3 -13l-123 -37q-4 14 -4 28q0 78 61 122t163 44
q98 0 149.5 -41.5t51.5 -108.5q0 -22 -5 -49l-37 -188q-6 -33 -6 -57q0 -34 15 -66zM212 88q54 0 91.5 38t49.5 104l2 11l-123 -15q-43 -5 -66.5 -25t-23.5 -52q0 -29 19 -45t51 -16zM340 708l37 -158h-97l-92 158h152z" />
    <glyph glyph-name="abreve.alt" horiz-adv-x="567" 
d="M467 0h-130q-12 21 -12 49q0 15 4 30q-29 -49 -66 -71t-93 -22q-65 0 -110.5 39t-45.5 105q0 73 52.5 119t147.5 58l158 20l2 10q2 14 2 22q0 30 -22.5 46.5t-62.5 16.5q-39 0 -65.5 -15.5t-26.5 -40.5q0 -8 3 -13l-123 -37q-4 14 -4 28q0 78 61 122t163 44
q98 0 149.5 -41.5t51.5 -108.5q0 -22 -5 -49l-37 -188q-6 -33 -6 -57q0 -34 15 -66zM212 88q54 0 91.5 38t49.5 104l2 11l-123 -15q-43 -5 -66.5 -25t-23.5 -52q0 -29 19 -45t51 -16zM372 677h76q-16 -113 -131 -113q-44 0 -71.5 26t-27.5 66q0 9 2 21h77q-1 -3 -1 -10
q0 -33 30 -33q34 0 46 43z" />
    <glyph glyph-name="aogonek.alt" horiz-adv-x="567" 
d="M272 -114q0 71 77 114h-12q-12 21 -12 49q0 15 4 30q-29 -49 -66 -71t-93 -22q-65 0 -110.5 39t-45.5 105q0 73 52.5 119t147.5 58l158 20l2 10q2 14 2 22q0 30 -22.5 46.5t-62.5 16.5q-39 0 -65.5 -15.5t-26.5 -40.5q0 -8 3 -13l-123 -37q-4 14 -4 28q0 78 61 122
t163 44q98 0 149.5 -41.5t51.5 -108.5q0 -22 -5 -49l-37 -188q-6 -33 -6 -57q0 -34 15 -66q-32 -14 -59.5 -36t-27.5 -47q0 -33 33 -33q9 0 22 2l-4 -77q-26 -7 -56 -7q-45 0 -74 22.5t-29 61.5zM212 88q54 0 91.5 38t49.5 104l2 11l-123 -15q-43 -5 -66.5 -25t-23.5 -52
q0 -29 19 -45t51 -16z" />
    <glyph glyph-name="amacron.alt" horiz-adv-x="567" 
d="M467 0h-130q-12 21 -12 49q0 15 4 30q-29 -49 -66 -71t-93 -22q-65 0 -110.5 39t-45.5 105q0 73 52.5 119t147.5 58l158 20l2 10q2 14 2 22q0 30 -22.5 46.5t-62.5 16.5q-39 0 -65.5 -15.5t-26.5 -40.5q0 -8 3 -13l-123 -37q-4 14 -4 28q0 78 61 122t163 44
q98 0 149.5 -41.5t51.5 -108.5q0 -22 -5 -49l-37 -188q-6 -33 -6 -57q0 -34 15 -66zM212 88q54 0 91.5 38t49.5 104l2 11l-123 -15q-43 -5 -66.5 -25t-23.5 -52q0 -29 19 -45t51 -16zM212 588l19 94h248l-19 -94h-248z" />
    <glyph glyph-name="aring.alt" horiz-adv-x="567" 
d="M467 0h-130q-12 21 -12 49q0 15 4 30q-29 -49 -66 -71t-93 -22q-65 0 -110.5 39t-45.5 105q0 73 52.5 119t147.5 58l158 20l2 10q2 14 2 22q0 30 -22.5 46.5t-62.5 16.5q-39 0 -65.5 -15.5t-26.5 -40.5q0 -8 3 -13l-123 -37q-4 14 -4 28q0 78 61 122t163 44
q98 0 149.5 -41.5t51.5 -108.5q0 -22 -5 -49l-37 -188q-6 -33 -6 -57q0 -34 15 -66zM212 88q54 0 91.5 38t49.5 104l2 11l-123 -15q-43 -5 -66.5 -25t-23.5 -52q0 -29 19 -45t51 -16zM226 635q0 40 28 67.5t68 27.5t68 -27.5t28 -67.5t-28 -67.5t-68 -27.5t-68 27.5
t-28 67.5zM289 635q0 -16 9 -25t24 -9t24 9t9 25t-9 25t-24 9t-24 -9t-9 -25z" />
    <glyph glyph-name="ae.alt" horiz-adv-x="910" 
d="M862 218h-383q0 -57 32 -90.5t85 -33.5q98 0 148 89l91 -58q-42 -70 -101 -104.5t-145 -34.5q-72 0 -125 29.5t-78 84.5q-66 -114 -207 -114q-74 0 -119.5 40.5t-45.5 107.5q0 85 67.5 130.5t184.5 45.5h106l4 28q1 9 1 18q0 30 -22.5 48t-64.5 18q-37 0 -63.5 -14.5
t-26.5 -40.5q0 -8 3 -14l-126 -37q-4 12 -4 35q0 75 63.5 117t159.5 42q123 0 179 -68q83 68 182 68t158 -55t59 -141q0 -31 -7 -68zM212 88q56 0 92.5 33.5t45.5 85.5l2 11h-107q-49 0 -76 -19t-27 -53q0 -28 19 -43t51 -15zM646 414q-51 0 -91 -29t-55 -75h262
q0 47 -33 75.5t-83 28.5z" />
    <glyph glyph-name="aeacute.alt" horiz-adv-x="910" 
d="M862 218h-383q0 -57 32 -90.5t85 -33.5q98 0 148 89l91 -58q-42 -70 -101 -104.5t-145 -34.5q-72 0 -125 29.5t-78 84.5q-66 -114 -207 -114q-74 0 -119.5 40.5t-45.5 107.5q0 85 67.5 130.5t184.5 45.5h106l4 28q1 9 1 18q0 30 -22.5 48t-64.5 18q-37 0 -63.5 -14.5
t-26.5 -40.5q0 -8 3 -14l-126 -37q-4 12 -4 35q0 75 63.5 117t159.5 42q123 0 179 -68q83 68 182 68t158 -55t59 -141q0 -31 -7 -68zM212 88q56 0 92.5 33.5t45.5 85.5l2 11h-107q-49 0 -76 -19t-27 -53q0 -28 19 -43t51 -15zM646 414q-51 0 -91 -29t-55 -75h262
q0 47 -33 75.5t-83 28.5zM405 550l95 158h155l-149 -158h-101z" />
    <glyph glyph-name="alpha.alt" horiz-adv-x="654" 
d="M600 496l-68 -348q-2 -12 -2 -16q0 -28 27 -28q7 0 15 4v-108q-36 -14 -68 -14q-45 0 -68 23.5t-23 63.5q-56 -87 -174 -87q-92 0 -153 64.5t-61 164.5q0 121 75.5 208t199.5 87q109 0 159 -70l11 56h130zM277 104q65 0 110 51.5t45 115.5q0 55 -34.5 88t-86.5 33
q-69 0 -112.5 -48t-43.5 -116q0 -58 34 -91t88 -33z" />
    <glyph glyph-name="alphatonos.alt" horiz-adv-x="654" 
d="M600 496l-68 -348q-2 -12 -2 -16q0 -28 27 -28q7 0 15 4v-108q-36 -14 -68 -14q-45 0 -68 23.5t-23 63.5q-56 -87 -174 -87q-92 0 -153 64.5t-61 164.5q0 121 75.5 208t199.5 87q109 0 159 -70l11 56h130zM277 104q65 0 110 51.5t45 115.5q0 55 -34.5 88t-86.5 33
q-69 0 -112.5 -48t-43.5 -116q0 -58 34 -91t88 -33zM267 542l75 158h144l-133 -158h-86z" />
    <glyph glyph-name="delta.alt" horiz-adv-x="578" 
d="M346 616q-38 0 -67 -15.5t-29 -43.5q0 -30 26 -49t104 -45q79 -26 116.5 -74.5t37.5 -132.5q0 -118 -78 -194t-207 -76q-98 0 -160.5 56.5t-62.5 149.5q0 88 54.5 157t144.5 93q-39 16 -66.5 47.5t-27.5 70.5q0 73 62 113.5t162 40.5q92 0 145 -33t53 -85q0 -42 -34 -87
l-103 45q5 10 5 21q0 18 -19 29.5t-56 11.5zM259 96q67 0 109.5 41t42.5 109q0 51 -30.5 79.5t-81.5 28.5q-67 0 -109.5 -45t-42.5 -105q0 -52 31.5 -80t80.5 -28z" />
    <glyph glyph-name="zero.slash" horiz-adv-x="722" 
d="M693 415q0 -84 -25 -160.5t-71.5 -137t-119 -96t-161.5 -35.5q-121 0 -197.5 82.5t-76.5 222.5q0 76 24.5 150t69.5 135.5t118 99.5t161 38q126 0 202 -79t76 -220zM336 108q99 0 161 84.5t62 208.5q0 45 -13 86l-284 -363q31 -16 74 -16zM176 297q0 -47 12 -85l286 365
q-30 15 -68 15q-70 0 -124 -47t-80 -113.5t-26 -134.5z" />
    <glyph glyph-name="zerosuperior.slash" horiz-adv-x="388" 
d="M402 553q0 -91 -52 -150.5t-137 -59.5q-58 0 -100 41.5t-42 112.5q0 84 51 147t140 63q64 0 102 -39.5t38 -114.5zM223 419q43 0 69 35.5t26 90.5q0 20 -4 33l-109 -157q5 -2 18 -2zM156 503q0 -17 3 -30l109 156q-10 2 -15 2q-43 0 -70 -39.5t-27 -88.5z" />
    <glyph glyph-name="zeroinferior.slash" horiz-adv-x="388" 
d="M297 -1q0 -91 -52 -150.5t-137 -59.5q-58 0 -100 41.5t-42 112.5q0 84 51 147t140 63q64 0 102 -39.5t38 -114.5zM118 -135q43 0 69 35.5t26 90.5q0 20 -4 33l-109 -157q5 -2 18 -2zM51 -51q0 -17 3 -30l109 156q-10 2 -15 2q-43 0 -70 -39.5t-27 -88.5z" />
    <glyph glyph-name="zero.posn" horiz-adv-x="676" 
d="M640 330q0 -148 -93.5 -246t-252.5 -98q-109 0 -186 69.5t-77 183.5q0 142 96.5 240.5t246.5 98.5q117 0 191.5 -65t74.5 -183zM307 104q85 0 144 62t59 150q0 65 -42 104.5t-105 39.5q-85 0 -143.5 -62t-58.5 -148q0 -67 42.5 -106.5t103.5 -39.5z" />
    <glyph glyph-name="one.posn" horiz-adv-x="375" 
d="M43 354l23 122q61 0 98 21t69 67h120l-109 -564h-128l78 402q-30 -27 -63.5 -37.5t-87.5 -10.5z" />
    <glyph glyph-name="two.posn" horiz-adv-x="526" 
d="M14 81l260 191q44 33 63.5 60.5t19.5 58.5q0 34 -22.5 55.5t-59.5 21.5q-41 0 -66 -25t-25 -63q0 -13 4 -27l-122 -35q-9 23 -9 54q0 90 60 148t166 58q90 0 147 -45.5t57 -116.5q0 -59 -32 -106.5t-99 -101.5l-113 -90h199l-23 -118h-421z" />
    <glyph glyph-name="three.posn" 
d="M55 184l113 -38q-8 -21 -8 -42q0 -38 27.5 -61t75.5 -23q53 0 89 28t36 74q0 49 -38 71t-116 22l19 98q80 0 121 20t41 71q0 32 -25 50t-63 18q-47 0 -80 -27t-33 -70q0 -10 1 -18l-119 -20q-3 21 -3 37q0 87 65.5 145.5t179.5 58.5q93 0 150 -42.5t57 -112.5
q0 -55 -34.5 -98t-85.5 -59q40 -17 68.5 -52t28.5 -83q0 -103 -71.5 -162t-191.5 -59q-107 0 -168 51.5t-61 124.5q0 56 25 98z" />
    <glyph glyph-name="four.posn" horiz-adv-x="604" 
d="M-3 40l22 114l394 410h130l-80 -410h75l-22 -114h-75l-23 -116h-130l23 116h-314zM378 383l-215 -229h170z" />
    <glyph glyph-name="five.posn" horiz-adv-x="608" 
d="M47 222l99 342h413l-21 -106h-317l-44 -138q25 25 67 41t87 16q91 0 144.5 -51t53.5 -145q0 -117 -76.5 -194t-212.5 -77q-100 0 -160.5 48.5t-60.5 120.5q0 42 22 81l109 -31q-7 -21 -7 -39q0 -32 27.5 -51t76.5 -19q70 0 112 41t42 109q0 51 -31.5 80t-80.5 29
q-100 0 -146 -83z" />
    <glyph glyph-name="six.posn" horiz-adv-x="592" 
d="M530 428l-116 26q10 22 10 44q0 24 -22 41t-55 17q-63 0 -112.5 -54.5t-68.5 -148.5q67 65 158 65q92 0 148.5 -52t56.5 -133q0 -109 -74.5 -178t-194.5 -69q-108 0 -167.5 70t-59.5 195q0 51 12.5 105.5t39 108t63.5 95.5t91 68t117 26q89 0 140.5 -42.5t51.5 -105.5
q0 -42 -18 -78zM293 312q-58 0 -94 -34.5t-36 -90.5q0 -45 31.5 -71t80.5 -26q56 0 91.5 35t35.5 92q0 48 -30.5 71.5t-78.5 23.5z" />
    <glyph glyph-name="seven.posn" horiz-adv-x="527" 
d="M503 452l-302 -528h-139l299 522h-294l23 118h435z" />
    <glyph glyph-name="eight.posn" horiz-adv-x="586" 
d="M261 -14q-98 0 -159 48.5t-61 124.5q0 67 37 117.5t101 77.5q-63 49 -63 121q0 78 65 128.5t163 50.5q90 0 147.5 -43.5t57.5 -112.5q0 -112 -108 -160q81 -45 81 -134q0 -99 -74.5 -158.5t-186.5 -59.5zM269 88q52 0 86.5 32.5t34.5 82.5q0 40 -26.5 61.5t-70.5 21.5
q-50 0 -84 -29t-34 -78q0 -41 25.5 -66t68.5 -25zM337 560q-41 0 -71 -26.5t-30 -66.5q0 -35 25 -58t60 -23q42 0 71 26.5t29 68.5q0 34 -23.5 56.5t-60.5 22.5z" />
    <glyph glyph-name="nine.posn" horiz-adv-x="593" 
d="M60 136l112 -26q-11 -16 -11 -39q0 -28 21 -45.5t64 -17.5q67 0 111 51.5t60 151.5q-61 -65 -150 -65q-86 0 -147.5 51.5t-61.5 138.5q0 106 70 174t184 68t177 -65.5t63 -191.5q0 -59 -10 -115t-34.5 -110.5t-60 -95t-91 -65.5t-123.5 -25q-86 0 -140.5 43.5
t-54.5 105.5q0 41 22 77zM291 250q59 0 96 34t37 91q0 46 -32 72.5t-78 26.5q-56 0 -92.5 -37t-36.5 -92q0 -45 30 -70t76 -25z" />
    <glyph glyph-name="zero.posn.slash" horiz-adv-x="676" 
d="M640 330q0 -148 -93.5 -246t-252.5 -98q-109 0 -186 69.5t-77 183.5q0 142 96.5 240.5t246.5 98.5q117 0 191.5 -65t74.5 -183zM161 250q0 -36 13 -65l243 266q-25 9 -54 9q-85 0 -143.5 -62t-58.5 -148zM307 104q85 0 144 62t59 150q0 33 -13 64l-243 -267q24 -9 53 -9z
" />
    <glyph glyph-name="zero.tn" horiz-adv-x="610" 
d="M608 430q0 -87 -22.5 -165.5t-64.5 -141.5t-109.5 -100t-151.5 -37q-115 0 -181 76t-66 204q0 84 22 162.5t64.5 143t111.5 103.5t156 39q116 0 178.5 -72.5t62.5 -211.5zM273 108q91 0 145 92t54 215q0 81 -30.5 129t-88.5 48q-50 0 -90.5 -32t-63.5 -81t-35 -101
t-12 -99q0 -79 30.5 -125t90.5 -46z" />
    <glyph glyph-name="one.tn" horiz-adv-x="610" 
d="M112 483l24 121q139 0 204 96h124l-113 -578h184l-24 -122h-499l23 122h184l81 416q-67 -55 -188 -55z" />
    <glyph glyph-name="two.tn" horiz-adv-x="610" 
d="M37 94l316 257q48 40 70 75.5t22 78.5q0 44 -27 68.5t-75 24.5q-47 0 -79.5 -31t-32.5 -73q0 -22 6 -38l-131 -24q-9 23 -9 50q0 100 68 166t182 66q105 0 168.5 -52.5t63.5 -144.5q0 -126 -141 -242l-187 -153h264l-24 -122h-472z" />
    <glyph glyph-name="three.tn" horiz-adv-x="610" 
d="M68 262l118 -30q-12 -18 -12 -47q0 -39 31 -63t83 -24q55 0 92.5 35t37.5 88q0 104 -158 104l19 98q74 1 120 26.5t46 76.5q0 38 -27.5 59t-69.5 21q-45 0 -74 -25t-29 -74q0 -7 1 -13l-125 -21q-3 15 -3 29q0 92 65.5 152t178.5 60q101 0 157 -48t56 -122
q0 -56 -32.5 -100t-87.5 -62q44 -23 70.5 -62.5t26.5 -92.5q0 -105 -73 -173t-201 -68q-107 0 -169.5 55.5t-62.5 134.5q0 51 22 86z" />
    <glyph glyph-name="four.tn" horiz-adv-x="610" 
d="M6 116l21 114l417 470h134l-90 -462h71l-24 -122h-71l-23 -116h-132l23 116h-326zM409 511l-231 -273h178z" />
    <glyph glyph-name="five.tn" horiz-adv-x="610" 
d="M68 318l107 382h431l-24 -122h-336l-47 -159q62 59 156 59q100 0 156 -55t56 -156q0 -124 -81 -202.5t-213 -78.5q-103 0 -167.5 53.5t-64.5 130.5q0 42 17 78l118 -30q-8 -16 -8 -41q0 -32 32.5 -55.5t80.5 -23.5q70 0 112 43t42 115q0 59 -32.5 89.5t-85.5 30.5
q-45 0 -85.5 -23.5t-64.5 -61.5z" />
    <glyph glyph-name="six.tn" horiz-adv-x="610" 
d="M572 484l-112 26q8 19 8 41q0 27 -25.5 44t-67.5 17q-69 0 -121.5 -61t-73.5 -161q62 68 162 68q96 0 159.5 -55t63.5 -148q0 -119 -79 -194t-203 -75q-112 0 -179.5 76.5t-67.5 205.5q0 59 13 119.5t41.5 119.5t68.5 105t99.5 74t128.5 28q89 0 146 -43.5t57 -108.5
q0 -40 -18 -78zM311 350q-62 0 -101.5 -40t-39.5 -101q0 -51 34.5 -83t88.5 -32q61 0 101.5 39.5t40.5 101.5q0 56 -34 85.5t-90 29.5z" />
    <glyph glyph-name="seven.tn" horiz-adv-x="610" 
d="M599 584l-376 -584h-141l373 578h-329l24 122h472z" />
    <glyph glyph-name="eight.tn" horiz-adv-x="610" 
d="M278 -14q-105 0 -170.5 55t-65.5 138q0 69 41 122.5t109 81.5q-29 19 -49.5 54.5t-20.5 77.5q0 85 68 142t177 57q99 0 157 -47t58 -118q0 -63 -34 -109.5t-91 -70.5q39 -22 65.5 -62t26.5 -86q0 -109 -76.5 -172t-194.5 -63zM288 94q56 0 95 33.5t39 89.5q0 46 -32 72.5
t-80 26.5q-61 0 -97.5 -33.5t-36.5 -88.5q0 -46 32.5 -73t79.5 -27zM360 616q-50 0 -83 -30t-33 -76q0 -41 27 -63.5t65 -22.5q51 0 85 28.5t34 78.5q0 40 -25.5 62.5t-69.5 22.5z" />
    <glyph glyph-name="nine.tn" horiz-adv-x="610" 
d="M59 217l119 -28q-8 -19 -8 -36q0 -28 22 -46.5t63 -18.5q74 0 124.5 58.5t67.5 164.5q-56 -69 -155 -69q-100 0 -163 61.5t-63 151.5q0 117 77.5 188t202.5 71q120 0 184 -69.5t64 -191.5q0 -61 -11 -123t-37.5 -124.5t-64.5 -111t-97.5 -78.5t-131.5 -30
q-94 0 -151.5 43t-57.5 112q0 41 16 76zM316 350q64 0 106 38.5t42 100.5q0 51 -33.5 84t-88.5 33q-64 0 -105 -39.5t-41 -104.5q0 -51 33.5 -81.5t86.5 -30.5z" />
    <glyph glyph-name="zero.tn.slash" horiz-adv-x="610" 
d="M608 430q0 -87 -22.5 -165.5t-64.5 -141.5t-109.5 -100t-151.5 -37q-115 0 -181 76t-66 204q0 84 22 162.5t64.5 143t111.5 103.5t156 39q116 0 178.5 -72.5t62.5 -211.5zM273 108q91 0 145 92t54 215q0 29 -4 50l-263 -335q28 -22 68 -22zM152 279q0 -15 2 -41l262 334
q-26 20 -63 20q-50 0 -90.5 -32t-63.5 -81t-35 -101t-12 -99z" />
    <glyph glyph-name="zero.tosn" horiz-adv-x="610" 
d="M607 330q0 -148 -93.5 -246t-252.5 -98q-109 0 -186 69.5t-77 183.5q0 142 96.5 240.5t246.5 98.5q117 0 191.5 -65t74.5 -183zM274 104q85 0 144 62t59 150q0 65 -42 104.5t-105 39.5q-85 0 -143.5 -62t-58.5 -148q0 -67 42.5 -106.5t103.5 -39.5z" />
    <glyph glyph-name="one.tosn" horiz-adv-x="610" 
d="M18 0l23 118h180l55 283q-56 -47 -171 -47l23 122q126 0 187 88h120l-86 -446h168l-23 -118h-476z" />
    <glyph glyph-name="two.tosn" horiz-adv-x="610" 
d="M67 81l260 191q44 33 63.5 60.5t19.5 58.5q0 34 -22.5 55.5t-59.5 21.5q-41 0 -66 -25t-25 -63q0 -13 4 -27l-122 -35q-9 23 -9 54q0 90 60 148t166 58q90 0 147 -45.5t57 -116.5q0 -59 -32 -106.5t-99 -101.5l-113 -90h199l-23 -118h-421z" />
    <glyph glyph-name="three.tosn" horiz-adv-x="610" 
d="M68 184l113 -38q-8 -21 -8 -42q0 -38 27.5 -61t75.5 -23q53 0 89 28t36 74q0 49 -38 71t-116 22l19 98q80 0 121 20t41 71q0 32 -25 50t-63 18q-47 0 -80 -27t-33 -70q0 -10 1 -18l-119 -20q-3 21 -3 37q0 87 65.5 145.5t179.5 58.5q93 0 150 -42.5t57 -112.5
q0 -55 -34.5 -98t-85.5 -59q40 -17 68.5 -52t28.5 -83q0 -103 -71.5 -162t-191.5 -59q-107 0 -168 51.5t-61 124.5q0 56 25 98z" />
    <glyph glyph-name="four.tosn" horiz-adv-x="610" 
d="M1 40l22 114l394 410h130l-80 -410h75l-22 -114h-75l-23 -116h-130l23 116h-314zM382 383l-215 -229h170z" />
    <glyph glyph-name="five.tosn" horiz-adv-x="610" 
d="M59 222l99 342h413l-21 -106h-317l-44 -138q25 25 67 41t87 16q91 0 144.5 -51t53.5 -145q0 -117 -76.5 -194t-212.5 -77q-100 0 -160.5 48.5t-60.5 120.5q0 42 22 81l109 -31q-7 -21 -7 -39q0 -32 27.5 -51t76.5 -19q70 0 112 41t42 109q0 51 -31.5 80t-80.5 29
q-100 0 -146 -83z" />
    <glyph glyph-name="six.tosn" horiz-adv-x="610" 
d="M550 428l-116 26q10 22 10 44q0 24 -22 41t-55 17q-63 0 -112.5 -54.5t-68.5 -148.5q67 65 158 65q92 0 148.5 -52t56.5 -133q0 -109 -74.5 -178t-194.5 -69q-108 0 -167.5 70t-59.5 195q0 51 12.5 105.5t39 108t63.5 95.5t91 68t117 26q89 0 140.5 -42.5t51.5 -105.5
q0 -42 -18 -78zM313 312q-58 0 -94 -34.5t-36 -90.5q0 -45 31.5 -71t80.5 -26q56 0 91.5 35t35.5 92q0 48 -30.5 71.5t-78.5 23.5z" />
    <glyph glyph-name="seven.tosn" horiz-adv-x="610" 
d="M545 452l-302 -528h-139l299 522h-294l23 118h435z" />
    <glyph glyph-name="eight.tosn" horiz-adv-x="610" 
d="M273 -14q-98 0 -159 48.5t-61 124.5q0 67 37 117.5t101 77.5q-63 49 -63 121q0 78 65 128.5t163 50.5q90 0 147.5 -43.5t57.5 -112.5q0 -112 -108 -160q81 -45 81 -134q0 -99 -74.5 -158.5t-186.5 -59.5zM281 88q52 0 86.5 32.5t34.5 82.5q0 40 -26.5 61.5t-70.5 21.5
q-50 0 -84 -29t-34 -78q0 -41 25.5 -66t68.5 -25zM349 560q-41 0 -71 -26.5t-30 -66.5q0 -35 25 -58t60 -23q42 0 71 26.5t29 68.5q0 34 -23.5 56.5t-60.5 22.5z" />
    <glyph glyph-name="nine.tosn" horiz-adv-x="610" 
d="M68 136l112 -26q-11 -16 -11 -39q0 -28 21 -45.5t64 -17.5q67 0 111 51.5t60 151.5q-61 -65 -150 -65q-86 0 -147.5 51.5t-61.5 138.5q0 106 70 174t184 68t177 -65.5t63 -191.5q0 -59 -10 -115t-34.5 -110.5t-60 -95t-91 -65.5t-123.5 -25q-86 0 -140.5 43.5
t-54.5 105.5q0 41 22 77zM299 250q59 0 96 34t37 91q0 46 -32 72.5t-78 26.5q-56 0 -92.5 -37t-36.5 -92q0 -45 30 -70t76 -25z" />
    <glyph glyph-name="zero.tosn.slash" horiz-adv-x="610" 
d="M607 330q0 -148 -93.5 -246t-252.5 -98q-109 0 -186 69.5t-77 183.5q0 142 96.5 240.5t246.5 98.5q117 0 191.5 -65t74.5 -183zM128 250q0 -36 13 -65l243 266q-26 9 -54 9q-85 0 -143.5 -62t-58.5 -148zM274 104q85 0 144 62t59 150q0 33 -13 64l-243 -267q24 -9 53 -9z
" />
    <glyph glyph-name="at.case" horiz-adv-x="958" 
d="M632 64l41 -83q-110 -64 -260 -64q-73 0 -137.5 23.5t-116.5 69t-82.5 120t-30.5 168.5q0 129 59 239t172 178t256 68q174 0 277 -91.5t103 -250.5q0 -145 -74 -245t-192 -100q-42 0 -66.5 23.5t-24.5 64.5q-23 -37 -66 -62.5t-93 -25.5q-80 0 -126 55.5t-46 152.5
q0 73 30 141.5t93.5 116t146.5 47.5q82 0 114 -61l9 45h101l-75 -360q-2 -10 -2 -20q0 -32 32 -32q59 0 95.5 73t36.5 181q0 122 -70 189t-212 67q-161 0 -266 -114t-105 -274q0 -140 76 -217t200 -77q104 0 203 55zM419 181q70 0 116 69.5t46 154.5q0 117 -92 117
q-70 0 -113.5 -67t-43.5 -151q0 -59 23.5 -91t63.5 -32z" />
    <glyph glyph-name="braceleft.case" horiz-adv-x="395" 
d="M48 299l19 102q39 0 60.5 17t30.5 62l23 120q18 95 66 135t137 40h58l-23 -118h-25q-76 0 -93 -87l-22 -112q-9 -47 -29 -70.5t-57 -37.5q47 -20 47 -72q0 -22 -4 -43l-20 -105q-4 -22 -4 -33q0 -54 63 -54h25l-23 -118h-56q-60 0 -100.5 33t-40.5 96q0 23 5 53l22 113
q3 16 3 29q0 50 -62 50z" />
    <glyph glyph-name="braceright.case" horiz-adv-x="395" 
d="M366 401l-19 -102q-39 0 -60.5 -17t-30.5 -62l-23 -120q-18 -95 -66 -135t-137 -40h-58l23 118h25q76 0 93 87l22 112q9 47 29 70.5t57 37.5q-47 20 -47 72q0 22 4 43l20 105q4 22 4 33q0 54 -63 54h-25l23 118h56q60 0 100.5 -33t40.5 -96q0 -23 -5 -53l-22 -113
q-3 -16 -3 -29q0 -50 62 -50z" />
    <glyph glyph-name="bracketleft.case" horiz-adv-x="347" 
d="M1 -75l164 850h229l-23 -118h-103l-119 -614h103l-23 -118h-228z" />
    <glyph glyph-name="bracketright.case" horiz-adv-x="347" 
d="M366 775l-165 -850h-228l23 118h102l119 614h-103l23 118h229z" />
    <glyph glyph-name="bullet.case" horiz-adv-x="326" 
d="M53 350q0 50 35 85t85 35t85 -35t35 -85t-35 -85t-85 -35t-85 35t-35 85z" />
    <glyph glyph-name="exclamdown.case" horiz-adv-x="281" 
d="M194 244l-48 -243h-132l48 243l64 249h100zM283 701l-27 -138h-132l27 138h132z" />
    <glyph glyph-name="guillemotleft.case" 
d="M259 563h148l-213 -218l121 -208h-139l-126 212zM471 563h148l-213 -218l121 -208h-139l-126 212z" />
    <glyph glyph-name="guillemotright.case" 
d="M356 137h-148l213 218l-121 208h139l126 -212zM144 137h-148l213 218l-121 208h139l126 -212z" />
    <glyph glyph-name="guilsinglleft.case" horiz-adv-x="378" 
d="M258 564h148l-213 -218l121 -208h-139l-126 212z" />
    <glyph glyph-name="guilsinglright.case" horiz-adv-x="378" 
d="M141 138h-148l213 218l-121 208h139l126 -212z" />
    <glyph glyph-name="parenleft.case" horiz-adv-x="360" 
d="M215 -74h-112q-44 123 -44 280q0 150 56 304t152 264h113q-90 -124 -144 -273.5t-54 -300.5q0 -163 33 -274z" />
    <glyph glyph-name="parenright.case" horiz-adv-x="360" 
d="M164 774h112q44 -123 44 -280q0 -150 -56 -304t-152 -264h-113q90 124 144 273.5t54 300.5q0 163 -33 274z" />
    <glyph glyph-name="questiondown.case" horiz-adv-x="549" 
d="M261 492h127l-3 -16q-9 -48 -35.5 -82t-86.5 -75q-58 -40 -84 -69t-26 -71q0 -33 26.5 -56t70.5 -23q50 0 82.5 31t32.5 79q0 12 -3 24l125 26q5 -22 5 -43q0 -99 -68 -165t-184 -66q-99 0 -158 47t-59 125q0 119 149 218q46 31 64.5 55.5t24.5 60.5zM432 700l-27 -138
h-132l27 138h132z" />
    </font>
</defs>
</svg>
